<?xml version="1.0" encoding="utf-8"?>
<!-- Generator: Adobe Illustrator 23.0.1, SVG Export Plug-In . SVG Version: 6.00 Build 0)  -->
<svg version="1.1" id="Layer_1" xmlns="http://www.w3.org/2000/svg" xmlns:xlink="http://www.w3.org/1999/xlink" x="0px" y="0px"
	 viewBox="0 0 1080 1080" style="enable-background:new 0 0 1080 1080;" xml:space="preserve">
<style type="text/css">
	.st0{display:none;}
	.st1{display:inline;fill:#0A3637;}
	.st2{display:inline;}
	.st3{fill:#8AB83E;}
	.st4{display:inline;fill:#8AB83E;}
	.st5{display:inline;fill:#F49B03;}
	.st6{display:inline;fill:#DB0000;}
	.st7{display:inline;fill:#14ABC4;}
	.st8{fill:#F49B03;}
	.st9{fill:#FFFFFF;}
	.st10{fill:#DB0000;}
	.st11{fill:#0A3637;}
	.st12{fill:#14ABC4;}
	.st13{fill:#BC0000;}
	.st14{fill:#A30000;}
</style>
<g class="st0">
	<rect x="1187.2" y="381.8" class="st1" width="1079" height="646"/>
	<g class="st2">
		<path class="st3" d="M1783.2,591.6c-0.1,8.4-2.3,15.3-6.6,21.4c-4.7,6.8-9.8,13.4-14.7,20.1c-3.9,5.3-7.8,10.6-11.7,15.9
			c-1.8,2.5-4,2.5-5.8,0c-8.3-11.3-16.6-22.5-24.9-33.8c-4-5.4-6.8-11.4-7.7-18.1c-1.1-7.7,0.3-15,4.1-21.8
			c4.9-8.7,12.2-14.6,21.8-17.3c9.7-2.7,19-1.5,27.7,3.7c9.6,5.8,15.4,14.2,17.2,25.3C1783.1,588.8,1783.1,590.6,1783.2,591.6z
			 M1747.3,643c0.3-0.3,0.5-0.6,0.7-0.8c3.2-4.4,6.4-8.7,9.6-13.1c4.6-6.3,9.3-12.5,13.8-18.9c3.6-5.1,5.7-10.7,5.8-17
			c0.2-9.3-3.3-17.2-10.3-23.3c-6.5-5.7-14.2-8.2-22.9-7.2c-7.9,0.9-14.5,4.4-19.6,10.5c-4.1,4.8-6.4,10.5-7,16.8
			c-0.6,7.3,1.4,14,5.6,19.9c5.9,8.4,12.1,16.6,18.2,24.9C1743.3,637.6,1745.3,640.3,1747.3,643z"/>
		<g>
			<path class="st3" d="M1743.7,606.5v-10.2h-10.2c-1.2,0-2.2-0.3-2.9-1s-1.1-1.5-1.1-2.6c0-1,0.4-1.9,1.1-2.6s1.7-1,2.9-1h10.2
				v-10.2c0-1.2,0.3-2.2,1-3c0.7-0.7,1.5-1.1,2.6-1.1c1,0,1.9,0.4,2.6,1.1s1,1.7,1,2.9V589h10.2c1.2,0,2.2,0.3,2.9,1
				c0.7,0.7,1.1,1.5,1.1,2.6s-0.4,1.9-1.1,2.6s-1.7,1-2.9,1H1751v10.2c0,1.2-0.3,2.2-1,2.9s-1.6,1.1-2.6,1.1c-1.1,0-1.9-0.4-2.6-1.1
				S1743.7,607.6,1743.7,606.5z"/>
		</g>
	</g>
	<g class="st2">
		<path class="st3" d="M-1060.7-513.9c11.3,5.2,23.5,9.1,33.8,16c22.8,15.2,35,37.3,35.3,64.9c0.5,48,0.1,96.1,0.1,144.1
			c0,2.5,0,5,0,8.7c-13-11.2-24.9-21.6-36.9-31.9c-5.7-4.9-11.9-9.5-17.2-14.8c-2-2-3.4-5.7-3.4-8.6c-0.2-30.5-0.1-61-0.2-91.5
			c0-17-12.1-29.1-28.9-29.1c-131.6,0-263.3,0-394.9,0c-16.5,0-28.8,12.2-28.8,28.5c0,188.6,0,377.1,0,565.7
			c0,16.3,12.3,28.5,28.8,28.5c131.6,0,263.3,0,394.9,0c16.9,0,28.9-12.2,28.9-29.1c0-30,0.1-60.1-0.1-90.1c0-5.2,1.3-8.3,5.8-11.7
			c9.1-6.8,17.2-14.9,25.8-22.4c8.3-7.3,16.7-14.5,26.1-22.6c0,3.6,0,6.1,0,8.7c0,48.5,0.2,97-0.1,145.6
			c-0.1,18.4-7.3,34.2-18.6,48.5c-13.1,16.6-30.9,25.2-50.5,30.9c-143.2,0-286.4,0-429.6,0c-19.6-5.7-37.4-14.3-50.5-30.9
			c-11.3-14.3-18.6-30.1-18.6-48.5c-0.1-192.6-0.2-385.2,0.1-577.9c0-27.5,12.5-49.7,35.3-64.9c10.3-6.8,22.5-10.7,33.8-16
			C-1347.1-513.9-1203.8-513.9-1060.7-513.9z"/>
		<path class="st3" d="M-1190.4-58.3c-3.3,0-5.9,0-8.4,0c-51.9,0-103.8,0.1-155.6-0.1c-8.4,0-17-0.8-24-6.8
			c-6.3-5.4-10.9-11.6-10.9-20.3c0-39.6-0.1-79.3,0-118.9c0-12.6,11-24.8,23.8-25.4c19.1-0.9,38.2-1.4,57.3-1.5
			c38.9-0.2,77.8-0.1,117.8-0.1c0-2.8,0-5.3,0-7.8c0-23.1,0-46.1,0-69.2c0-16.1,10.5-25.2,26.2-22.3c3.2,0.6,6.2,3.2,8.8,5.4
			c16,13.8,31.7,27.9,47.7,41.8c19.9,17.2,40,34.2,59.9,51.4c11.7,10.1,23.2,20.4,34.9,30.5c17.2,14.9,34.5,29.7,51.7,44.6
			c4.5,3.9,8.7,7.9,13.3,12.1c-8.6,7.7-16.7,15.2-25.1,22.5c-8.8,7.6-17.8,14.9-26.6,22.4c-17.1,14.6-34.2,29.3-51.2,44.1
			c-12.4,10.7-24.5,21.8-36.9,32.5c-16.3,14.1-32.8,28-49.2,42.1c-7.2,6.2-14.1,12.8-21.6,18.6c-10.4,8-24.5,3.8-29-8.7
			c-1.7-4.8-2.8-10-2.8-15.1c-0.3-21.4-0.1-42.8-0.1-64.1C-1190.4-53-1190.4-55.4-1190.4-58.3z"/>
	</g>
	<rect x="1509.2" y="-18.2" class="st1" width="75" height="58"/>
	<rect x="1509.2" y="47.8" class="st4" width="75" height="58"/>
	<rect x="1509.2" y="113.8" class="st5" width="75" height="58"/>
	<rect x="1509.2" y="190.8" class="st6" width="75" height="58"/>
	<rect x="1509.2" y="258.8" class="st7" width="75" height="58"/>
	<g class="st2">
		<path class="st8" d="M1435.4,112.8H1315c-6,0-10.8-4.8-10.8-10.8V79.6c0-6,4.8-10.8,10.8-10.8h120.4c6,0,10.8,4.8,10.8,10.8V102
			C1446.2,108,1441.4,112.8,1435.4,112.8z"/>
		<text transform="matrix(1 0 0 1 1338.2021 97.4879)" class="st9" style="font-family:'ArialMT'; font-size:24px;">Pending...</text>
		<g>
			<g>
				<path class="st9" d="M1324.1,87.2c0,1.2,0,2.3,0,3.5c0,0.6-0.2,1-0.6,1.4c-1.5,1.5-2.9,2.9-4.4,4.4c-0.6,0.6-1.6,0.7-2.2,0.1
					s-0.6-1.5,0.1-2.2c1.3-1.3,2.6-2.6,3.9-3.8c0.2-0.2,0.2-0.3,0.2-0.6c0-2.2,0-4.3,0-6.5c0-1.1,0.9-1.8,1.9-1.5
					c0.6,0.2,1,0.8,1.1,1.5C1324.1,84.7,1324.1,85.9,1324.1,87.2z"/>
				<path class="st9" d="M1322.3,75.4c8.3,0,15,6.7,15,15s-6.7,15-15,15s-15-6.8-15-15S1314,75.4,1322.3,75.4z M1333.6,90.5
					c0-6.2-5-11.2-11.2-11.3c-6.2,0-11.2,4.9-11.3,11.2c-0.1,6.2,5,11.3,11.2,11.3C1328.5,101.7,1333.5,96.7,1333.6,90.5z"/>
			</g>
		</g>
	</g>
	<g class="st2">
		<path class="st10" d="M1435.9,59.8h-120.4c-6,0-10.8-4.8-10.8-10.8V26.6c0-6,4.8-10.8,10.8-10.8h120.4c6,0,10.8,4.8,10.8,10.8V49
			C1446.7,55,1441.9,59.8,1435.9,59.8z"/>
		<text transform="matrix(1 0 0 1 1338.2021 44.8579)" class="st9" style="font-family:'ArialMT'; font-size:24px;">Denied!!!</text>
		<g>
			<path class="st9" d="M1322.3,22.8c8.3,0,15,6.7,15,15s-6.7,15-15,15s-15-6.8-15-15S1314,22.8,1322.3,22.8z M1333.6,37.8
				c0-6.2-5-11.2-11.2-11.3c-6.2,0-11.2,4.9-11.3,11.2s5,11.3,11.2,11.3C1328.5,49.1,1333.5,44,1333.6,37.8z"/>
			<path class="st9" d="M1324.8,37.8c1,0.9,1.8,1.7,2.6,2.5c0.9,0.9,0.9,2,0.1,2.8s-1.9,0.7-2.8-0.2c-0.8-0.8-1.6-1.6-2.5-2.6
				c-0.9,1-1.8,1.9-2.7,2.8c-0.6,0.6-1.5,0.7-2.2,0.3s-1.1-1.2-0.9-2.1c0.1-0.4,0.4-0.8,0.6-1c0.8-0.8,1.6-1.6,2.5-2.5
				c-0.9-0.9-1.7-1.7-2.5-2.5c-0.9-0.9-1-2.1-0.2-2.9c0.8-0.8,1.9-0.8,2.9,0.2c0.8,0.8,1.6,1.6,2.4,2.5c0.9-0.9,1.7-1.8,2.6-2.6
				c0.7-0.7,1.4-0.8,2.2-0.4c1.2,0.6,1.4,2,0.5,3C1326.7,36.1,1325.8,36.9,1324.8,37.8z"/>
		</g>
	</g>
	<g class="st2">
		<path class="st3" d="M1435.9,163.6h-120.4c-6,0-10.8-4.8-10.8-10.8v-22.4c0-6,4.8-10.8,10.8-10.8h120.4c6,0,10.8,4.8,10.8,10.8
			v22.4C1446.7,158.7,1441.9,163.6,1435.9,163.6z"/>
		<text transform="matrix(1 0 0 1 1338.2021 147.879)" class="st11" style="font-family:'ArialMT'; font-size:24px;">Approved</text>
		<g>
			<g>
				<g>
					<g>
						<g>
							<g>
								<path class="st11" d="M1319.8,142.6c0.5-0.7,1-1.4,1.5-2.1c2-2.6,3.9-5.3,5.9-7.9c0.6-0.7,1.6-0.9,2.4-0.3
									c0.7,0.6,0.9,1.6,0.4,2.4c-2.3,3.1-4.6,6.2-6.9,9.3c-0.5,0.7-1,1.4-1.6,2.1c-0.6,0.8-1.6,0.9-2.4,0.4
									c-1.6-1.2-3.2-2.4-4.8-3.6c-0.8-0.6-0.9-1.6-0.4-2.4c0.6-0.8,1.6-0.9,2.4-0.3c1.1,0.8,2.2,1.6,3.2,2.4
									C1319.7,142.5,1319.7,142.6,1319.8,142.6z"/>
							</g>
						</g>
					</g>
				</g>
			</g>
			<path class="st9" d="M1320.2,124.8c8.2-1.2,15.8,4.5,17,12.7s-4.5,15.9-12.8,17c-8.2,1.2-15.8-4.6-16.9-12.7
				C1306.3,133.6,1312,126,1320.2,124.8z M1333.4,138.1c-0.9-6.1-6.5-10.4-12.7-9.6c-6.2,0.9-10.4,6.5-9.6,12.7s6.6,10.5,12.7,9.6
				C1330,149.9,1334.3,144.2,1333.4,138.1z"/>
		</g>
	</g>
	<g class="st2">
		<path class="st12" d="M1436.4,215.8H1316c-6,0-10.8-4.8-10.8-10.8v-22.4c0-6,4.8-10.8,10.8-10.8h120.4c6,0,10.8,4.8,10.8,10.8V205
			C1447.2,211,1442.4,215.8,1436.4,215.8z"/>
		<text transform="matrix(1 0 0 1 1338.7021 200.1149)" class="st9" style="font-family:'ArialMT'; font-size:24px;">Delivered</text>
		<g>
			<path class="st9" d="M1320.5,177.6c8.2-1.2,15.8,4.5,17,12.7s-4.5,15.9-12.8,17c-8.2,1.2-15.8-4.6-16.9-12.7
				C1306.6,186.3,1312.3,178.7,1320.5,177.6z M1333.8,190.8c-0.9-6.1-6.5-10.4-12.7-9.6c-6.2,0.9-10.4,6.5-9.6,12.7
				s6.6,10.5,12.7,9.6C1330.4,202.6,1334.6,197,1333.8,190.8z"/>
			<g>
				<path class="st9" d="M1326,189.5c0.1,0,0.2,0,0.2,0c1.2,0,2.4,0,3.6,0c0.2,0,0.3,0,0.5,0.1c0.8,0.2,1.3,1.1,1,1.9
					c-0.1,0.2-0.2,0.4-0.3,0.6c0,0.1-0.1,0.1,0,0.2c0.2,0.6,0.1,1.2-0.3,1.7c0,0.1-0.1,0.1-0.1,0.2c0.2,0.6,0.1,1.2-0.3,1.7
					c0,0.1-0.1,0.2-0.1,0.2c0.3,1.2-0.4,2.3-1.6,2.5c-0.2,0-0.4,0-0.7,0c-2.2,0-4.3,0-6.5,0c-0.4,0-0.8-0.1-1.2-0.4
					c-0.1,0-0.1-0.1-0.2-0.1c0,0.1,0,0.1,0,0.1c0,0.5-0.3,0.8-0.9,0.8c-1.1,0-2.3,0-3.4,0c-0.3,0-0.7,0-1,0c-0.5,0-0.9-0.3-0.9-0.9
					c0-2.3,0-4.5,0-6.7c0-0.6,0.3-1,0.9-1c1.6,0,3.2,0,4.8,0c0.1,0,0.2,0,0.3,0c0.2,0.1,0.3,0,0.4-0.1c0.4-0.6,0.9-1.2,1.3-1.9
					c0.3-0.5,0.6-1,0.8-1.5c0.1-0.1,0.1-0.3,0.1-0.4c0-0.6,0-1.2,0-1.8c0-0.4,0.2-0.7,0.5-0.9c0.6-0.4,1.6-0.4,2.2,0
					c0.1,0.1,0.2,0.2,0.2,0.3c0.4,0.8,0.7,1.6,0.9,2.6c0.1,0.4-0.1,0.9-0.1,1.3C1326.1,188.7,1326.1,189.1,1326,189.5z
					 M1324.9,190.4c0-0.1,0-0.1,0-0.1c0.1-0.7,0.3-1.5,0.4-2.2c0.1-0.3,0.1-0.6,0.1-1c-0.1-0.8-0.4-1.5-0.7-2.2l-0.1-0.1
					c-0.3-0.1-0.6-0.2-0.9,0c-0.1,0.1-0.2,0.1-0.2,0.3c0,0.6,0,1.1,0,1.7c0,0.3,0,0.6-0.2,0.8c-0.5,0.9-1.1,1.8-1.6,2.7
					c-0.4,0.7-1,1.3-1.7,1.7c-0.1,0.1-0.2,0.1-0.2,0.3c0,1.6,0,3.2,0,4.8c0,0.1,0,0.1,0,0.2c0.4-0.1,0.6,0.1,0.9,0.3
					s0.5,0.3,0.8,0.3c1,0,2,0,3,0c1.2,0,2.4,0,3.6,0c0.6,0,1-0.3,1.1-0.7s-0.1-0.8-0.4-0.8c0,0,0,0-0.1,0c0-0.1,0-0.3,0.2-0.3
					c0.4-0.1,0.6-0.3,0.7-0.7c0.2-0.4,0-0.7-0.4-0.9c-0.1,0-0.1,0-0.2-0.1c0-0.3,0-0.3,0.2-0.3c0.3-0.1,0.6-0.4,0.7-0.7
					s0-0.6-0.3-0.8c-0.1,0-0.2-0.1-0.3-0.1c0-0.2,0-0.3,0.3-0.3c0.2,0,0.4-0.2,0.6-0.4c0.2-0.3,0.3-0.6,0.1-0.9
					c-0.2-0.3-0.4-0.3-0.7-0.3c-1.5,0-3,0-4.5,0C1325.1,190.4,1325,190.4,1324.9,190.4z M1319,198.3c0-0.1,0-0.1,0-0.2
					c0-2.1,0-4.3,0-6.4c0-0.2-0.1-0.2-0.2-0.2c-1.3,0-2.5,0-3.8,0c-0.2,0-0.2,0.1-0.2,0.2c0,2.1,0,4.2,0,6.4c0,0.1,0,0.1,0,0.2
					C1316.2,198.3,1317.6,198.3,1319,198.3z"/>
			</g>
		</g>
	</g>
	<g class="st2">
		<g>
			<path class="st3" d="M1222.9,792.7c0.7-0.5,1.3-1.1,1.9-1.7c5.2-4.6,10.5-9.2,15.7-13.8c6.4-5.6,12.8-11.2,19.1-16.9
				c1-0.9,2-1.7,3-2.6c1,0.9,2,1.8,3,2.7c5.4,4.9,10.9,9.9,16.3,14.8c4.4,4,8.8,8,13.2,11.9c1.9,1.7,3.8,3.4,5.7,5.2
				c0.1,0.1,0.2,0.1,0.3,0.2v0.1c-1.3,1.8-3.1,2.4-5.3,1.7c-1.8-0.6-3.2-1.7-4.5-2.9c-5.2-4.7-10.3-9.3-15.5-13.9
				c-4.2-3.8-8.4-7.6-12.7-11.3c-0.1-0.1-0.3-0.2-0.4-0.4c-1.1,0.9-2.1,1.8-3.2,2.7c-5.7,4.8-11.5,9.7-17.2,14.6
				c-3.8,3.2-7.6,6.4-11.4,9.7c-1,0.8-2,1.6-3.3,1.9c-1.8,0.5-3.4-0.1-4.4-1.5C1223,793,1222.9,792.9,1222.9,792.7
				C1222.9,792.8,1222.9,792.7,1222.9,792.7z"/>
			<path class="st3" d="M1262.3,770.8c1.4,1.2,2.8,2.4,4.1,3.7c5,4.5,10,8.9,15,13.4c2.6,2.3,5.2,4.6,7.8,6.9
				c0.1,0.1,0.3,0.4,0.3,0.5c0,9.8,0,19.6,0,29.3c0,1.2-0.6,2.3-2.2,2.2c-6.2,0-12.4,0-18.7,0c-0.1,0-0.3,0-0.5,0c0-0.2,0-0.4,0-0.5
				c0-5.1,0-10.2,0-15.4c0-1.7-0.9-2.8-2.8-2.8c-2.8,0-5.6,0-8.3,0c-1.4,0-2.3,1-2.3,2.5c0,5.4,0,10.7,0,16.1c0,0.1,0,0.1,0,0.2
				c-0.2,0-0.4,0-0.6,0c-6.3,0-12.7,0-19,0c-1.1,0-1.7-0.5-1.8-1.7c0-0.1,0-0.3,0-0.4c0-9.8,0-19.6,0-29.4c0-0.4,0.1-0.6,0.4-0.8
				c5.3-4.4,10.6-8.9,15.9-13.3c3.7-3.1,7.3-6.2,11-9.3C1261.3,771.7,1261.8,771.3,1262.3,770.8z"/>
			<path class="st3" d="M1284.1,765.7c2.6,0,5.1,0,7.7,0c0,5.3,0,10.5,0,15.8c-0.1-0.1-0.2-0.1-0.3-0.2c-2.3-2-4.7-4-7-5.9
				c-0.3-0.2-0.4-0.5-0.4-0.8c0-2.8,0-5.5,0-8.3C1284.1,766.1,1284.1,765.9,1284.1,765.7z"/>
		</g>
		<text transform="matrix(1 0 0 1 1215.1394 876.9709)" class="st3" style="font-family:'ArialMT'; font-size:36.9126px;">Home</text>
	</g>
	<g class="st2">
		<g>
			<g>
				<path class="st3" d="M1373,785.4c6.4,7.6,16.4,7.9,22.6-0.2c5.6,7.3,15.3,7.4,21.2,0c1.6,2,3.6,3.4,5.9,4.4
					c2.4,1,4.8,1.2,7.4,0.3c0,0.6,0,1,0,1.4c0,9.8,0,19.5,0,29.3c0,4.4-2.3,6.7-6.7,6.7c-18.8,0-37.7,0-56.5,0
					c-3.6,0-6.2-2.5-6.2-6.1c-0.1-10.2-0.1-20.4-0.1-30.6c0-0.1,0-0.2,0.1-0.5C1365.8,791.2,1369.9,789.6,1373,785.4z M1372.9,824.8
					c6.5,0,12.9,0,19.3,0c0-10,0-19.8,0-29.7c-6.4,0-12.8,0-19.3,0C1372.9,805,1372.9,814.9,1372.9,824.8z M1410.1,811.6
					c2.1,0,4.2,0,6.3,0c1.6,0,2.1-0.6,2.1-2.2c0-4.1,0-8.2,0-12.3c0-1.6-0.6-2.2-2.1-2.2c-4.1,0-8.3,0-12.4,0c-1.4,0-2,0.6-2,2
					c0,4.2,0,8.4,0,12.7c0,1.4,0.6,1.9,1.9,2C1405.9,811.6,1408,811.6,1410.1,811.6z"/>
				<path class="st3" d="M1376.2,776.8c0.4-2,0.7-4,1.1-6c1-5.4,2-10.8,3-16.2c0.1-0.7,0.3-0.9,1-0.9c4.1,0,8.1,0,12.2,0
					c0.2,0,0.3,0,0.5,0.1c0,7.7,0,15.3,0,23C1388.1,776.8,1382.2,776.8,1376.2,776.8z"/>
				<path class="st3" d="M1377.5,753.7c-0.6,3.3-1.2,6.5-1.8,9.6c-0.8,4.1-1.5,8.2-2.3,12.3c-0.1,0.6-0.2,1.2-1.1,1.2
					c-5.3,0-10.5,0-15.8,0c-0.2,0-0.4,0-0.7-0.1c0.2-0.5,0.3-0.9,0.4-1.3c2.3-6.3,4.6-12.5,6.9-18.8c0.8-2.2,1.9-3,4.3-3
					C1370.8,753.7,1374.1,753.7,1377.5,753.7z"/>
				<path class="st3" d="M1414.1,776.8c-5.6,0-11.3,0-17,0c0-7.6,0-15.3,0-23.1c0.9,0,1.9,0,2.8,0c3,0,6,0,9,0
					c0.8,0,1.1,0.2,1.3,1.1c1.3,7.2,2.6,14.4,3.9,21.6C1414.1,776.4,1414.1,776.5,1414.1,776.8z"/>
				<path class="st3" d="M1434.5,776.8c-0.8,0-1.5,0-2.3,0c-4.7,0-9.3,0-14,0c-0.9,0-1.2-0.2-1.4-1.1c-1.3-7.2-2.6-14.3-3.9-21.5
					c0-0.2,0-0.3,0-0.5c3.1,0,6.2-0.1,9.2,0c1.2,0,2.1,0.8,2.6,1.9c3.2,6.9,6.4,13.9,9.7,20.8
					C1434.5,776.5,1434.5,776.5,1434.5,776.8z"/>
				<path class="st3" d="M1375.6,779.7c6.2,0,12.3,0,18.4,0c0.3,2,0.1,3.8-1.5,5.4c-4.8,4.7-12.5,4.5-16.9-0.5
					c-0.3-0.4-0.5-1-0.5-1.5C1375.2,781.9,1375.4,780.8,1375.6,779.7z"/>
				<path class="st3" d="M1396.8,779.6c6.2,0,12,0,17.7,0c1.2,2.5,0.9,4-1.1,5.7c-4.8,4-11.9,3.4-15.7-1.6
					C1397,782.8,1397.1,781.2,1396.8,779.6z"/>
				<path class="st3" d="M1417.8,779.7c5.9,0,11.9,0,17.8,0c0.6,3.2-4,7.9-8.1,8.2C1422.2,788.3,1417.8,784.6,1417.8,779.7z"/>
				<path class="st3" d="M1354.8,779.6c6,0,12.1,0,18.1,0c0.2,4-4.3,8-8.9,8.2C1359.3,787.9,1354.9,784,1354.8,779.6z"/>
			</g>
			<circle class="st9" cx="1435.2" cy="761.6" r="27.1"/>
			<text transform="matrix(1 0 0 1 1425.3191 774.3908)" class="st11" style="font-family:'ArialMT'; font-size:39.34px;">0</text>
		</g>
		<text transform="matrix(1 0 0 1 1330.6843 880.6076)" class="st3" style="font-family:'ArialMT'; font-size:39.34px;">Shporta</text>
	</g>
	<g class="st2">
		<g>
			<path class="st3" d="M1576.6,747.3c0.3,0.1,0.7,0.2,1,0.3c2.2,0.7,3.7,2.7,3.7,5c0,2.6,0,5.2,0,7.9c0,0.1,0,0.3,0,0.5
				c0.2,0,0.3,0,0.4,0c2.3,0,4.6,0,6.9,0c1.2,0,1.8,0.7,1.8,1.8c0,1.5,0,3,0,4.6c-10.3,0-20.6,0-31,0c0-0.1,0-0.2,0-0.4
				c0-1.4,0-2.8,0-4.2c0-1.1,0.7-1.8,1.8-1.8c2.5,0,4.9,0,7.4,0c0.1,0,0.3,0,0.5,0c0-0.2,0-0.3,0-0.4c0-2.6,0-5.1,0-7.7
				c0-2.8,1.8-4.9,4.6-5.4c0.1,0,0.1,0,0.1-0.1C1574.7,747.3,1575.7,747.3,1576.6,747.3z M1577.5,756c0-1.2-1-2.2-2.2-2.2
				s-2.2,1-2.2,2.2s1,2.2,2.2,2.2C1576.6,758.3,1577.6,757.3,1577.5,756z"/>
			<path class="st3" d="M1581.6,822.8c-0.9-0.9-1.8-1.8-2.7-2.7c-1.6-1.6-3.1-3.2-4.7-4.8c-2.4-2.4-5.2-4.2-8.2-5.8
				c-0.9-0.5-1.8-0.9-2.7-1.4c3.8-2.4,7.5-4.8,11.3-7.3c2.1,3.7,4.1,7.3,6.2,11c0.5-1.1,1-2.1,1.6-3.1c2.8-5.5,5.9-10.7,9.8-15.5
				c2.4-3,4.9-5.8,8.1-8c1.3-0.9,2.6-1.7,4.1-2.3c0.1,0,0.1,0,0.3-0.1c0,0.7-0.1,1.3-0.1,1.9c-0.2,2.7-0.3,5.4-0.1,8.1
				c0.1,1,0.2,1.9,0.4,2.8c0.1,0.6,0.5,1.2,0.7,1.8c-0.2,0.1-0.5,0.3-0.8,0.4c-2.3,1.3-4.3,2.9-6.2,4.7c-6.6,5.8-12.1,12.5-16.6,20
				C1581.8,822.6,1581.7,822.7,1581.6,822.8z"/>
			<path class="st3" d="M1567.2,754.2c0,1.3,0,2.5,0,3.8c-0.2,0-0.3,0-0.5,0c-3,0-5.9,0-8.9,0c-0.9,0-1.8,0.2-2.5,0.8
				c-0.6,0.5-1,1.2-1,2.1c0,0.1,0,0.2,0,0.3c0,16.8,0,33.5,0,50.3c0,1.9,1.3,3.3,3.2,3.3c3,0,6,0,9.1,0c0.2,0,0.5,0.1,0.6,0.2
				c1.6,1,3.1,2.1,4.5,3.3c0.1,0.1,0.2,0.2,0.3,0.3c-0.2,0-0.2,0-0.3,0c-5.6,0-11.3,0-16.9,0c-1.3,0-2.4-0.4-3.3-1.4
				c-0.5-0.5-0.7-1.1-0.7-1.8c0-0.2,0-0.3,0-0.5c0-19,0-38,0-57.1c0-2.1,1.4-3.7,3.6-3.7c2.3,0,4.6,0,6.9,0c1.8,0,3.6,0,5.4,0
				C1566.8,754.2,1567,754.2,1567.2,754.2z"/>
			<path class="st3" d="M1595.7,784.2c0-0.2,0-0.3,0-0.5c0-7.4-0.1-14.8,0-22.3c0-2.4-1.8-3.4-3.4-3.4c-2.8,0-5.5,0-8.3,0
				c-0.2,0-0.3,0-0.5,0c0-1.3,0-2.5,0-3.8c0.2,0,0.3,0,0.4,0c3.7,0,7.4,0,11.1,0c1.1,0,2.1,0.2,2.9,0.9c0.8,0.6,1.2,1.5,1.2,2.5
				c0,7.8,0,15.6,0,23.3c0,0.2,0,0.3-0.2,0.4C1597.9,782.3,1596.8,783.3,1595.7,784.2z"/>
			<path class="st3" d="M1588.9,818.7c0.3-0.4,0.6-0.8,0.9-1.1c0.6-0.8,1.3-1.6,1.9-2.3c0.2-0.3,0.4-0.3,0.7-0.3
				c0.7,0,1.3-0.1,1.8-0.5c1-0.6,1.6-1.4,1.5-2.6c-0.1-0.8,0.2-1.3,0.8-1.8c0.8-0.7,1.7-1.5,2.5-2.2c0.1,0,0.1-0.1,0.2-0.2
				c0,0.2,0,0.3,0,0.5c0,2.3-0.1,4.7,0,7s-1.8,3.5-3.3,3.6c-1.3,0.1-2.6,0-4,0.1C1590.9,818.7,1590,818.7,1588.9,818.7z"/>
			<path class="st3" d="M1590,786.5c0,0.5,0,1,0,1.4c-9.9,0-19.7,0-29.6,0c0-0.5,0-0.9,0-1.4C1570.3,786.5,1580.1,786.5,1590,786.5z
				"/>
			<path class="st3" d="M1560.4,783.6c0-0.5,0-0.9,0-1.4c9.8,0,19.7,0,29.6,0c0,0.5,0,0.9,0,1.4
				C1580.1,783.6,1570.3,783.6,1560.4,783.6z"/>
			<path class="st3" d="M1560.4,792.3c0-0.5,0-0.9,0-1.4c9.8,0,19.7,0,29.6,0c0,0.5,0,0.9,0,1.4
				C1580.1,792.3,1570.3,792.3,1560.4,792.3z"/>
			<path class="st3" d="M1570.9,774.5c0,0.5,0,0.9,0,1.4c-3.5,0-7,0-10.5,0c0-0.5,0-0.9,0-1.4
				C1563.9,774.5,1567.4,774.5,1570.9,774.5z"/>
			<path class="st3" d="M1570.9,777.9c0,0.5,0,0.9,0,1.4c-3.5,0-7,0-10.5,0c0-0.5,0-0.9,0-1.4
				C1563.9,777.9,1567.4,777.9,1570.9,777.9z"/>
		</g>
		<text transform="matrix(1 0 0 1 1510.095 877.3771)" class="st3" style="font-family:'ArialMT'; font-size:40.2919px;">Porosite</text>
	</g>
	<g class="st2">
		<g>
			<path class="st3" d="M1705.4,777.2c-0.1-21.5,17.6-39.4,39-39.5c22.6-0.1,39.7,18,39.8,39.1c0.2,22.3-17.8,39.7-39.1,39.8
				C1723.2,816.8,1705.5,799.2,1705.4,777.2z M1723,803.2c4.9-8.4,12-13.2,21.8-13.2s17,4.8,21.9,13.2c9.2-7.4,14.7-21.1,10.9-34.9
				c-4-14.5-17-24.7-32.1-25c-14.9-0.4-28.3,9.2-33,23.5C1707.9,781.2,1713.5,795.4,1723,803.2z M1727.6,806.5
				c10.3,6.3,24.2,6.3,34.5,0c-2-4.7-7.7-10.7-16.5-11C1737,795.1,1730.3,800.5,1727.6,806.5z"/>
			<path class="st3" d="M1760,773.2c0,8.4-6.8,15.1-15.3,15.1c-8.3,0-15-6.9-15-15.2c0-8.4,6.8-15.1,15.3-15.1
				C1753.3,758,1760,764.9,1760,773.2z M1754.5,773.1c0-5.4-4.3-9.7-9.8-9.7c-5.3,0-9.6,4.4-9.6,9.7c0,5.4,4.3,9.7,9.7,9.7
				C1750.2,782.8,1754.5,778.4,1754.5,773.1z"/>
		</g>
		<text transform="matrix(1 0 0 1 1694.8582 873.7033)" class="st3" style="font-family:'ArialMT'; font-size:42.1053px;">Profili</text>
	</g>
	<g class="st2">
		<g>
			<path class="st9" d="M2110.8,476.3c0.7-0.6,1.4-1.2,2.1-1.8c5.7-5,11.5-10.1,17.2-15.1c7-6.1,14-12.3,20.9-18.5
				c1.1-0.9,2.1-1.9,3.2-2.8c1.1,1,2.2,2,3.2,2.9c6,5.4,11.9,10.8,17.9,16.2c4.8,4.4,9.6,8.7,14.4,13.1c2.1,1.9,4.2,3.8,6.2,5.6
				c0.1,0.1,0.2,0.1,0.3,0.2v0.1c-1.4,2-3.4,2.6-5.8,1.8c-1.9-0.6-3.5-1.8-5-3.2c-5.6-5.1-11.3-10.2-17-15.3
				c-4.6-4.1-9.2-8.3-13.9-12.4c-0.1-0.1-0.3-0.3-0.4-0.4c-1.2,1-2.3,2-3.4,2.9c-6.3,5.3-12.6,10.6-18.9,16
				c-4.2,3.5-8.3,7.1-12.5,10.6c-1.1,0.9-2.2,1.7-3.6,2.1c-1.9,0.5-3.7-0.1-4.9-1.7C2110.9,476.5,2110.8,476.5,2110.8,476.3
				C2110.8,476.4,2110.8,476.3,2110.8,476.3z"/>
			<path class="st9" d="M2154,452.3c1.5,1.3,3,2.7,4.5,4c5.5,4.9,11,9.8,16.5,14.6c2.8,2.5,5.7,5,8.5,7.6c0.1,0.1,0.3,0.4,0.3,0.6
				c0,10.7,0,21.4,0,32.1c0,1.3-0.7,2.5-2.4,2.4c-6.8,0-13.6,0-20.4,0c-0.1,0-0.3,0-0.5,0c0-0.2,0-0.4,0-0.6c0-5.6,0-11.2,0-16.8
				c0-1.8-1-3.1-3-3.1c-3,0-6.1,0-9.1,0c-1.6,0-2.5,1.1-2.5,2.7c0,5.9,0,11.8,0,17.6c0,0.1,0,0.1,0,0.3c-0.2,0-0.4,0-0.6,0
				c-6.9,0-13.9,0-20.8,0c-1.2,0-1.9-0.6-2-1.8c0-0.1,0-0.3,0-0.4c0-10.8,0-21.5,0-32.2c0-0.4,0.1-0.7,0.4-0.9
				c5.8-4.9,11.6-9.7,17.4-14.6c4-3.4,8.1-6.8,12.1-10.1C2152.9,453.3,2153.4,452.8,2154,452.3z"/>
			<path class="st9" d="M2177.8,446.7c2.8,0,5.6,0,8.4,0c0,5.8,0,11.5,0,17.3c-0.1-0.1-0.2-0.1-0.3-0.2c-2.6-2.2-5.1-4.4-7.7-6.5
				c-0.3-0.3-0.4-0.5-0.4-0.9c0-3,0-6,0-9.1C2177.8,447.1,2177.8,447,2177.8,446.7z"/>
		</g>
		<text transform="matrix(1 0 0 1 2103.655 568.5881)" class="st9" style="font-family:'ArialMT'; font-size:40.4349px;">Home</text>
	</g>
	<g class="st2">
		<g>
			<g>
				<path class="st9" d="M1990.4,477.2c5.9,7,15.1,7.3,20.8-0.2c5.2,6.7,14.1,6.8,19.4,0c1.5,1.8,3.3,3.1,5.4,4
					c2.2,0.9,4.4,1.1,6.8,0.2c0,0.5,0,0.9,0,1.3c0,9,0,17.9,0,26.9c0,4-2.2,6.2-6.2,6.2c-17.3,0-34.6,0-52,0c-3.3,0-5.7-2.3-5.7-5.6
					c-0.1-9.4-0.1-18.7-0.1-28.1c0-0.1,0-0.2,0.1-0.4C1983.8,482.6,1987.6,481.1,1990.4,477.2z M1990.4,513.5c6,0,11.8,0,17.7,0
					c0-9.1,0-18.2,0-27.3c-5.9,0-11.8,0-17.7,0C1990.4,495.3,1990.4,504.3,1990.4,513.5z M2024.5,501.4c1.9,0,3.8,0,5.8,0
					c1.4,0,1.9-0.5,1.9-2c0-3.8,0-7.5,0-11.3c0-1.4-0.5-2-2-2c-3.8,0-7.6,0-11.4,0c-1.3,0-1.9,0.5-1.9,1.8c0,3.9,0,7.8,0,11.6
					c0,1.3,0.5,1.8,1.8,1.8C2020.7,501.4,2022.6,501.4,2024.5,501.4z"/>
				<path class="st9" d="M1993.3,469.3c0.3-1.9,0.7-3.7,1-5.5c0.9-5,1.9-9.9,2.8-14.8c0.1-0.6,0.3-0.9,1-0.9c3.7,0,7.5,0,11.2,0
					c0.1,0,0.3,0,0.5,0.1c0,7,0,14,0,21.1C2004.3,469.3,1998.9,469.3,1993.3,469.3z"/>
				<path class="st9" d="M1994.6,448.1c-0.6,3-1.1,5.9-1.6,8.9c-0.7,3.8-1.4,7.5-2.1,11.3c-0.1,0.6-0.2,1.1-1,1.1
					c-4.8,0-9.7,0-14.5,0c-0.2,0-0.3,0-0.7-0.1c0.2-0.4,0.3-0.8,0.4-1.1c2.1-5.8,4.3-11.5,6.4-17.2c0.8-2,1.8-2.8,3.9-2.8
					C1988.4,448.1,1991.4,448.1,1994.6,448.1z"/>
				<path class="st9" d="M2028.2,469.3c-5.2,0-10.3,0-15.6,0c0-7,0-14,0-21.2c0.9,0,1.7,0,2.6,0c2.8,0,5.5,0,8.3,0
					c0.8,0,1.1,0.2,1.2,1c1.2,6.6,2.4,13.3,3.6,19.9C2028.2,469,2028.2,469.1,2028.2,469.3z"/>
				<path class="st9" d="M2047,469.4c-0.7,0-1.4,0-2.1,0c-4.3,0-8.6,0-12.8,0c-0.8,0-1.1-0.2-1.3-1c-1.2-6.6-2.4-13.2-3.6-19.8
					c0-0.1,0-0.3,0-0.5c2.8,0,5.7-0.1,8.5,0c1.1,0,1.9,0.8,2.3,1.7c3,6.4,5.9,12.7,8.9,19.1C2047,469,2047,469.1,2047,469.4z"/>
				<path class="st9" d="M1992.8,472c5.7,0,11.3,0,16.9,0c0.3,1.9,0.1,3.5-1.4,4.9c-4.4,4.3-11.5,4.1-15.5-0.5
					c-0.3-0.3-0.5-0.9-0.4-1.4C1992.4,474,1992.7,473,1992.8,472z"/>
				<path class="st9" d="M2012.3,472c5.7,0,11,0,16.3,0c1.1,2.3,0.8,3.7-1,5.2c-4.4,3.7-10.9,3.1-14.4-1.4
					C2012.5,474.9,2012.6,473.3,2012.3,472z"/>
				<path class="st9" d="M2031.6,472c5.5,0,10.9,0,16.4,0c0.5,3-3.7,7.2-7.4,7.6C2035.7,480,2031.6,476.5,2031.6,472z"/>
				<path class="st9" d="M1973.7,471.9c5.6,0,11.1,0,16.6,0c0.2,3.7-3.9,7.4-8.2,7.5S1973.8,476,1973.7,471.9z"/>
			</g>
			
				<ellipse transform="matrix(0.1602 -0.9871 0.9871 0.1602 1270.1476 2403.5444)" class="st3" cx="2047.6" cy="455.3" rx="24.9" ry="24.9"/>
			<text transform="matrix(1 0 0 1 2038.5222 467.1281)" class="st11" style="font-family:'ArialMT'; font-size:36.1605px;">0</text>
		</g>
		<text transform="matrix(1 0 0 1 1953.7351 564.7599)" class="st9" style="font-family:'ArialMT'; font-size:36.1605px;">Shporta</text>
	</g>
	<g class="st2">
		<g>
			<path class="st9" d="M1907.9,856.4c0.3,0.1,0.7,0.2,1,0.3c2.1,0.7,3.4,2.6,3.4,4.8c0,2.5,0,4.9,0,7.4c0,0.1,0,0.3,0,0.4
				c0.2,0,0.3,0,0.4,0c2.2,0,4.3,0,6.5,0c1.1,0,1.7,0.6,1.7,1.7c0,1.4,0,2.8,0,4.3c-9.7,0-19.4,0-29.2,0c0-0.1,0-0.2,0-0.3
				c0-1.3,0-2.7,0-4c0-1,0.6-1.7,1.7-1.7c2.3,0,4.6,0,7,0c0.1,0,0.3,0,0.4,0c0-0.2,0-0.3,0-0.4c0-2.4,0-4.8,0-7.3
				c0-2.7,1.7-4.7,4.3-5.1c0.1,0,0.1,0,0.1-0.1C1906.2,856.4,1907,856.4,1907.9,856.4z M1908.8,864.6c0-1.2-0.9-2.1-2.1-2.1
				s-2.1,0.9-2.1,2.1c0,1.2,0.9,2.1,2.1,2.1C1907.9,866.7,1908.8,865.8,1908.8,864.6z"/>
			<path class="st9" d="M1912.6,927.5c-0.9-0.9-1.7-1.7-2.6-2.6c-1.5-1.5-2.9-3-4.4-4.5c-2.3-2.2-4.9-3.9-7.7-5.4
				c-0.8-0.4-1.7-0.9-2.5-1.3c3.6-2.3,7.1-4.5,10.7-6.8c1.9,3.5,3.8,6.9,5.8,10.4c0.5-1,1-2,1.5-2.9c2.6-5.1,5.6-10,9.2-14.6
				c2.2-2.8,4.7-5.4,7.6-7.5c1.2-0.9,2.5-1.6,3.9-2.2c0.1,0,0.1,0,0.3-0.1c0,0.6-0.1,1.2-0.1,1.8c-0.2,2.5-0.3,5.1-0.1,7.6
				c0.1,0.9,0.2,1.8,0.4,2.7c0.1,0.6,0.4,1.1,0.7,1.7c-0.2,0.1-0.5,0.2-0.8,0.4c-2.1,1.2-4,2.8-5.8,4.4
				c-6.2,5.5-11.4,11.8-15.7,18.8C1912.8,927.3,1912.7,927.4,1912.6,927.5z"/>
			<path class="st9" d="M1899,862.9c0,1.2,0,2.4,0,3.6c-0.2,0-0.3,0-0.4,0c-2.8,0-5.6,0-8.4,0c-0.9,0-1.7,0.2-2.3,0.8
				c-0.6,0.5-0.9,1.2-0.9,2c0,0.1,0,0.2,0,0.3c0,15.8,0,31.6,0,47.4c0,1.8,1.2,3.1,3,3.1c2.8,0,5.7,0,8.5,0c0.2,0,0.4,0.1,0.6,0.2
				c1.5,0.9,2.9,1.9,4.3,3.1c0.1,0.1,0.2,0.1,0.3,0.3c-0.2,0-0.2,0-0.3,0c-5.3,0-10.6,0-15.9,0c-1.2,0-2.3-0.4-3.1-1.3
				c-0.4-0.5-0.7-1.1-0.7-1.7c0-0.2,0-0.3,0-0.5c0-17.9,0-35.8,0-53.7c0-2,1.3-3.4,3.4-3.5c2.2,0,4.3,0,6.5,0c1.7,0,3.4,0,5.1,0
				C1898.7,862.9,1898.9,862.9,1899,862.9z"/>
			<path class="st9" d="M1925.9,891.2c0-0.2,0-0.3,0-0.5c0-7-0.1-14,0-21c0-2.2-1.7-3.2-3.2-3.2c-2.6,0-5.2,0-7.8,0
				c-0.1,0-0.3,0-0.4,0c0-1.2,0-2.4,0-3.6c0.1,0,0.3,0,0.4,0c3.5,0,6.9,0,10.4,0c1,0,1.9,0.2,2.8,0.8c0.8,0.6,1.2,1.4,1.2,2.4
				c0,7.3,0,14.7,0,22c0,0.1,0,0.3-0.1,0.4C1928,889.4,1927,890.3,1925.9,891.2z"/>
			<path class="st9" d="M1919.5,923.6c0.3-0.4,0.6-0.8,0.8-1.1c0.6-0.7,1.2-1.5,1.8-2.2c0.2-0.2,0.4-0.3,0.7-0.3
				c0.6,0,1.2-0.1,1.7-0.4c0.9-0.5,1.5-1.3,1.4-2.4c-0.1-0.7,0.2-1.3,0.7-1.8c0.8-0.7,1.6-1.4,2.3-2.1c0.1,0,0.1-0.1,0.2-0.2
				c0,0.2,0,0.3,0,0.4c0,2.2-0.1,4.4,0,6.6c0.1,2.2-1.7,3.3-3.2,3.4c-1.2,0.1-2.5,0-3.7,0.1C1921.4,923.6,1920.5,923.6,1919.5,923.6
				z"/>
			<path class="st9" d="M1920.5,893.3c0,0.5,0,0.9,0,1.3c-9.3,0-18.6,0-27.8,0c0-0.5,0-0.9,0-1.3
				C1902,893.3,1911.2,893.3,1920.5,893.3z"/>
			<path class="st9" d="M1892.7,890.6c0-0.5,0-0.9,0-1.3c9.3,0,18.5,0,27.8,0c0,0.4,0,0.9,0,1.3
				C1911.2,890.6,1902,890.6,1892.7,890.6z"/>
			<path class="st9" d="M1892.7,898.8c0-0.5,0-0.9,0-1.3c9.3,0,18.5,0,27.8,0c0,0.4,0,0.9,0,1.3
				C1911.2,898.8,1902,898.8,1892.7,898.8z"/>
			<path class="st9" d="M1902.6,882c0,0.5,0,0.9,0,1.3c-3.3,0-6.6,0-9.9,0c0-0.4,0-0.9,0-1.3C1896,882,1899.3,882,1902.6,882z"/>
			<path class="st9" d="M1902.6,885.2c0,0.5,0,0.9,0,1.3c-3.3,0-6.6,0-9.9,0c0-0.4,0-0.9,0-1.3
				C1896,885.2,1899.3,885.2,1902.6,885.2z"/>
		</g>
		<text transform="matrix(1 0 0 1 1849.0701 978.8596)" class="st9" style="font-family:'ArialMT'; font-size:37.9305px;">Porosite</text>
	</g>
	<g class="st2">
		<g>
			<path class="st9" d="M2022.9,770.8c-0.1-21.6,17.7-39.5,39.2-39.6c22.7-0.1,39.8,18.1,40,39.3c0.2,22.4-17.8,39.9-39.3,40
				C2040.8,810.5,2023,792.9,2022.9,770.8z M2040.6,796.9c4.9-8.4,12.1-13.2,21.9-13.2c9.9,0,17,4.8,21.9,13.2
				c9.3-7.4,14.8-21.2,11-35c-4-14.6-17-24.8-32.2-25.1c-14.9-0.4-28.5,9.3-33.1,23.6C2025.4,774.7,2031,789,2040.6,796.9z
				 M2045.2,800.2c10.4,6.3,24.3,6.4,34.6,0c-2-4.7-7.7-10.7-16.5-11.1C2054.6,788.7,2047.9,794.1,2045.2,800.2z"/>
			<path class="st9" d="M2077.8,766.7c0,8.4-6.9,15.2-15.3,15.2c-8.3,0-15.1-6.9-15.1-15.2c0-8.4,6.9-15.2,15.3-15.2
				C2071,751.5,2077.8,758.3,2077.8,766.7z M2072.3,766.7c0-5.4-4.4-9.7-9.8-9.7c-5.3,0-9.6,4.4-9.6,9.7c0,5.4,4.4,9.7,9.8,9.7
				C2067.9,776.4,2072.3,772,2072.3,766.7z"/>
		</g>
		<text transform="matrix(1 0 0 1 2011.8064 867.6232)" class="st9" style="font-family:'ArialMT'; font-size:42.2713px;">Profili</text>
	</g>
	<text transform="matrix(1 0 0 1 1601.7996 27.8)" class="st2" style="font-family:'ArialMT'; font-size:45px;">#0a3637</text>
	<text transform="matrix(1 0 0 1 1601.7996 85.8)" class="st2" style="font-family:'ArialMT'; font-size:45px;">#8ab83e</text>
	<text transform="matrix(1 0 0 1 1601.7996 154.8)" class="st2" style="font-family:'ArialMT'; font-size:45px;">#f49b03</text>
	<text transform="matrix(1 0 0 1 1601.7996 229.8)" class="st2" style="font-family:'ArialMT'; font-size:45px;">#db0000</text>
	<text transform="matrix(1 0 0 1 1601.7996 296.8)" class="st2" style="font-family:'ArialMT'; font-size:45px;">#14abc4</text>
</g>
<g>
	<g>
		<path class="st13" d="M552.1,168.4c12.8,4.5,26.6,7.4,38.4,13.9c26.8,14.8,42.9,38.3,48.5,68.5c1,5.1,2.9,6.6,8,6.5
			c35.2-0.2,70.5-0.3,105.7-0.1c42.5,0.2,75.5,25.7,85.4,65.5c10,40.6-8.4,81.1-45.8,99.5c-4.9,2.4-5.5,5.5-5.5,10.2
			c0.1,130.1,0.2,260.2,0,390.3c0,36.5-16.5,63.6-49.5,79.2c-10.6,5-23.2,7.7-34.9,7.8c-107.9,0.6-215.8,0.6-323.7,0.2
			c-48.2-0.2-84.4-37.9-84.4-87.2c-0.1-129.6-0.1-259.3,0.1-388.9c0-6.2-1.4-9.6-7.5-12.6c-34.2-16.5-52.1-55.5-44.6-95.8
			c6.7-35.9,37.7-65.1,74.6-67.3c29.4-1.8,58.9-0.8,88.3-1c10.1-0.1,20.3-0.2,30.4,0.1c3.9,0.1,5.5-1.2,6.3-5
			c9.4-45.7,39.5-74.9,84.5-82.6c0.9-0.1,1.7-0.8,2.6-1.1C536.7,168.4,544.4,168.4,552.1,168.4z M746.5,431.5
			c-137.9,0-274.7,0-412,0c0,3.4,0,6.2,0,9.1c0,40.5,0,81.1,0,121.6c0,86.4,0,172.8,0,259.2c0,29.2,17.8,48.2,46,48.3
			c106.7,0.2,213.4,0.2,320-0.1c7,0,14.6-1.5,20.9-4.5c18.3-8.8,25.2-24.4,25.2-44.3c-0.2-127.2-0.1-254.4-0.1-381.6
			C746.5,436.7,746.5,434.4,746.5,431.5z M541.2,297.4c-71,0-141.9,0-212.9,0c-42.6,0-57.4,42.8-41,71.4c9.5,16.5,25,22.2,43.4,22.2
			c140-0.1,280,0,420,0c1.2,0,2.4,0,3.6,0c34.4-1.6,54.6-31.8,43-64.3c-6.6-18.5-23.1-29.3-45.4-29.3
			C681.6,297.4,611.4,297.4,541.2,297.4z M598.8,256.8c-4.7-29.4-32.5-49.9-63.8-47.8c-30.6,2.1-52.1,29.6-52.2,47.8
			C521.3,256.8,559.9,256.8,598.8,256.8z"/>
		<path class="st14" d="M560.7,685.6c0,36.9,0.1,73.8,0,110.7c-0.1,15.7-12.5,25.5-26.3,21.1c-7.9-2.6-12.2-8.3-13.7-16.2
			c-0.3-1.6-0.3-3.4-0.3-5c0-73.8,0-147.6,0-221.5c0-12.5,7.3-21.3,18.1-22.3c12.6-1.2,22.1,8,22.2,21.8c0.1,24.1,0,48.3,0,72.4
			C560.7,659.5,560.7,672.5,560.7,685.6z"/>
		<path class="st14" d="M412.8,684.8c0-37.1-0.1-74.3,0.1-111.4c0-13.4,9.6-22.3,22-21.1c8.6,0.8,15.9,7.4,17.4,15.9
			c0.5,2.8,0.6,5.8,0.6,8.6c0,72.4,0,144.7,0,217.1c0,4-0.4,8.3-1.7,12c-3,8.4-12.3,13.6-20.8,12.3c-9.7-1.5-16.7-8.8-17.4-18.5
			c-0.2-2.6-0.1-5.3-0.1-8C412.8,756.2,412.8,720.5,412.8,684.8z"/>
		<path class="st14" d="M668.2,685.8c0,37.1,0.1,74.3,0,111.4c-0.1,15.1-12.8,24.7-26.2,20.1c-7.4-2.5-12.1-7.8-13.3-15.7
			c-0.5-3.3-0.5-6.7-0.5-10.1c0-70.9,0-141.8,0-212.7c0-2.7,0-5.3,0.3-8c1.2-11.5,9.7-19.1,20.8-18.6c10.6,0.5,18.8,8.7,18.8,19.9
			C668.3,610,668.2,647.9,668.2,685.8L668.2,685.8z"/>
	</g>
</g>
</svg>
