<?xml version="1.0" encoding="utf-8"?>
<!-- Generator: Adobe Illustrator 23.0.1, SVG Export Plug-In . SVG Version: 6.00 Build 0)  -->
<svg version="1.1" xmlns="http://www.w3.org/2000/svg" xmlns:xlink="http://www.w3.org/1999/xlink" x="0px" y="0px"
	 viewBox="0 0 1080 1080" style="enable-background:new 0 0 1080 1080;" xml:space="preserve">
<style type="text/css">
	.st0{display:none;}
	.st1{display:inline;fill:#0A3637;}
	.st2{display:inline;}
	.st3{fill:#8AB83E;}
	.st4{display:inline;fill:#8AB83E;}
	.st5{display:inline;fill:#F49B03;}
	.st6{display:inline;fill:#DB0000;}
	.st7{display:inline;fill:#14ABC4;}
	.st8{fill:#F49B03;}
	.st9{fill:#FFFFFF;}
	.st10{fill:#DB0000;}
	.st11{fill:#0A3637;}
	.st12{fill:#14ABC4;}
</style>
<g id="Layer_1" class="st0">
	<rect x="1187.2" y="381.8" class="st1" width="1079" height="646"/>
	<g class="st2">
		<path class="st3" d="M1783.2,591.6c-0.05,8.38-2.35,15.26-6.58,21.39c-4.72,6.82-9.76,13.43-14.67,20.12
			c-3.89,5.3-7.79,10.59-11.69,15.88c-1.82,2.47-3.98,2.46-5.8-0.01c-8.29-11.26-16.58-22.5-24.86-33.77
			c-3.99-5.43-6.79-11.39-7.72-18.12c-1.07-7.72,0.3-15.04,4.11-21.81c4.89-8.7,12.16-14.59,21.81-17.27
			c9.71-2.7,19.04-1.52,27.71,3.68c9.59,5.76,15.37,14.24,17.24,25.3C1783.05,588.78,1783.11,590.62,1783.2,591.6z M1747.34,643.02
			c0.26-0.32,0.47-0.57,0.66-0.84c3.21-4.36,6.42-8.71,9.63-13.07c4.62-6.29,9.32-12.52,13.82-18.89
			c3.57-5.06,5.74-10.72,5.85-16.98c0.17-9.34-3.32-17.18-10.34-23.32c-6.53-5.7-14.24-8.15-22.86-7.2
			c-7.89,0.87-14.46,4.44-19.61,10.5c-4.11,4.84-6.45,10.47-6.98,16.82c-0.61,7.33,1.45,13.99,5.61,19.9
			c5.93,8.41,12.13,16.63,18.22,24.93C1743.32,637.56,1745.3,640.25,1747.34,643.02z"/>
		<g>
			<path class="st3" d="M1743.74,606.46v-10.2h-10.2c-1.24,0-2.22-0.33-2.95-0.99c-0.73-0.66-1.1-1.54-1.1-2.63
				c0-1.04,0.38-1.9,1.14-2.59c0.76-0.69,1.73-1.03,2.91-1.03h10.2v-10.16c0-1.24,0.33-2.22,0.99-2.95c0.66-0.73,1.54-1.1,2.63-1.1
				c1.04,0,1.9,0.38,2.59,1.14c0.69,0.76,1.03,1.73,1.03,2.91v10.16h10.2c1.21,0,2.19,0.34,2.93,1.01c0.74,0.67,1.12,1.55,1.12,2.61
				c0,1.07-0.38,1.94-1.14,2.61c-0.76,0.67-1.73,1.01-2.91,1.01h-10.2v10.2c0,1.21-0.34,2.19-1.01,2.93
				c-0.67,0.74-1.55,1.12-2.61,1.12c-1.07,0-1.94-0.38-2.61-1.14S1743.74,607.64,1743.74,606.46z"/>
		</g>
	</g>
	<g class="st2">
		<path class="st3" d="M-1060.65-513.9c11.33,5.24,23.54,9.15,33.81,15.98c22.8,15.18,35,37.33,35.26,64.87
			c0.46,48.04,0.13,96.08,0.13,144.12c0,2.52,0,5.05,0,8.67c-12.96-11.22-24.9-21.61-36.89-31.93c-5.74-4.94-11.87-9.46-17.23-14.77
			c-2.03-2.01-3.37-5.69-3.39-8.63c-0.24-30.5-0.14-61.01-0.15-91.52c-0.01-16.98-12.07-29.14-28.94-29.14
			c-131.63-0.01-263.27-0.01-394.9,0c-16.47,0-28.81,12.21-28.81,28.54c-0.01,188.56-0.01,377.12,0,565.68
			c0,16.33,12.34,28.54,28.81,28.54c131.63,0.01,263.27,0.01,394.9,0c16.87,0,28.93-12.16,28.94-29.14
			c0.01-30.03,0.1-60.05-0.09-90.08c-0.03-5.2,1.32-8.34,5.85-11.69c9.13-6.76,17.22-14.93,25.8-22.44
			c8.33-7.3,16.74-14.51,26.11-22.63c0,3.62,0,6.14,0,8.66c0,48.52,0.15,97.04-0.08,145.56c-0.09,18.35-7.34,34.16-18.61,48.47
			c-13.09,16.61-30.86,25.22-50.51,30.94c-143.2,0-286.4,0-429.6,0c-19.64-5.72-37.42-14.32-50.5-30.94
			c-11.27-14.31-18.61-30.12-18.63-48.46c-0.12-192.62-0.19-385.24,0.06-577.86c0.03-27.53,12.46-49.69,35.26-64.86
			c10.27-6.83,22.48-10.74,33.81-15.98C-1347.05-513.9-1203.85-513.9-1060.65-513.9z"/>
		<path class="st3" d="M-1190.4-58.35c-3.29,0-5.87,0-8.45,0c-51.88,0-103.76,0.1-155.64-0.1c-8.44-0.03-16.96-0.76-23.99-6.76
			c-6.32-5.41-10.86-11.58-10.86-20.26c-0.01-39.63-0.06-79.26,0.03-118.89c0.03-12.65,11.04-24.81,23.75-25.43
			c19.09-0.92,38.21-1.38,57.33-1.49c38.9-0.22,77.8-0.06,117.83-0.06c0-2.77,0-5.29,0-7.81c0-23.06-0.03-46.12,0.01-69.17
			c0.03-16.1,10.48-25.2,26.21-22.29c3.17,0.59,6.21,3.16,8.8,5.41c15.98,13.83,31.73,27.93,47.71,41.76
			c19.9,17.21,39.99,34.21,59.92,51.38c11.69,10.07,23.2,20.35,34.87,30.46c17.21,14.9,34.51,29.7,51.72,44.6
			c4.45,3.85,8.71,7.91,13.32,12.11c-8.56,7.69-16.72,15.22-25.1,22.49c-8.76,7.6-17.79,14.89-26.6,22.43
			c-17.12,14.64-34.22,29.3-51.23,44.06c-12.38,10.74-24.52,21.76-36.92,32.48c-16.31,14.11-32.78,28.04-49.15,42.08
			c-7.2,6.17-14.08,12.76-21.56,18.56c-10.38,8.04-24.53,3.78-29.01-8.7c-1.71-4.76-2.78-10.01-2.85-15.06
			c-0.31-21.37-0.13-42.75-0.13-64.13C-1190.4-53.03-1190.4-55.37-1190.4-58.35z"/>
	</g>
	<rect x="1509.2" y="-18.2" class="st1" width="75" height="58"/>
	<rect x="1509.2" y="47.8" class="st4" width="75" height="58"/>
	<rect x="1509.2" y="113.8" class="st5" width="75" height="58"/>
	<rect x="1509.2" y="190.8" class="st6" width="75" height="58"/>
	<rect x="1509.2" y="258.8" class="st7" width="75" height="58"/>
	<g class="st2">
		<path class="st8" d="M1435.4,112.81H1315c-5.96,0-10.8-4.84-10.8-10.8v-22.4c0-5.96,4.84-10.8,10.8-10.8h120.4
			c5.96,0,10.8,4.84,10.8,10.8v22.4C1446.2,107.97,1441.36,112.81,1435.4,112.81z"/>
		<text transform="matrix(1 0 0 1 1338.2021 97.4879)" class="st9" style="font-family:'MyriadPro-Bold'; font-size:24px;">Pending...</text>
		<g>
			<g>
				<path class="st9" d="M1324.1,87.17c0,1.17-0.01,2.34,0.01,3.52c0.01,0.57-0.18,1.01-0.58,1.41c-1.48,1.46-2.94,2.93-4.4,4.4
					c-0.63,0.63-1.57,0.65-2.17,0.05c-0.61-0.61-0.58-1.54,0.05-2.17c1.29-1.28,2.57-2.57,3.87-3.84c0.17-0.17,0.24-0.34,0.24-0.58
					c-0.01-2.17-0.01-4.34,0-6.51c0.01-1.07,0.95-1.77,1.94-1.47c0.63,0.19,1.04,0.75,1.05,1.46
					C1324.1,84.68,1324.1,85.92,1324.1,87.17z"/>
				<path class="st9" d="M1322.3,75.44c8.27,0,14.99,6.71,15,14.98c0.01,8.3-6.73,15.04-15.04,15.02
					c-8.27-0.02-14.97-6.75-14.96-15.02C1307.31,82.15,1314.03,75.44,1322.3,75.44z M1333.55,90.47c0.02-6.2-4.98-11.23-11.2-11.27
					c-6.21-0.04-11.24,4.94-11.29,11.17c-0.05,6.23,4.99,11.31,11.24,11.31C1328.5,101.69,1333.53,96.68,1333.55,90.47z"/>
			</g>
		</g>
	</g>
	<g class="st2">
		<path class="st10" d="M1435.9,59.83h-120.4c-5.96,0-10.8-4.84-10.8-10.8v-22.4c0-5.96,4.84-10.8,10.8-10.8h120.4
			c5.96,0,10.8,4.84,10.8,10.8v22.4C1446.7,54.99,1441.86,59.83,1435.9,59.83z"/>
		<text transform="matrix(1 0 0 1 1338.2021 44.8579)" class="st9" style="font-family:'MyriadPro-Bold'; font-size:24px;">Denied!!!</text>
		<g>
			<path class="st9" d="M1322.3,22.81c8.27,0,14.99,6.71,15,14.98c0.01,8.3-6.73,15.04-15.04,15.02
				c-8.27-0.02-14.97-6.75-14.96-15.02C1307.31,29.52,1314.03,22.81,1322.3,22.81z M1333.55,37.84c0.02-6.2-4.98-11.23-11.2-11.27
				c-6.21-0.04-11.24,4.94-11.29,11.17c-0.05,6.23,4.99,11.31,11.24,11.31C1328.5,49.06,1333.53,44.05,1333.55,37.84z"/>
			<path class="st9" d="M1324.82,37.83c0.96,0.94,1.79,1.73,2.59,2.54c0.9,0.91,0.95,2.01,0.14,2.8c-0.77,0.77-1.92,0.71-2.81-0.17
				c-0.8-0.8-1.58-1.64-2.5-2.6c-0.94,0.99-1.78,1.91-2.66,2.78c-0.62,0.61-1.52,0.7-2.23,0.3c-0.72-0.41-1.11-1.24-0.87-2.06
				c0.11-0.38,0.36-0.75,0.64-1.04c0.79-0.82,1.62-1.59,2.54-2.48c-0.87-0.86-1.69-1.65-2.48-2.45c-0.93-0.94-1.02-2.07-0.23-2.87
				c0.82-0.82,1.9-0.75,2.86,0.2c0.79,0.78,1.55,1.58,2.45,2.5c0.89-0.91,1.72-1.79,2.58-2.64c0.68-0.67,1.45-0.8,2.2-0.44
				c1.16,0.56,1.43,2.03,0.49,3.01C1326.69,36.09,1325.78,36.9,1324.82,37.83z"/>
		</g>
	</g>
	<g class="st2">
		<path class="st3" d="M1435.9,163.56h-120.4c-5.96,0-10.8-4.84-10.8-10.8v-22.4c0-5.96,4.84-10.8,10.8-10.8h120.4
			c5.96,0,10.8,4.84,10.8,10.8v22.4C1446.7,158.73,1441.86,163.56,1435.9,163.56z"/>
		<text transform="matrix(1 0 0 1 1338.2021 147.879)" class="st11" style="font-family:'MyriadPro-Bold'; font-size:24px;">Approved</text>
		<g>
			<g>
				<g>
					<g>
						<g>
							<g>
								<path class="st11" d="M1319.82,142.63c0.52-0.7,1.03-1.39,1.54-2.07c1.97-2.64,3.95-5.28,5.92-7.91
									c0.56-0.74,1.61-0.89,2.36-0.34c0.74,0.55,0.91,1.62,0.36,2.36c-2.31,3.09-4.62,6.18-6.94,9.27
									c-0.52,0.69-1.04,1.38-1.55,2.07c-0.57,0.76-1.63,0.92-2.39,0.35c-1.59-1.19-3.17-2.37-4.76-3.56
									c-0.76-0.57-0.92-1.62-0.36-2.37c0.57-0.77,1.61-0.92,2.39-0.34c1.08,0.8,2.15,1.61,3.22,2.41
									C1319.68,142.53,1319.74,142.57,1319.82,142.63z"/>
							</g>
						</g>
					</g>
				</g>
			</g>
			<path class="st9" d="M1320.17,124.79c8.19-1.18,15.8,4.51,16.98,12.69c1.19,8.22-4.53,15.85-12.75,17.01
				c-8.18,1.16-15.77-4.55-16.94-12.74C1306.29,133.57,1311.98,125.97,1320.17,124.79z M1333.44,138.06
				c-0.86-6.14-6.52-10.41-12.69-9.56c-6.15,0.85-10.42,6.49-9.58,12.67c0.83,6.17,6.55,10.48,12.73,9.6
				C1330.04,149.89,1334.3,144.22,1333.44,138.06z"/>
		</g>
	</g>
	<g class="st2">
		<path class="st12" d="M1436.4,215.8H1316c-5.96,0-10.8-4.84-10.8-10.8v-22.4c0-5.96,4.84-10.8,10.8-10.8h120.4
			c5.96,0,10.8,4.84,10.8,10.8V205C1447.2,210.96,1442.36,215.8,1436.4,215.8z"/>
		<text transform="matrix(1 0 0 1 1338.7021 200.1149)" class="st9" style="font-family:'MyriadPro-Bold'; font-size:24px;">Delivered</text>
		<g>
			<path class="st9" d="M1320.51,177.55c8.19-1.18,15.8,4.51,16.98,12.69c1.19,8.22-4.53,15.85-12.75,17.01
				c-8.18,1.16-15.77-4.55-16.94-12.74C1306.62,186.32,1312.32,178.72,1320.51,177.55z M1333.78,190.82
				c-0.86-6.14-6.52-10.41-12.69-9.56c-6.15,0.85-10.42,6.49-9.58,12.67c0.83,6.17,6.55,10.48,12.73,9.6
				C1330.38,202.65,1334.64,196.97,1333.78,190.82z"/>
			<g>
				<path class="st9" d="M1325.98,189.52c0.09,0,0.17,0,0.24,0c1.18,0,2.37,0,3.55,0c0.17,0,0.34,0.01,0.5,0.05
					c0.83,0.2,1.28,1.05,1.01,1.94c-0.07,0.23-0.22,0.43-0.32,0.64c-0.03,0.06-0.05,0.14-0.03,0.19c0.23,0.62,0.08,1.18-0.27,1.7
					c-0.04,0.06-0.08,0.15-0.06,0.21c0.23,0.63,0.08,1.19-0.28,1.73c-0.04,0.06-0.07,0.16-0.05,0.23c0.34,1.21-0.37,2.29-1.6,2.46
					c-0.21,0.03-0.43,0.04-0.65,0.04c-2.17,0-4.35,0-6.52,0.01c-0.43,0-0.81-0.12-1.17-0.35c-0.07-0.04-0.14-0.08-0.22-0.12
					c-0.01,0.06-0.02,0.1-0.03,0.14c-0.03,0.52-0.35,0.83-0.88,0.83c-1.14,0-2.28,0-3.42,0c-0.33,0-0.66,0-0.98,0
					c-0.52-0.01-0.86-0.34-0.86-0.86c0-2.25,0-4.5,0-6.74c0-0.62,0.34-0.96,0.95-0.96c1.62,0,3.23,0,4.85,0
					c0.09,0,0.18-0.01,0.26,0.03c0.2,0.1,0.33,0.01,0.44-0.15c0.43-0.62,0.87-1.24,1.27-1.87c0.3-0.48,0.56-0.99,0.83-1.49
					c0.06-0.11,0.09-0.25,0.08-0.37c0-0.61-0.02-1.21-0.03-1.82c-0.01-0.38,0.15-0.67,0.46-0.88c0.6-0.42,1.57-0.41,2.15,0.03
					c0.09,0.07,0.18,0.16,0.23,0.26c0.41,0.81,0.74,1.65,0.88,2.55c0.07,0.45-0.05,0.87-0.11,1.31
					C1326.13,188.66,1326.05,189.07,1325.98,189.52z M1324.9,190.42c0.01-0.06,0.01-0.09,0.01-0.12c0.13-0.74,0.27-1.48,0.39-2.23
					c0.05-0.32,0.12-0.65,0.09-0.97c-0.08-0.79-0.39-1.5-0.74-2.21c-0.02-0.04-0.06-0.09-0.09-0.11c-0.31-0.12-0.62-0.16-0.93,0
					c-0.12,0.06-0.17,0.15-0.17,0.29c0.02,0.57,0.02,1.14,0.04,1.71c0.01,0.29-0.04,0.56-0.18,0.8c-0.53,0.9-1.07,1.79-1.61,2.69
					c-0.42,0.71-0.99,1.28-1.72,1.68c-0.12,0.07-0.17,0.15-0.17,0.3c0.01,1.6,0,3.2,0,4.79c0,0.07,0.01,0.14,0.01,0.24
					c0.36-0.07,0.62,0.12,0.88,0.3c0.26,0.17,0.54,0.26,0.85,0.25c1-0.01,1.99-0.01,2.99-0.01c1.2,0,2.4,0,3.6,0
					c0.57,0,0.99-0.26,1.14-0.7c0.14-0.42-0.07-0.8-0.44-0.84c-0.02,0-0.04-0.02-0.07-0.04c0.04-0.12-0.02-0.27,0.17-0.31
					c0.37-0.07,0.61-0.32,0.74-0.66c0.15-0.41-0.01-0.74-0.42-0.89c-0.05-0.02-0.1-0.04-0.15-0.05c0.01-0.27,0.01-0.26,0.24-0.34
					c0.35-0.12,0.59-0.36,0.69-0.72c0.09-0.33-0.03-0.6-0.33-0.76c-0.09-0.04-0.18-0.08-0.27-0.11c0-0.18,0.03-0.3,0.25-0.34
					c0.24-0.04,0.42-0.21,0.55-0.42c0.17-0.28,0.25-0.59,0.09-0.9c-0.15-0.3-0.44-0.32-0.74-0.32c-1.5,0-3,0-4.5,0
					C1325.06,190.42,1324.99,190.42,1324.9,190.42z M1319.01,198.32c0.01-0.07,0.01-0.12,0.01-0.17c0-2.14,0-4.27,0-6.41
					c0-0.16-0.06-0.19-0.2-0.19c-1.26,0.01-2.53,0.01-3.79,0c-0.17,0-0.22,0.05-0.22,0.22c0.01,2.12,0,4.23,0,6.35
					c0,0.07,0.01,0.13,0.01,0.2C1316.23,198.32,1317.62,198.32,1319.01,198.32z"/>
			</g>
		</g>
	</g>
	<g class="st2">
		<g>
			<path class="st3" d="M1222.87,792.71c0.65-0.55,1.3-1.09,1.94-1.65c5.23-4.6,10.46-9.21,15.69-13.81
				c6.38-5.62,12.75-11.24,19.13-16.86c0.98-0.86,1.96-1.71,2.96-2.59c0.99,0.89,1.97,1.78,2.96,2.67
				c5.44,4.93,10.89,9.86,16.33,14.79c4.39,3.98,8.78,7.96,13.17,11.94c1.9,1.72,3.79,3.43,5.69,5.15c0.08,0.07,0.18,0.13,0.28,0.19
				c0,0.03,0,0.06,0,0.09c-1.28,1.8-3.1,2.37-5.31,1.66c-1.76-0.56-3.18-1.66-4.53-2.88c-5.16-4.66-10.35-9.29-15.53-13.93
				c-4.22-3.78-8.44-7.57-12.65-11.35c-0.13-0.11-0.26-0.23-0.41-0.36c-1.06,0.9-2.11,1.78-3.15,2.67
				c-5.74,4.85-11.48,9.71-17.22,14.56c-3.81,3.22-7.61,6.44-11.42,9.67c-0.99,0.84-2.04,1.57-3.31,1.93
				c-1.75,0.49-3.37-0.08-4.43-1.55c-0.06-0.08-0.12-0.16-0.18-0.24C1222.87,792.77,1222.87,792.74,1222.87,792.71z"/>
			<path class="st3" d="M1262.35,770.85c1.38,1.23,2.75,2.44,4.12,3.66c5.01,4.46,10.03,8.91,15.04,13.37
				c2.59,2.31,5.18,4.61,7.77,6.93c0.14,0.12,0.25,0.36,0.25,0.55c0.01,9.78,0.01,19.56,0.01,29.35c0,1.23-0.64,2.25-2.22,2.24
				c-6.22-0.03-12.44-0.01-18.67-0.01c-0.14,0-0.28,0-0.47,0c0-0.21,0-0.38,0-0.55c0.01-5.12-0.01-10.24,0.03-15.36
				c0.01-1.66-0.88-2.81-2.77-2.83c-2.77-0.04-5.55-0.03-8.32,0c-1.44,0.01-2.29,0.97-2.28,2.49c0,5.37,0,10.73,0,16.1
				c0,0.06-0.01,0.11-0.02,0.24c-0.18,0-0.36,0-0.55,0c-6.32,0-12.65,0-18.97,0c-1.14,0-1.71-0.51-1.8-1.65
				c-0.01-0.13,0-0.26,0-0.39c0-9.81,0-19.62-0.01-29.43c0-0.37,0.12-0.61,0.4-0.84c5.31-4.44,10.62-8.89,15.93-13.34
				c3.68-3.08,7.35-6.17,11.03-9.26C1261.33,771.69,1261.83,771.28,1262.35,770.85z"/>
			<path class="st3" d="M1284.09,765.73c2.59,0,5.11,0,7.67,0c0,5.25,0,10.48,0,15.75c-0.11-0.08-0.21-0.13-0.29-0.2
				c-2.34-1.98-4.67-3.97-7.01-5.94c-0.27-0.23-0.37-0.46-0.37-0.81c0.01-2.76,0-5.53-0.01-8.29
				C1284.09,766.08,1284.09,765.93,1284.09,765.73z"/>
		</g>
		
			<text transform="matrix(1 0 0 1 1215.1394 876.9709)" class="st3" style="font-family:'MyriadPro-Regular'; font-size:36.9126px;">Home</text>
	</g>
	<g class="st2">
		<g>
			<g>
				<path class="st3" d="M1373.01,785.39c6.38,7.61,16.37,7.94,22.64-0.19c5.62,7.31,15.3,7.44,21.15,0.04
					c1.61,1.96,3.57,3.43,5.91,4.4c2.39,0.99,4.8,1.19,7.42,0.26c0,0.58,0,1.01,0,1.43c0,9.76,0.01,19.52,0.01,29.27
					c0,4.38-2.35,6.74-6.71,6.74c-18.84,0.01-37.69,0.01-56.53,0.01c-3.57,0-6.21-2.52-6.23-6.06c-0.06-10.19-0.06-20.38-0.08-30.58
					c0-0.11,0.04-0.23,0.08-0.46C1365.75,791.22,1369.88,789.62,1373.01,785.39z M1372.95,824.79c6.5,0,12.87,0,19.26,0
					c0-9.95,0-19.81,0-29.71c-6.45,0-12.82,0-19.26,0C1372.95,805.01,1372.95,814.87,1372.95,824.79z M1410.06,811.63
					c2.09,0,4.18,0.01,6.27,0c1.56-0.01,2.11-0.56,2.12-2.15c0.01-4.1,0.01-8.2,0-12.3c0-1.57-0.58-2.15-2.14-2.15
					c-4.14-0.01-8.28-0.01-12.42,0c-1.43,0-2.04,0.6-2.04,1.99c-0.01,4.22-0.01,8.44,0,12.66c0,1.37,0.58,1.94,1.94,1.95
					C1405.88,811.64,1407.97,811.63,1410.06,811.63z"/>
				<path class="st3" d="M1376.15,776.76c0.37-2.05,0.72-4.02,1.08-5.98c1.01-5.38,2.04-10.76,3.02-16.15
					c0.12-0.66,0.33-0.94,1.04-0.93c4.06,0.02,8.13,0,12.19,0c0.15,0,0.3,0.04,0.53,0.07c0,7.66,0,15.29,0,23
					C1388.09,776.76,1382.2,776.76,1376.15,776.76z"/>
				<path class="st3" d="M1377.48,753.74c-0.61,3.29-1.2,6.47-1.79,9.64c-0.77,4.11-1.54,8.22-2.3,12.33
					c-0.12,0.63-0.17,1.17-1.1,1.16c-5.25-0.04-10.5-0.02-15.76-0.02c-0.19,0-0.38-0.05-0.72-0.1c0.16-0.46,0.29-0.86,0.43-1.25
					c2.31-6.25,4.62-12.5,6.94-18.75c0.82-2.21,1.93-3,4.26-3.01C1370.75,753.73,1374.06,753.74,1377.48,753.74z"/>
				<path class="st3" d="M1414.11,776.75c-5.63,0-11.25,0-16.96,0c0-7.64,0-15.27,0-23.1c0.93,0,1.86,0,2.79,0c3-0.01,6,0.01,9-0.05
					c0.84-0.02,1.14,0.22,1.29,1.07c1.26,7.22,2.59,14.43,3.89,21.64C1414.13,776.43,1414.11,776.55,1414.11,776.75z"/>
				<path class="st3" d="M1434.54,776.84c-0.8,0-1.54,0-2.28,0c-4.65,0-9.31-0.02-13.96,0.02c-0.87,0.01-1.2-0.22-1.36-1.13
					c-1.25-7.18-2.57-14.35-3.86-21.53c-0.03-0.15,0-0.31,0-0.54c3.09,0,6.16-0.07,9.21,0.03c1.15,0.04,2.06,0.82,2.56,1.88
					c3.23,6.93,6.44,13.86,9.66,20.8C1434.53,776.45,1434.51,776.53,1434.54,776.84z"/>
				<path class="st3" d="M1375.6,779.65c6.2,0,12.27,0,18.4,0c0.28,2.05,0.12,3.78-1.54,5.37c-4.84,4.65-12.48,4.49-16.9-0.55
					c-0.31-0.36-0.5-0.98-0.47-1.47C1375.17,781.9,1375.42,780.82,1375.6,779.65z"/>
				<path class="st3" d="M1396.78,779.64c6.23,0,11.99,0,17.73,0c1.18,2.5,0.88,3.98-1.14,5.69c-4.76,4.03-11.91,3.41-15.67-1.56
					C1396.96,782.79,1397.09,781.15,1396.78,779.64z"/>
				<path class="st3" d="M1417.78,779.67c5.95,0,11.9,0,17.84,0c0.56,3.24-3.99,7.87-8.05,8.22
					C1422.24,788.34,1417.79,784.64,1417.78,779.67z"/>
				<path class="st3" d="M1354.76,779.61c6.03,0,12.06,0,18.09,0c0.16,4.01-4.26,8.03-8.91,8.15
					C1359.29,787.88,1354.87,783.99,1354.76,779.61z"/>
			</g>
			<circle class="st9" cx="1435.15" cy="761.6" r="27.05"/>
			
				<text transform="matrix(1 0 0 1 1425.3191 774.3908)" class="st11" style="font-family:'MyriadPro-Regular'; font-size:39.34px;">0</text>
		</g>
		<text transform="matrix(1 0 0 1 1330.6843 880.6076)" class="st3" style="font-family:'MyriadPro-Regular'; font-size:39.34px;">Shporta</text>
	</g>
	<g class="st2">
		<g>
			<path class="st3" d="M1576.59,747.29c0.35,0.09,0.7,0.16,1.03,0.27c2.18,0.72,3.65,2.73,3.66,5.04c0.01,2.62,0,5.24,0,7.86
				c0,0.14,0,0.28,0,0.47c0.16,0,0.3,0,0.43,0c2.31,0,4.62,0,6.94,0c1.16,0,1.82,0.65,1.82,1.81c0,1.51,0,3.03,0,4.57
				c-10.33,0-20.64,0-31.01,0c0-0.11,0-0.24,0-0.36c0-1.41,0-2.83,0-4.24c0-1.1,0.67-1.78,1.78-1.78c2.47,0,4.93,0,7.4,0
				c0.14,0,0.28,0,0.47,0c0-0.16,0-0.3,0-0.43c0-2.57,0-5.14,0-7.71c0-2.83,1.76-4.94,4.56-5.44c0.05-0.01,0.09-0.04,0.14-0.06
				C1574.74,747.29,1575.67,747.29,1576.59,747.29z M1577.54,756.05c-0.01-1.22-0.99-2.2-2.21-2.2c-1.22,0-2.21,0.98-2.21,2.2
				c0,1.23,0.99,2.23,2.23,2.22C1576.58,758.25,1577.55,757.27,1577.54,756.05z"/>
			<path class="st3" d="M1581.61,822.84c-0.93-0.94-1.82-1.84-2.71-2.74c-1.57-1.59-3.11-3.21-4.7-4.78
				c-2.41-2.37-5.24-4.16-8.2-5.75c-0.88-0.47-1.77-0.94-2.7-1.43c3.79-2.43,7.53-4.83,11.31-7.26c2.05,3.69,4.09,7.35,6.15,11.05
				c0.54-1.08,1.03-2.1,1.55-3.12c2.8-5.45,5.94-10.67,9.75-15.48c2.37-2.99,4.95-5.77,8.07-8c1.29-0.92,2.64-1.72,4.12-2.31
				c0.07-0.03,0.14-0.05,0.27-0.09c-0.04,0.65-0.07,1.26-0.11,1.87c-0.18,2.69-0.33,5.39-0.12,8.08c0.07,0.95,0.23,1.91,0.45,2.84
				c0.14,0.6,0.47,1.15,0.74,1.75c-0.21,0.11-0.51,0.26-0.8,0.43c-2.26,1.3-4.28,2.93-6.22,4.65c-6.57,5.81-12.11,12.48-16.64,19.99
				C1581.75,822.62,1581.7,822.7,1581.61,822.84z"/>
			<path class="st3" d="M1567.17,754.21c0,1.29,0,2.52,0,3.81c-0.16,0-0.31,0-0.46,0c-2.97,0-5.93,0-8.9,0
				c-0.93,0-1.78,0.23-2.5,0.84c-0.64,0.54-1,1.23-1,2.08c0,0.12,0,0.23,0,0.35c0,16.77,0,33.55,0,50.32c0,1.92,1.28,3.25,3.21,3.27
				c3.02,0.03,6.04,0.01,9.05,0.02c0.22,0,0.46,0.07,0.64,0.18c1.6,0.98,3.13,2.06,4.54,3.31c0.09,0.08,0.17,0.15,0.31,0.28
				c-0.15,0.02-0.24,0.04-0.33,0.04c-5.63,0-11.25,0-16.88,0c-1.27,0-2.4-0.38-3.27-1.36c-0.47-0.53-0.73-1.14-0.74-1.85
				c0-0.17,0-0.33,0-0.5c0-19.02,0-38.04,0-57.06c0-2.13,1.43-3.65,3.58-3.7c2.3-0.05,4.6-0.02,6.9-0.02c1.8,0,3.6,0,5.39,0
				C1566.85,754.21,1566.99,754.21,1567.17,754.21z"/>
			<path class="st3" d="M1595.7,784.21c0-0.19,0-0.34,0-0.49c0-7.42-0.05-14.85,0.03-22.27c0.02-2.37-1.79-3.44-3.44-3.44
				c-2.76,0.01-5.52,0-8.28,0c-0.15,0-0.3,0-0.47,0c0-1.28,0-2.52,0-3.81c0.15,0,0.29,0,0.42,0c3.69,0,7.37,0.01,11.06,0
				c1.07,0,2.07,0.21,2.92,0.89c0.81,0.64,1.24,1.47,1.24,2.53c-0.01,7.78,0,15.57-0.01,23.35c0,0.15-0.04,0.35-0.15,0.44
				C1597.95,782.34,1596.85,783.25,1595.7,784.21z"/>
			<path class="st3" d="M1588.9,818.71c0.33-0.43,0.59-0.79,0.87-1.14c0.62-0.78,1.26-1.56,1.87-2.35c0.19-0.25,0.39-0.35,0.71-0.34
				c0.65,0.02,1.28-0.14,1.84-0.47c0.98-0.58,1.58-1.42,1.5-2.58c-0.06-0.79,0.17-1.35,0.78-1.85c0.85-0.7,1.65-1.47,2.47-2.2
				c0.05-0.05,0.12-0.09,0.24-0.17c0,0.2,0,0.33,0,0.47c0,2.32-0.06,4.65,0.02,6.97c0.08,2.29-1.8,3.51-3.34,3.62
				c-1.32,0.09-2.64,0.05-3.96,0.06C1590.93,818.72,1589.97,818.71,1588.9,818.71z"/>
			<path class="st3" d="M1589.99,786.51c0,0.49,0,0.95,0,1.44c-9.86,0-19.7,0-29.57,0c0-0.48,0-0.94,0-1.44
				C1570.27,786.51,1580.11,786.51,1589.99,786.51z"/>
			<path class="st3" d="M1560.4,783.58c0-0.47,0-0.93,0-1.42c9.85,0,19.69,0,29.57,0c0,0.45,0,0.92,0,1.42
				C1580.13,783.58,1570.28,783.58,1560.4,783.58z"/>
			<path class="st3" d="M1560.4,792.28c0-0.47,0-0.93,0-1.42c9.85,0,19.7,0,29.57,0c0,0.45,0,0.92,0,1.42
				C1580.13,792.28,1570.27,792.28,1560.4,792.28z"/>
			<path class="st3" d="M1570.9,774.52c0,0.48,0,0.94,0,1.42c-3.49,0-6.97,0-10.49,0c0-0.47,0-0.94,0-1.42
				C1563.91,774.52,1567.39,774.52,1570.9,774.52z"/>
			<path class="st3" d="M1570.89,777.9c0,0.48,0,0.94,0,1.42c-3.49,0-6.97,0-10.48,0c0-0.47,0-0.93,0-1.42
				C1563.91,777.9,1567.39,777.9,1570.89,777.9z"/>
		</g>
		<text transform="matrix(1 0 0 1 1510.095 877.3771)" class="st3" style="font-family:'MyriadPro-Regular'; font-size:40.2919px;">Porosite</text>
	</g>
	<g class="st2">
		<g>
			<path class="st3" d="M1705.42,777.23c-0.09-21.51,17.6-39.38,39.04-39.46c22.58-0.09,39.67,18.05,39.83,39.11
				c0.17,22.3-17.76,39.71-39.12,39.84C1723.18,816.85,1705.51,799.24,1705.42,777.23z M1723.02,803.22
				c4.89-8.4,12.04-13.17,21.83-13.18c9.81-0.01,16.97,4.78,21.86,13.16c9.21-7.41,14.71-21.07,10.92-34.91
				c-3.98-14.54-16.96-24.66-32.1-25.03c-14.86-0.36-28.35,9.21-32.97,23.48C1707.89,781.17,1713.47,795.38,1723.02,803.22z
				 M1727.63,806.5c10.35,6.33,24.17,6.33,34.46-0.01c-1.97-4.7-7.68-10.66-16.46-11.01C1737,795.13,1730.28,800.49,1727.63,806.5z"
				/>
			<path class="st3" d="M1760.02,773.17c-0.02,8.39-6.84,15.14-15.28,15.11c-8.26-0.02-15.03-6.87-15.01-15.18
				c0.02-8.4,6.83-15.13,15.28-15.11C1753.26,758.01,1760.03,764.86,1760.02,773.17z M1754.54,773.12
				c-0.01-5.36-4.35-9.66-9.75-9.66c-5.25,0-9.59,4.37-9.59,9.67c0,5.37,4.33,9.69,9.72,9.69
				C1750.21,782.82,1754.54,778.44,1754.54,773.12z"/>
		</g>
		
			<text transform="matrix(1 0 0 1 1694.8582 873.7033)" class="st3" style="font-family:'MyriadPro-Regular'; font-size:42.1053px;">Profili</text>
	</g>
	<g class="st2">
		<g>
			<path class="st9" d="M2110.76,476.29c0.71-0.6,1.43-1.19,2.13-1.81c5.73-5.04,11.46-10.08,17.18-15.13
				c6.99-6.15,13.97-12.31,20.95-18.47c1.07-0.94,2.14-1.88,3.24-2.84c1.08,0.98,2.16,1.95,3.24,2.92
				c5.96,5.4,11.92,10.8,17.88,16.2c4.81,4.36,9.62,8.72,14.43,13.08c2.08,1.88,4.16,3.76,6.24,5.64c0.09,0.08,0.2,0.14,0.3,0.21
				c0,0.03,0,0.06,0,0.1c-1.41,1.98-3.39,2.6-5.82,1.82c-1.93-0.62-3.48-1.82-4.96-3.16c-5.65-5.11-11.34-10.18-17.01-15.26
				c-4.62-4.14-9.24-8.29-13.86-12.44c-0.14-0.13-0.28-0.25-0.45-0.39c-1.16,0.98-2.31,1.95-3.45,2.92
				c-6.29,5.32-12.57,10.63-18.86,15.95c-4.17,3.53-8.34,7.06-12.51,10.59c-1.08,0.92-2.23,1.72-3.62,2.11
				c-1.91,0.54-3.69-0.09-4.85-1.7c-0.06-0.09-0.13-0.18-0.2-0.26C2110.76,476.35,2110.76,476.32,2110.76,476.29z"/>
			<path class="st9" d="M2154,452.34c1.51,1.34,3.01,2.68,4.51,4.01c5.49,4.88,10.98,9.76,16.47,14.65
				c2.84,2.53,5.68,5.05,8.51,7.59c0.15,0.14,0.27,0.4,0.27,0.6c0.01,10.72,0.01,21.43,0.01,32.15c0,1.34-0.7,2.46-2.43,2.45
				c-6.82-0.03-13.63-0.01-20.45-0.01c-0.15,0-0.31,0-0.51,0c0-0.23,0-0.42,0-0.6c0.01-5.61-0.01-11.22,0.03-16.83
				c0.01-1.82-0.97-3.08-3.03-3.1c-3.04-0.04-6.08-0.03-9.11,0c-1.58,0.01-2.5,1.07-2.5,2.72c0,5.88,0,11.75,0,17.63
				c0,0.06-0.01,0.12-0.02,0.26c-0.2,0-0.4,0-0.6,0c-6.93,0-13.85,0-20.78,0c-1.24,0-1.87-0.56-1.97-1.8
				c-0.01-0.14-0.01-0.29-0.01-0.43c0-10.75,0-21.49-0.01-32.24c0-0.41,0.13-0.67,0.43-0.92c5.82-4.86,11.63-9.74,17.45-14.61
				c4.03-3.38,8.05-6.76,12.08-10.14C2152.88,453.26,2153.43,452.81,2154,452.34z"/>
			<path class="st9" d="M2177.82,446.73c2.83,0,5.6,0,8.4,0c0,5.75,0,11.48,0,17.25c-0.12-0.08-0.23-0.14-0.31-0.22
				c-2.56-2.17-5.11-4.35-7.68-6.51c-0.3-0.25-0.4-0.51-0.4-0.89c0.01-3.03,0-6.05-0.01-9.08
				C2177.82,447.12,2177.82,446.95,2177.82,446.73z"/>
		</g>
		<text transform="matrix(1 0 0 1 2103.655 568.5881)" class="st9" style="font-family:'MyriadPro-Regular'; font-size:40.4349px;">Home</text>
	</g>
	<g class="st2">
		<g>
			<g>
				<path class="st9" d="M1990.45,477.24c5.86,6.99,15.05,7.3,20.81-0.17c5.17,6.72,14.06,6.84,19.44,0.03
					c1.48,1.8,3.28,3.15,5.43,4.04c2.19,0.91,4.41,1.09,6.82,0.24c0,0.54,0,0.93,0,1.32c0,8.97,0.01,17.94,0.01,26.91
					c0,4.03-2.16,6.19-6.17,6.19c-17.32,0.01-34.64,0.01-51.96,0.01c-3.28,0-5.71-2.31-5.73-5.57c-0.06-9.37-0.05-18.74-0.07-28.11
					c0-0.1,0.03-0.21,0.07-0.42C1983.77,482.6,1987.57,481.12,1990.45,477.24z M1990.39,513.46c5.97,0,11.83,0,17.7,0
					c0-9.15,0-18.21,0-27.3c-5.92,0-11.78,0-17.7,0C1990.39,495.28,1990.39,504.34,1990.39,513.46z M2024.49,501.36
					c1.92,0,3.84,0.01,5.76,0c1.44-0.01,1.94-0.51,1.95-1.98c0.01-3.77,0.01-7.54,0-11.31c0-1.44-0.53-1.98-1.96-1.98
					c-3.81-0.01-7.61-0.01-11.42,0c-1.32,0-1.88,0.55-1.88,1.83c-0.01,3.88-0.01,7.76,0,11.64c0,1.26,0.53,1.78,1.79,1.8
					C2020.65,501.37,2022.57,501.36,2024.49,501.36z"/>
				<path class="st9" d="M1993.33,469.31c0.34-1.89,0.66-3.69,1-5.5c0.93-4.95,1.87-9.89,2.78-14.84c0.11-0.61,0.3-0.86,0.96-0.86
					c3.74,0.02,7.47,0,11.21,0c0.14,0,0.28,0.03,0.49,0.06c0,7.04,0,14.05,0,21.14C2004.31,469.31,1998.89,469.31,1993.33,469.31z"
					/>
				<path class="st9" d="M1994.55,448.14c-0.56,3.03-1.1,5.94-1.64,8.86c-0.7,3.78-1.41,7.55-2.12,11.33
					c-0.11,0.58-0.16,1.08-1.01,1.07c-4.83-0.04-9.66-0.02-14.48-0.02c-0.18,0-0.35-0.05-0.66-0.09c0.15-0.42,0.26-0.79,0.4-1.15
					c2.13-5.75,4.25-11.49,6.38-17.23c0.75-2.03,1.78-2.76,3.91-2.76C1988.36,448.14,1991.41,448.14,1994.55,448.14z"/>
				<path class="st9" d="M2028.22,469.3c-5.18,0-10.34,0-15.59,0c0-7.02,0-14.04,0-21.23c0.86,0,1.71,0,2.57,0
					c2.76-0.01,5.51,0.01,8.27-0.05c0.77-0.02,1.05,0.2,1.18,0.99c1.16,6.64,2.38,13.26,3.57,19.89
					C2028.24,469,2028.22,469.11,2028.22,469.3z"/>
				<path class="st9" d="M2047,469.38c-0.73,0-1.42,0-2.1,0c-4.28,0-8.56-0.02-12.84,0.02c-0.8,0.01-1.1-0.2-1.25-1.04
					c-1.15-6.6-2.36-13.19-3.55-19.79c-0.02-0.14,0-0.28,0-0.49c2.84,0,5.66-0.06,8.47,0.03c1.06,0.03,1.9,0.75,2.35,1.73
					c2.97,6.37,5.92,12.74,8.88,19.12C2046.99,469.02,2046.98,469.1,2047,469.38z"/>
				<path class="st9" d="M1992.83,471.96c5.7,0,11.28,0,16.91,0c0.26,1.89,0.11,3.47-1.41,4.94c-4.45,4.28-11.47,4.13-15.53-0.51
					c-0.29-0.33-0.46-0.9-0.43-1.35C1992.43,474.04,1992.66,473.04,1992.83,471.96z"/>
				<path class="st9" d="M2012.29,471.95c5.73,0,11.02,0,16.3,0c1.09,2.3,0.81,3.66-1.04,5.23c-4.37,3.7-10.95,3.13-14.4-1.43
					C2012.46,474.85,2012.57,473.34,2012.29,471.95z"/>
				<path class="st9" d="M2031.59,471.98c5.47,0,10.94,0,16.4,0c0.52,2.98-3.66,7.24-7.4,7.56
					C2035.69,479.96,2031.6,476.55,2031.59,471.98z"/>
				<path class="st9" d="M1973.66,471.93c5.55,0,11.09,0,16.63,0c0.15,3.69-3.91,7.38-8.19,7.49
					C1977.83,479.53,1973.77,475.95,1973.66,471.93z"/>
			</g>
			<circle class="st3" cx="2047.56" cy="455.38" r="24.86"/>
			
				<text transform="matrix(1 0 0 1 2038.5222 467.1281)" class="st11" style="font-family:'MyriadPro-Regular'; font-size:36.1605px;">0</text>
		</g>
		
			<text transform="matrix(1 0 0 1 1953.7351 564.7599)" class="st9" style="font-family:'MyriadPro-Regular'; font-size:36.1605px;">Shporta</text>
	</g>
	<g class="st2">
		<g>
			<path class="st9" d="M1907.91,856.4c0.32,0.08,0.66,0.15,0.97,0.25c2.06,0.67,3.44,2.57,3.45,4.75c0.01,2.47,0,4.93,0,7.4
				c0,0.13,0,0.26,0,0.44c0.15,0,0.28,0,0.41,0c2.18,0,4.35,0,6.53,0c1.09,0,1.71,0.61,1.71,1.7c0,1.43,0,2.85,0,4.3
				c-9.73,0-19.43,0-29.19,0c0-0.11,0-0.22,0-0.34c0-1.33,0-2.66,0-3.99c0-1.04,0.63-1.67,1.67-1.67c2.32,0,4.64,0,6.96,0
				c0.13,0,0.26,0,0.44,0c0-0.15,0-0.28,0-0.41c0-2.42,0-4.84,0-7.25c0-2.67,1.66-4.65,4.29-5.13c0.05-0.01,0.09-0.04,0.13-0.06
				C1906.17,856.4,1907.04,856.4,1907.91,856.4z M1908.8,864.64c-0.01-1.15-0.93-2.07-2.08-2.07c-1.15,0-2.08,0.92-2.08,2.07
				c0,1.16,0.94,2.09,2.1,2.09C1907.9,866.72,1908.81,865.79,1908.8,864.64z"/>
			<path class="st9" d="M1912.64,927.52c-0.87-0.88-1.72-1.73-2.55-2.58c-1.47-1.5-2.92-3.02-4.42-4.5
				c-2.27-2.23-4.93-3.92-7.72-5.41c-0.83-0.44-1.66-0.88-2.54-1.35c3.56-2.29,7.09-4.55,10.65-6.83c1.93,3.48,3.85,6.92,5.79,10.4
				c0.5-1.02,0.97-1.98,1.46-2.93c2.63-5.13,5.6-10.04,9.18-14.57c2.23-2.81,4.66-5.43,7.59-7.54c1.21-0.87,2.49-1.62,3.88-2.17
				c0.07-0.03,0.13-0.04,0.25-0.08c-0.04,0.61-0.07,1.18-0.11,1.76c-0.17,2.53-0.31,5.07-0.11,7.61c0.07,0.9,0.22,1.8,0.42,2.68
				c0.13,0.56,0.45,1.08,0.69,1.65c-0.19,0.1-0.48,0.24-0.75,0.4c-2.13,1.23-4.03,2.76-5.85,4.38c-6.18,5.47-11.4,11.75-15.67,18.82
				C1912.77,927.31,1912.72,927.39,1912.64,927.52z"/>
			<path class="st9" d="M1899.04,862.91c0,1.22,0,2.37,0,3.58c-0.15,0-0.29,0-0.43,0c-2.79,0-5.59,0-8.38,0
				c-0.87,0-1.68,0.22-2.35,0.79c-0.6,0.51-0.94,1.15-0.94,1.96c0,0.11,0,0.22,0,0.33c0,15.79,0,31.58,0,47.37
				c0,1.81,1.2,3.06,3.02,3.08c2.84,0.03,5.68,0.01,8.52,0.02c0.2,0,0.43,0.07,0.6,0.17c1.51,0.92,2.95,1.94,4.27,3.11
				c0.08,0.07,0.16,0.14,0.29,0.26c-0.15,0.02-0.23,0.04-0.31,0.04c-5.3,0-10.59,0-15.89,0c-1.2,0-2.26-0.36-3.08-1.28
				c-0.44-0.49-0.69-1.07-0.7-1.74c0-0.16,0-0.31,0-0.47c0-17.91,0-35.81,0-53.72c0-2.01,1.35-3.43,3.37-3.48
				c2.16-0.05,4.33-0.02,6.49-0.02c1.69,0,3.39,0,5.08,0C1898.74,862.91,1898.87,862.91,1899.04,862.91z"/>
			<path class="st9" d="M1925.91,891.15c0-0.18,0-0.32,0-0.46c0-6.99-0.05-13.98,0.03-20.97c0.02-2.23-1.69-3.24-3.24-3.24
				c-2.6,0.01-5.2,0-7.8,0c-0.14,0-0.28,0-0.45,0c0-1.2,0-2.37,0-3.58c0.14,0,0.27,0,0.4,0c3.47,0,6.94,0.01,10.41,0
				c1.01,0,1.95,0.2,2.75,0.84c0.77,0.6,1.17,1.38,1.17,2.38c-0.01,7.33,0,14.65-0.01,21.98c0,0.14-0.04,0.33-0.14,0.41
				C1928.01,889.39,1926.98,890.25,1925.91,891.15z"/>
			<path class="st9" d="M1919.5,923.63c0.31-0.41,0.56-0.75,0.82-1.07c0.59-0.74,1.19-1.46,1.76-2.21c0.18-0.23,0.37-0.33,0.67-0.32
				c0.62,0.02,1.2-0.13,1.73-0.44c0.92-0.54,1.49-1.33,1.41-2.43c-0.05-0.74,0.16-1.28,0.73-1.75c0.8-0.66,1.55-1.38,2.33-2.07
				c0.05-0.05,0.11-0.08,0.23-0.16c0,0.19,0,0.31,0,0.44c0,2.19-0.06,4.38,0.02,6.56c0.07,2.16-1.69,3.31-3.15,3.41
				c-1.24,0.08-2.49,0.05-3.73,0.06C1921.41,923.64,1920.51,923.63,1919.5,923.63z"/>
			<path class="st9" d="M1920.52,893.32c0,0.46,0,0.9,0,1.35c-9.28,0-18.55,0-27.84,0c0-0.45,0-0.89,0-1.35
				C1901.96,893.32,1911.22,893.32,1920.52,893.32z"/>
			<path class="st9" d="M1892.67,890.56c0-0.45,0-0.88,0-1.33c9.27,0,18.54,0,27.83,0c0,0.43,0,0.87,0,1.33
				C1911.24,890.56,1901.97,890.56,1892.67,890.56z"/>
			<path class="st9" d="M1892.67,898.75c0-0.45,0-0.88,0-1.33c9.27,0,18.54,0,27.84,0c0,0.43,0,0.87,0,1.33
				C1911.24,898.75,1901.96,898.75,1892.67,898.75z"/>
			<path class="st9" d="M1902.55,882.03c0,0.45,0,0.88,0,1.34c-3.29,0-6.57,0-9.87,0c0-0.44,0-0.88,0-1.34
				C1895.97,882.03,1899.25,882.03,1902.55,882.03z"/>
			<path class="st9" d="M1902.55,885.21c0,0.45,0,0.88,0,1.34c-3.28,0-6.56,0-9.87,0c0-0.44,0-0.88,0-1.34
				C1895.97,885.21,1899.25,885.21,1902.55,885.21z"/>
		</g>
		
			<text transform="matrix(1 0 0 1 1849.0701 978.8596)" class="st9" style="font-family:'MyriadPro-Regular'; font-size:37.9305px;">Porosite</text>
	</g>
	<g class="st2">
		<g>
			<path class="st9" d="M2022.95,770.77c-0.09-21.6,17.67-39.54,39.2-39.62c22.67-0.09,39.83,18.12,39.99,39.26
				c0.17,22.39-17.83,39.87-39.28,40C2040.78,810.55,2023.04,792.87,2022.95,770.77z M2040.61,796.86
				c4.91-8.43,12.09-13.22,21.91-13.23c9.85-0.01,17.04,4.8,21.95,13.21c9.25-7.44,14.77-21.16,10.97-35.04
				c-3.99-14.6-17.03-24.76-32.22-25.13c-14.92-0.36-28.46,9.25-33.1,23.58C2025.43,774.72,2031.03,788.99,2040.61,796.86z
				 M2045.24,800.15c10.39,6.35,24.26,6.36,34.6-0.01c-1.98-4.72-7.71-10.7-16.53-11.06
				C2054.65,788.74,2047.91,794.12,2045.24,800.15z"/>
			<path class="st9" d="M2077.76,766.7c-0.02,8.43-6.86,15.2-15.34,15.17c-8.29-0.02-15.09-6.89-15.07-15.24
				c0.02-8.43,6.86-15.19,15.34-15.17C2070.97,751.48,2077.77,758.35,2077.76,766.7z M2072.25,766.65c-0.01-5.38-4.36-9.7-9.79-9.7
				c-5.27,0-9.62,4.39-9.63,9.71c0,5.39,4.35,9.72,9.76,9.72C2067.91,776.38,2072.26,771.99,2072.25,766.65z"/>
		</g>
		
			<text transform="matrix(1 0 0 1 2011.8064 867.6232)" class="st9" style="font-family:'MyriadPro-Regular'; font-size:42.2713px;">Profili</text>
	</g>
	<text transform="matrix(1 0 0 1 1601.7996 27.8)" class="st2" style="font-family:'MyriadPro-Regular'; font-size:45px;">#0a3637</text>
	<text transform="matrix(1 0 0 1 1601.7996 85.8)" class="st2" style="font-family:'MyriadPro-Regular'; font-size:45px;">#8ab83e</text>
	<text transform="matrix(1 0 0 1 1601.7996 154.8)" class="st2" style="font-family:'MyriadPro-Regular'; font-size:45px;">#f49b03</text>
	<text transform="matrix(1 0 0 1 1601.7996 229.8)" class="st2" style="font-family:'MyriadPro-Regular'; font-size:45px;">#db0000</text>
	<text transform="matrix(1 0 0 1 1601.7996 296.8)" class="st2" style="font-family:'MyriadPro-Regular'; font-size:45px;">#14abc4</text>
</g>
<g id="Layer_2">
	<g>
		<path class="st3" d="M552.12,168.4c12.85,4.51,26.61,7.37,38.37,13.86c26.8,14.78,42.86,38.28,48.49,68.47
			c0.96,5.15,2.88,6.55,7.96,6.52c35.24-0.22,70.49-0.26,105.73-0.08c42.54,0.22,75.52,25.67,85.36,65.53
			c10.03,40.61-8.44,81.1-45.81,99.51c-4.94,2.43-5.48,5.53-5.48,10.19c0.09,130.12,0.15,260.23,0.02,390.35
			c-0.04,36.51-16.52,63.63-49.52,79.16c-10.56,4.97-23.18,7.71-34.88,7.77c-107.9,0.58-215.81,0.58-323.72,0.23
			c-48.21-0.16-84.36-37.91-84.39-87.17c-0.09-129.63-0.07-259.27,0.1-388.9c0.01-6.23-1.37-9.63-7.5-12.58
			c-34.21-16.5-52.09-55.54-44.57-95.78c6.72-35.93,37.68-65.05,74.58-67.3c29.35-1.79,58.86-0.82,88.31-1.03
			c10.14-0.07,20.28-0.16,30.42,0.06c3.86,0.09,5.46-1.19,6.26-5.04c9.43-45.7,39.45-74.94,84.54-82.61
			c0.89-0.15,1.71-0.76,2.56-1.15C536.67,168.4,544.4,168.4,552.12,168.4z M746.55,431.45c-137.93,0-274.66,0-412.03,0
			c0,3.35,0,6.21,0,9.07c0,40.55,0,81.1,0,121.64c0,86.41-0.04,172.81,0.02,259.22c0.02,29.24,17.79,48.2,45.95,48.25
			c106.68,0.18,213.36,0.16,320.04-0.12c7-0.02,14.61-1.53,20.88-4.54c18.27-8.76,25.23-24.41,25.21-44.28
			c-0.16-127.19-0.08-254.39-0.08-381.58C746.55,436.73,746.55,434.35,746.55,431.45z M541.15,297.39
			c-70.97,0-141.94,0.03-212.91-0.01c-42.6-0.02-57.4,42.76-41,71.41c9.48,16.55,24.97,22.24,43.39,22.22
			c140.01-0.08,280.02-0.04,420.03-0.05c1.21,0,2.42,0.03,3.62-0.03c34.39-1.59,54.56-31.76,42.98-64.27
			c-6.59-18.49-23.14-29.25-45.37-29.27C681.64,297.37,611.39,297.39,541.15,297.39z M598.84,256.81
			c-4.73-29.35-32.51-49.91-63.77-47.75c-30.6,2.11-52.11,29.55-52.24,47.75C521.35,256.81,559.86,256.81,598.84,256.81z"/>
		<path class="st3" d="M560.71,685.56c0,36.91,0.09,73.82-0.05,110.73c-0.06,15.7-12.51,25.53-26.25,21.06
			c-7.86-2.56-12.21-8.26-13.74-16.21c-0.32-1.64-0.3-3.36-0.3-5.05c-0.01-73.82-0.04-147.64,0.01-221.47
			c0.01-12.55,7.28-21.33,18.08-22.34c12.56-1.18,22.12,8.02,22.2,21.82c0.14,24.12,0.04,48.25,0.04,72.37
			C560.71,659.5,560.71,672.53,560.71,685.56z"/>
		<path class="st3" d="M412.83,684.77c0.01-37.14-0.09-74.29,0.06-111.43c0.05-13.39,9.61-22.25,22.04-21.06
			c8.6,0.83,15.89,7.4,17.36,15.94c0.49,2.83,0.6,5.76,0.6,8.64c0.03,72.36,0.05,144.72-0.05,217.08c-0.01,4.03-0.38,8.3-1.72,12.04
			c-3.02,8.43-12.26,13.57-20.78,12.29c-9.69-1.46-16.66-8.81-17.36-18.45c-0.19-2.64-0.14-5.3-0.14-7.96
			C412.82,756.17,412.82,720.47,412.83,684.77z"/>
		<path class="st3" d="M668.2,685.75c0,37.14,0.11,74.29-0.05,111.43c-0.06,15.1-12.76,24.72-26.19,20.11
			c-7.42-2.55-12.1-7.79-13.26-15.68c-0.49-3.32-0.51-6.73-0.51-10.1c-0.03-70.91-0.02-141.82-0.01-212.72c0-2.65,0-5.32,0.26-7.95
			c1.15-11.5,9.73-19.11,20.85-18.61c10.62,0.48,18.77,8.69,18.82,19.92c0.17,37.87,0.07,75.73,0.07,113.6
			C668.18,685.75,668.19,685.75,668.2,685.75z"/>
	</g>
</g>
</svg>
