<?xml version="1.0" encoding="utf-8"?>
<!-- Generator: Adobe Illustrator 23.0.1, SVG Export Plug-In . SVG Version: 6.00 Build 0)  -->
<svg version="1.1" id="Layer_1" xmlns="http://www.w3.org/2000/svg" xmlns:xlink="http://www.w3.org/1999/xlink" x="0px" y="0px"
	 viewBox="0 0 1080 1080" style="enable-background:new 0 0 1080 1080;" xml:space="preserve">
<style type="text/css">
	.st0{display:none;}
	.st1{display:inline;fill:#0A3637;}
	.st2{display:inline;}
	.st3{fill:#8AB83E;}
	.st4{display:inline;fill:#8AB83E;}
	.st5{display:inline;fill:#F49B03;}
	.st6{display:inline;fill:#DB0000;}
	.st7{display:inline;fill:#14ABC4;}
</style>
<g class="st0">
	<rect x="1187.2" y="381.8" class="st1" width="1079" height="646"/>
	<g class="st2">
		<path class="st3" d="M1783.2,591.6c-0.1,8.4-2.3,15.3-6.6,21.4c-4.7,6.8-9.8,13.4-14.7,20.1c-3.9,5.3-7.8,10.6-11.7,15.9
			c-1.8,2.5-4,2.5-5.8,0c-8.3-11.3-16.6-22.5-24.9-33.8c-4-5.4-6.8-11.4-7.7-18.1c-1.1-7.7,0.3-15,4.1-21.8
			c4.9-8.7,12.2-14.6,21.8-17.3c9.7-2.7,19-1.5,27.7,3.7c9.6,5.8,15.4,14.2,17.2,25.3C1783.1,588.8,1783.1,590.6,1783.2,591.6z
			 M1747.3,643c0.3-0.3,0.5-0.6,0.7-0.8c3.2-4.4,6.4-8.7,9.6-13.1c4.6-6.3,9.3-12.5,13.8-18.9c3.6-5.1,5.7-10.7,5.8-17
			c0.2-9.3-3.3-17.2-10.3-23.3c-6.5-5.7-14.2-8.2-22.9-7.2c-7.9,0.9-14.5,4.4-19.6,10.5c-4.1,4.8-6.4,10.5-7,16.8
			c-0.6,7.3,1.4,14,5.6,19.9c5.9,8.4,12.1,16.6,18.2,24.9C1743.3,637.6,1745.3,640.3,1747.3,643z"/>
		<g>
			<path class="st3" d="M1743.7,606.5v-10.2h-10.2c-1.2,0-2.2-0.3-2.9-1s-1.1-1.5-1.1-2.6c0-1,0.4-1.9,1.1-2.6s1.7-1,2.9-1h10.2
				v-10.2c0-1.2,0.3-2.2,1-3c0.7-0.7,1.5-1.1,2.6-1.1c1,0,1.9,0.4,2.6,1.1s1,1.7,1,2.9V589h10.2c1.2,0,2.2,0.3,2.9,1
				c0.7,0.7,1.1,1.5,1.1,2.6c0,1.1-0.4,1.9-1.1,2.6s-1.7,1-2.9,1H1751v10.2c0,1.2-0.3,2.2-1,2.9s-1.6,1.1-2.6,1.1
				c-1.1,0-1.9-0.4-2.6-1.1S1743.7,607.6,1743.7,606.5z"/>
		</g>
	</g>
	<rect x="1509.2" y="-18.2" class="st1" width="75" height="58"/>
	<rect x="1509.2" y="47.8" class="st4" width="75" height="58"/>
	<rect x="1509.2" y="113.8" class="st5" width="75" height="58"/>
	<rect x="1509.2" y="190.8" class="st6" width="75" height="58"/>
	<rect x="1509.2" y="258.8" class="st7" width="75" height="58"/>
	<text transform="matrix(1 0 0 1 1601.7996 27.8)" class="st2" style="font-family:'ArialMT'; font-size:45px;">#0a3637</text>
	<text transform="matrix(1 0 0 1 1601.7996 85.8)" class="st2" style="font-family:'ArialMT'; font-size:45px;">#8ab83e</text>
	<text transform="matrix(1 0 0 1 1601.7996 154.8)" class="st2" style="font-family:'ArialMT'; font-size:45px;">#f49b03</text>
	<text transform="matrix(1 0 0 1 1601.7996 229.8)" class="st2" style="font-family:'ArialMT'; font-size:45px;">#db0000</text>
	<text transform="matrix(1 0 0 1 1601.7996 296.8)" class="st2" style="font-family:'ArialMT'; font-size:45px;">#14abc4</text>
</g>
<g>
	<g>
		<g>
			<path class="st3" d="M103.7,496.7c7.3-6.2,14.7-12.3,21.8-18.6c58.8-51.8,117.6-103.5,176.5-155.4
				c71.7-63.2,143.4-126.4,215.2-189.6c11-9.7,22-19.3,33.3-29.2c11.1,10,22.2,20,33.3,30c61.2,55.4,122.4,110.9,183.6,166.4
				c49.4,44.8,98.8,89.6,148.2,134.3c21.3,19.3,42.7,38.6,64,57.9c0.9,0.8,2.1,1.4,3.1,2.1c0,0.3,0,0.6,0,1
				c-14.5,20.3-34.8,26.7-59.8,18.7c-19.8-6.4-35.7-18.6-51-32.4c-58-52.4-116.4-104.5-174.6-156.7
				c-47.5-42.5-94.9-85.1-142.3-127.7c-1.4-1.3-2.9-2.5-4.6-4c-11.9,10.1-23.7,20.1-35.5,30c-64.6,54.6-129.1,109.2-193.7,163.8
				c-42.8,36.2-85.6,72.5-128.4,108.7c-11.1,9.4-22.9,17.7-37.2,21.7c-19.6,5.5-37.9-0.9-49.8-17.5c-0.7-0.9-1.3-1.8-2-2.7
				C103.7,497.4,103.7,497,103.7,496.7z"/>
			<path class="st3" d="M547.7,250.8c15.5,13.8,30.9,27.5,46.3,41.2c56.4,50.1,112.8,100.3,169.1,150.4c29.2,25.9,58.3,51.9,87.3,78
				c1.6,1.4,2.8,4.1,2.8,6.1c0.1,110,0.1,220,0.1,330.1c0,13.8-7.2,25.3-24.9,25.2c-70-0.3-140-0.1-210-0.1c-1.6,0-3.2,0-5.3,0
				c0-2.4,0-4.3,0-6.2c0.1-57.6-0.1-115.2,0.3-172.8c0.1-18.7-9.9-31.6-31.1-31.9c-31.2-0.4-62.4-0.3-93.6,0
				c-16.2,0.1-25.7,10.9-25.7,28c0,60.3,0,120.7,0,181c0,0.6-0.1,1.3-0.3,2.7c-2,0-4.1,0-6.1,0c-71.1,0-142.3,0-213.4,0
				c-12.8,0-19.2-5.8-20.3-18.5c-0.1-1.5-0.1-2.9-0.1-4.4c0-110.3,0-220.7-0.1-331c0-4.2,1.3-6.8,4.4-9.5
				c59.8-49.9,119.5-100,179.1-150c41.4-34.7,82.7-69.4,124-104.1C536.3,260.2,541.9,255.6,547.7,250.8z"/>
			<path class="st3" d="M792.3,193.1c29.1,0,57.5,0,86.3,0c0,59,0,117.8,0,177.2c-1.2-0.8-2.3-1.4-3.2-2.2
				c-26.3-22.3-52.5-44.6-78.9-66.8c-3-2.6-4.1-5.2-4.1-9.1c0.1-31.1,0-62.1-0.1-93.2C792.3,197.1,792.3,195.4,792.3,193.1z"/>
		</g>
	</g>
</g>
</svg>
