<?xml version="1.0" encoding="utf-8"?>
<!-- Generator: Adobe Illustrator 23.0.1, SVG Export Plug-In . SVG Version: 6.00 Build 0)  -->
<svg version="1.1" xmlns="http://www.w3.org/2000/svg" xmlns:xlink="http://www.w3.org/1999/xlink" x="0px" y="0px"
	 viewBox="0 0 1080 1080" style="enable-background:new 0 0 1080 1080;" xml:space="preserve">
<style type="text/css">
	.st0{display:none;}
	.st1{display:inline;fill:#0A3637;}
	.st2{display:inline;}
	.st3{fill:#8AB83E;}
	.st4{display:inline;fill:#8AB83E;}
	.st5{display:inline;fill:#F49B03;}
	.st6{display:inline;fill:#DB0000;}
	.st7{display:inline;fill:#14ABC4;}
	.st8{fill:#FFFFFF;}
</style>
<g id="Layer_1" class="st0">
	<rect x="1187.2" y="381.8" class="st1" width="1079" height="646"/>
	<g class="st2">
		<path class="st3" d="M1783.2,591.6c-0.05,8.38-2.35,15.26-6.58,21.39c-4.72,6.82-9.76,13.43-14.67,20.12
			c-3.89,5.3-7.79,10.59-11.69,15.88c-1.82,2.47-3.98,2.46-5.8-0.01c-8.29-11.26-16.58-22.5-24.86-33.77
			c-3.99-5.43-6.79-11.39-7.72-18.12c-1.07-7.72,0.3-15.04,4.11-21.81c4.89-8.7,12.16-14.59,21.81-17.27
			c9.71-2.7,19.04-1.52,27.71,3.68c9.59,5.76,15.37,14.24,17.24,25.3C1783.05,588.78,1783.11,590.62,1783.2,591.6z M1747.34,643.02
			c0.26-0.32,0.47-0.57,0.66-0.84c3.21-4.36,6.42-8.71,9.63-13.07c4.62-6.29,9.32-12.52,13.82-18.89
			c3.57-5.06,5.74-10.72,5.85-16.98c0.17-9.34-3.32-17.18-10.34-23.32c-6.53-5.7-14.24-8.15-22.86-7.2
			c-7.89,0.87-14.46,4.44-19.61,10.5c-4.11,4.84-6.45,10.47-6.98,16.82c-0.61,7.33,1.45,13.99,5.61,19.9
			c5.93,8.41,12.13,16.63,18.22,24.93C1743.32,637.56,1745.3,640.25,1747.34,643.02z"/>
		<g>
			<path class="st3" d="M1743.74,606.46v-10.2h-10.2c-1.24,0-2.22-0.33-2.95-0.99c-0.73-0.66-1.1-1.54-1.1-2.63
				c0-1.04,0.38-1.9,1.14-2.59c0.76-0.69,1.73-1.03,2.91-1.03h10.2v-10.16c0-1.24,0.33-2.22,0.99-2.95c0.66-0.73,1.54-1.1,2.63-1.1
				c1.04,0,1.9,0.38,2.59,1.14c0.69,0.76,1.03,1.73,1.03,2.91v10.16h10.2c1.21,0,2.19,0.34,2.93,1.01c0.74,0.67,1.12,1.55,1.12,2.61
				c0,1.07-0.38,1.94-1.14,2.61c-0.76,0.67-1.73,1.01-2.91,1.01h-10.2v10.2c0,1.21-0.34,2.19-1.01,2.93
				c-0.67,0.74-1.55,1.12-2.61,1.12c-1.07,0-1.94-0.38-2.61-1.14S1743.74,607.64,1743.74,606.46z"/>
		</g>
	</g>
	<rect x="1509.2" y="-18.2" class="st1" width="75" height="58"/>
	<rect x="1509.2" y="47.8" class="st4" width="75" height="58"/>
	<rect x="1509.2" y="113.8" class="st5" width="75" height="58"/>
	<rect x="1509.2" y="190.8" class="st6" width="75" height="58"/>
	<rect x="1509.2" y="258.8" class="st7" width="75" height="58"/>
	<text transform="matrix(1 0 0 1 1601.7996 27.8)" class="st2" style="font-family:'MyriadPro-Regular'; font-size:45px;">#0a3637</text>
	<text transform="matrix(1 0 0 1 1601.7996 85.8)" class="st2" style="font-family:'MyriadPro-Regular'; font-size:45px;">#8ab83e</text>
	<text transform="matrix(1 0 0 1 1601.7996 154.8)" class="st2" style="font-family:'MyriadPro-Regular'; font-size:45px;">#f49b03</text>
	<text transform="matrix(1 0 0 1 1601.7996 229.8)" class="st2" style="font-family:'MyriadPro-Regular'; font-size:45px;">#db0000</text>
	<text transform="matrix(1 0 0 1 1601.7996 296.8)" class="st2" style="font-family:'MyriadPro-Regular'; font-size:45px;">#14abc4</text>
</g>
<g id="Layer_2">
	<g>
		<g>
			<path class="st8" d="M103.72,496.69c7.29-6.18,14.67-12.25,21.84-18.56c58.84-51.76,117.65-103.55,176.45-155.36
				c71.73-63.2,143.44-126.42,215.16-189.62c10.97-9.67,21.99-19.27,33.29-29.17c11.13,10.04,22.21,20,33.26,30.01
				c61.22,55.45,122.44,110.9,183.64,166.37c49.4,44.77,98.76,89.56,148.16,134.33c21.32,19.33,42.68,38.62,64.04,57.9
				c0.93,0.84,2.07,1.44,3.11,2.15c0,0.33,0,0.65,0,0.98c-14.45,20.3-34.83,26.69-59.78,18.69c-19.81-6.35-35.72-18.64-50.97-32.41
				c-58.04-52.42-116.41-104.49-174.64-156.71c-47.46-42.55-94.89-85.13-142.34-127.69c-1.44-1.29-2.92-2.53-4.62-4
				c-11.93,10.09-23.7,20.06-35.47,30.01C450.3,278.21,385.74,332.79,321.2,387.39c-42.83,36.23-85.63,72.49-128.45,108.73
				c-11.12,9.41-22.91,17.71-37.18,21.72c-19.64,5.52-37.92-0.9-49.82-17.45c-0.66-0.92-1.35-1.81-2.03-2.72
				C103.72,497.35,103.72,497.02,103.72,496.69z"/>
			<path class="st8" d="M547.74,250.8c15.51,13.79,30.94,27.5,46.35,41.21c56.38,50.14,112.77,100.27,169.13,150.42
				c29.16,25.94,58.31,51.89,87.34,77.97c1.56,1.4,2.8,4.06,2.81,6.13c0.13,110.02,0.13,220.05,0.1,330.07
				c0,13.81-7.15,25.25-24.92,25.18c-69.98-0.31-139.97-0.13-209.96-0.13c-1.59,0-3.18,0-5.26,0c0-2.37,0-4.27,0-6.17
				c0.07-57.6-0.08-115.2,0.35-172.8c0.14-18.66-9.93-31.58-31.14-31.87c-31.19-0.42-62.4-0.3-93.6-0.03
				c-16.23,0.14-25.7,10.94-25.7,27.96c0.02,60.35-0.02,120.7-0.05,181.04c0,0.64-0.12,1.28-0.26,2.67c-2.05,0-4.09,0-6.13,0
				c-71.12,0-142.25-0.01-213.37,0.01c-12.78,0-19.18-5.79-20.27-18.52c-0.12-1.46-0.05-2.93-0.05-4.39
				c0-110.35,0.03-220.7-0.11-331.05c-0.01-4.21,1.33-6.84,4.45-9.45c59.76-49.94,119.46-99.96,179.14-150
				c41.37-34.68,82.68-69.42,124.04-104.13C536.25,260.23,541.91,255.61,547.74,250.8z"/>
			<path class="st8" d="M792.34,193.15c29.1,0,57.51,0,86.27,0c0,59.03,0,117.83,0,177.16c-1.24-0.84-2.31-1.44-3.23-2.21
				c-26.28-22.29-52.5-44.65-78.86-66.84c-3.05-2.56-4.12-5.19-4.11-9.12c0.11-31.08-0.02-62.15-0.07-93.23
				C792.34,197.14,792.34,195.38,792.34,193.15z"/>
		</g>
	</g>
</g>
</svg>
