<?xml version="1.0" encoding="utf-8"?>
<!-- Generator: Adobe Illustrator 23.0.1, SVG Export Plug-In . SVG Version: 6.00 Build 0)  -->
<svg version="1.1" id="Layer_1" xmlns="http://www.w3.org/2000/svg" xmlns:xlink="http://www.w3.org/1999/xlink" x="0px" y="0px"
	 viewBox="0 0 1080 1080" style="enable-background:new 0 0 1080 1080;" xml:space="preserve">
<style type="text/css">
	.st0{display:none;}
	.st1{display:inline;fill:#0A3637;}
	.st2{display:inline;}
	.st3{fill:#8AB83E;}
	.st4{display:inline;fill:#8AB83E;}
	.st5{display:inline;fill:#F49B03;}
	.st6{display:inline;fill:#DB0000;}
	.st7{display:inline;fill:#14ABC4;}
	.st8{fill:#FFFFFF;}
</style>
<g class="st0">
	<rect x="1187.2" y="381.8" class="st1" width="1079" height="646"/>
	<g class="st2">
		<path class="st3" d="M1783.2,591.6c-0.1,8.4-2.3,15.3-6.6,21.4c-4.7,6.8-9.8,13.4-14.7,20.1c-3.9,5.3-7.8,10.6-11.7,15.9
			c-1.8,2.5-4,2.5-5.8,0c-8.3-11.3-16.6-22.5-24.9-33.8c-4-5.4-6.8-11.4-7.7-18.1c-1.1-7.7,0.3-15,4.1-21.8
			c4.9-8.7,12.2-14.6,21.8-17.3c9.7-2.7,19-1.5,27.7,3.7c9.6,5.8,15.4,14.2,17.2,25.3C1783.1,588.8,1783.1,590.6,1783.2,591.6z
			 M1747.3,643c0.3-0.3,0.5-0.6,0.7-0.8c3.2-4.4,6.4-8.7,9.6-13.1c4.6-6.3,9.3-12.5,13.8-18.9c3.6-5.1,5.7-10.7,5.8-17
			c0.2-9.3-3.3-17.2-10.3-23.3c-6.5-5.7-14.2-8.2-22.9-7.2c-7.9,0.9-14.5,4.4-19.6,10.5c-4.1,4.8-6.4,10.5-7,16.8
			c-0.6,7.3,1.4,14,5.6,19.9c5.9,8.4,12.1,16.6,18.2,24.9C1743.3,637.6,1745.3,640.3,1747.3,643z"/>
		<g>
			<path class="st3" d="M1743.7,606.5v-10.2h-10.2c-1.2,0-2.2-0.3-2.9-1s-1.1-1.5-1.1-2.6c0-1,0.4-1.9,1.1-2.6s1.7-1,2.9-1h10.2
				v-10.2c0-1.2,0.3-2.2,1-3c0.7-0.7,1.5-1.1,2.6-1.1c1,0,1.9,0.4,2.6,1.1s1,1.7,1,2.9V589h10.2c1.2,0,2.2,0.3,2.9,1
				c0.7,0.7,1.1,1.5,1.1,2.6c0,1.1-0.4,1.9-1.1,2.6s-1.7,1-2.9,1H1751v10.2c0,1.2-0.3,2.2-1,2.9s-1.6,1.1-2.6,1.1
				c-1.1,0-1.9-0.4-2.6-1.1S1743.7,607.6,1743.7,606.5z"/>
		</g>
	</g>
	<rect x="1509.2" y="-18.2" class="st1" width="75" height="58"/>
	<rect x="1509.2" y="47.8" class="st4" width="75" height="58"/>
	<rect x="1509.2" y="113.8" class="st5" width="75" height="58"/>
	<rect x="1509.2" y="190.8" class="st6" width="75" height="58"/>
	<rect x="1509.2" y="258.8" class="st7" width="75" height="58"/>
	<g class="st2">
		<g>
			<path class="st3" d="M1705.4,777.2c-0.1-21.5,17.6-39.4,39-39.5c22.6-0.1,39.7,18,39.8,39.1c0.2,22.3-17.8,39.7-39.1,39.8
				C1723.2,816.8,1705.5,799.2,1705.4,777.2z M1723,803.2c4.9-8.4,12-13.2,21.8-13.2c9.8,0,17,4.8,21.9,13.2
				c9.2-7.4,14.7-21.1,10.9-34.9c-4-14.5-17-24.7-32.1-25c-14.9-0.4-28.3,9.2-33,23.5C1707.9,781.2,1713.5,795.4,1723,803.2z
				 M1727.6,806.5c10.3,6.3,24.2,6.3,34.5,0c-2-4.7-7.7-10.7-16.5-11C1737,795.1,1730.3,800.5,1727.6,806.5z"/>
			<path class="st3" d="M1760,773.2c0,8.4-6.8,15.1-15.3,15.1c-8.3,0-15-6.9-15-15.2c0-8.4,6.8-15.1,15.3-15.1
				C1753.3,758,1760,764.9,1760,773.2z M1754.5,773.1c0-5.4-4.3-9.7-9.8-9.7c-5.3,0-9.6,4.4-9.6,9.7c0,5.4,4.3,9.7,9.7,9.7
				C1750.2,782.8,1754.5,778.4,1754.5,773.1z"/>
		</g>
		<text transform="matrix(1 0 0 1 1694.8582 873.7033)" class="st3" style="font-family:'ArialMT'; font-size:42.1053px;">Profili</text>
	</g>
	<g class="st2">
		<g>
			<path class="st8" d="M2110.8,476.3c0.7-0.6,1.4-1.2,2.1-1.8c5.7-5,11.5-10.1,17.2-15.1c7-6.1,14-12.3,20.9-18.5
				c1.1-0.9,2.1-1.9,3.2-2.8c1.1,1,2.2,2,3.2,2.9c6,5.4,11.9,10.8,17.9,16.2c4.8,4.4,9.6,8.7,14.4,13.1c2.1,1.9,4.2,3.8,6.2,5.6
				c0.1,0.1,0.2,0.1,0.3,0.2c0,0,0,0.1,0,0.1c-1.4,2-3.4,2.6-5.8,1.8c-1.9-0.6-3.5-1.8-5-3.2c-5.6-5.1-11.3-10.2-17-15.3
				c-4.6-4.1-9.2-8.3-13.9-12.4c-0.1-0.1-0.3-0.3-0.4-0.4c-1.2,1-2.3,2-3.4,2.9c-6.3,5.3-12.6,10.6-18.9,16
				c-4.2,3.5-8.3,7.1-12.5,10.6c-1.1,0.9-2.2,1.7-3.6,2.1c-1.9,0.5-3.7-0.1-4.9-1.7C2110.9,476.5,2110.8,476.5,2110.8,476.3
				C2110.8,476.4,2110.8,476.3,2110.8,476.3z"/>
			<path class="st8" d="M2154,452.3c1.5,1.3,3,2.7,4.5,4c5.5,4.9,11,9.8,16.5,14.6c2.8,2.5,5.7,5,8.5,7.6c0.1,0.1,0.3,0.4,0.3,0.6
				c0,10.7,0,21.4,0,32.1c0,1.3-0.7,2.5-2.4,2.4c-6.8,0-13.6,0-20.4,0c-0.1,0-0.3,0-0.5,0c0-0.2,0-0.4,0-0.6c0-5.6,0-11.2,0-16.8
				c0-1.8-1-3.1-3-3.1c-3,0-6.1,0-9.1,0c-1.6,0-2.5,1.1-2.5,2.7c0,5.9,0,11.8,0,17.6c0,0.1,0,0.1,0,0.3c-0.2,0-0.4,0-0.6,0
				c-6.9,0-13.9,0-20.8,0c-1.2,0-1.9-0.6-2-1.8c0-0.1,0-0.3,0-0.4c0-10.8,0-21.5,0-32.2c0-0.4,0.1-0.7,0.4-0.9
				c5.8-4.9,11.6-9.7,17.4-14.6c4-3.4,8.1-6.8,12.1-10.1C2152.9,453.3,2153.4,452.8,2154,452.3z"/>
			<path class="st8" d="M2177.8,446.7c2.8,0,5.6,0,8.4,0c0,5.8,0,11.5,0,17.3c-0.1-0.1-0.2-0.1-0.3-0.2c-2.6-2.2-5.1-4.4-7.7-6.5
				c-0.3-0.3-0.4-0.5-0.4-0.9c0-3,0-6,0-9.1C2177.8,447.1,2177.8,447,2177.8,446.7z"/>
		</g>
		<text transform="matrix(1 0 0 1 2103.655 568.5881)" class="st8" style="font-family:'ArialMT'; font-size:40.4349px;">Home</text>
	</g>
	<g class="st2">
		<g>
			<g>
				<path class="st8" d="M1990.4,477.2c5.9,7,15.1,7.3,20.8-0.2c5.2,6.7,14.1,6.8,19.4,0c1.5,1.8,3.3,3.1,5.4,4
					c2.2,0.9,4.4,1.1,6.8,0.2c0,0.5,0,0.9,0,1.3c0,9,0,17.9,0,26.9c0,4-2.2,6.2-6.2,6.2c-17.3,0-34.6,0-52,0c-3.3,0-5.7-2.3-5.7-5.6
					c-0.1-9.4-0.1-18.7-0.1-28.1c0-0.1,0-0.2,0.1-0.4C1983.8,482.6,1987.6,481.1,1990.4,477.2z M1990.4,513.5c6,0,11.8,0,17.7,0
					c0-9.1,0-18.2,0-27.3c-5.9,0-11.8,0-17.7,0C1990.4,495.3,1990.4,504.3,1990.4,513.5z M2024.5,501.4c1.9,0,3.8,0,5.8,0
					c1.4,0,1.9-0.5,1.9-2c0-3.8,0-7.5,0-11.3c0-1.4-0.5-2-2-2c-3.8,0-7.6,0-11.4,0c-1.3,0-1.9,0.5-1.9,1.8c0,3.9,0,7.8,0,11.6
					c0,1.3,0.5,1.8,1.8,1.8C2020.7,501.4,2022.6,501.4,2024.5,501.4z"/>
				<path class="st8" d="M1993.3,469.3c0.3-1.9,0.7-3.7,1-5.5c0.9-5,1.9-9.9,2.8-14.8c0.1-0.6,0.3-0.9,1-0.9c3.7,0,7.5,0,11.2,0
					c0.1,0,0.3,0,0.5,0.1c0,7,0,14,0,21.1C2004.3,469.3,1998.9,469.3,1993.3,469.3z"/>
				<path class="st8" d="M1994.6,448.1c-0.6,3-1.1,5.9-1.6,8.9c-0.7,3.8-1.4,7.5-2.1,11.3c-0.1,0.6-0.2,1.1-1,1.1
					c-4.8,0-9.7,0-14.5,0c-0.2,0-0.3,0-0.7-0.1c0.2-0.4,0.3-0.8,0.4-1.1c2.1-5.8,4.3-11.5,6.4-17.2c0.8-2,1.8-2.8,3.9-2.8
					C1988.4,448.1,1991.4,448.1,1994.6,448.1z"/>
				<path class="st8" d="M2028.2,469.3c-5.2,0-10.3,0-15.6,0c0-7,0-14,0-21.2c0.9,0,1.7,0,2.6,0c2.8,0,5.5,0,8.3,0
					c0.8,0,1.1,0.2,1.2,1c1.2,6.6,2.4,13.3,3.6,19.9C2028.2,469,2028.2,469.1,2028.2,469.3z"/>
				<path class="st8" d="M2047,469.4c-0.7,0-1.4,0-2.1,0c-4.3,0-8.6,0-12.8,0c-0.8,0-1.1-0.2-1.3-1c-1.2-6.6-2.4-13.2-3.6-19.8
					c0-0.1,0-0.3,0-0.5c2.8,0,5.7-0.1,8.5,0c1.1,0,1.9,0.8,2.3,1.7c3,6.4,5.9,12.7,8.9,19.1C2047,469,2047,469.1,2047,469.4z"/>
				<path class="st8" d="M1992.8,472c5.7,0,11.3,0,16.9,0c0.3,1.9,0.1,3.5-1.4,4.9c-4.4,4.3-11.5,4.1-15.5-0.5
					c-0.3-0.3-0.5-0.9-0.4-1.4C1992.4,474,1992.7,473,1992.8,472z"/>
				<path class="st8" d="M2012.3,472c5.7,0,11,0,16.3,0c1.1,2.3,0.8,3.7-1,5.2c-4.4,3.7-10.9,3.1-14.4-1.4
					C2012.5,474.9,2012.6,473.3,2012.3,472z"/>
				<path class="st8" d="M2031.6,472c5.5,0,10.9,0,16.4,0c0.5,3-3.7,7.2-7.4,7.6C2035.7,480,2031.6,476.5,2031.6,472z"/>
				<path class="st8" d="M1973.7,471.9c5.6,0,11.1,0,16.6,0c0.2,3.7-3.9,7.4-8.2,7.5C1977.8,479.5,1973.8,476,1973.7,471.9z"/>
			</g>
			
				<ellipse transform="matrix(0.1602 -0.9871 0.9871 0.1602 1270.0778 2403.5571)" class="st3" cx="2047.6" cy="455.4" rx="24.9" ry="24.9"/>
			<text transform="matrix(1 0 0 1 2038.5222 467.1281)" style="fill:#0A3637; font-family:'ArialMT'; font-size:36.1605px;">0</text>
		</g>
		<text transform="matrix(1 0 0 1 1953.7351 564.7599)" class="st8" style="font-family:'ArialMT'; font-size:36.1605px;">Shporta</text>
	</g>
	<g class="st2">
		<g>
			<path class="st8" d="M1907.9,856.4c0.3,0.1,0.7,0.2,1,0.3c2.1,0.7,3.4,2.6,3.4,4.8c0,2.5,0,4.9,0,7.4c0,0.1,0,0.3,0,0.4
				c0.2,0,0.3,0,0.4,0c2.2,0,4.3,0,6.5,0c1.1,0,1.7,0.6,1.7,1.7c0,1.4,0,2.8,0,4.3c-9.7,0-19.4,0-29.2,0c0-0.1,0-0.2,0-0.3
				c0-1.3,0-2.7,0-4c0-1,0.6-1.7,1.7-1.7c2.3,0,4.6,0,7,0c0.1,0,0.3,0,0.4,0c0-0.2,0-0.3,0-0.4c0-2.4,0-4.8,0-7.3
				c0-2.7,1.7-4.7,4.3-5.1c0.1,0,0.1,0,0.1-0.1C1906.2,856.4,1907,856.4,1907.9,856.4z M1908.8,864.6c0-1.2-0.9-2.1-2.1-2.1
				c-1.2,0-2.1,0.9-2.1,2.1c0,1.2,0.9,2.1,2.1,2.1C1907.9,866.7,1908.8,865.8,1908.8,864.6z"/>
			<path class="st8" d="M1912.6,927.5c-0.9-0.9-1.7-1.7-2.6-2.6c-1.5-1.5-2.9-3-4.4-4.5c-2.3-2.2-4.9-3.9-7.7-5.4
				c-0.8-0.4-1.7-0.9-2.5-1.3c3.6-2.3,7.1-4.5,10.7-6.8c1.9,3.5,3.8,6.9,5.8,10.4c0.5-1,1-2,1.5-2.9c2.6-5.1,5.6-10,9.2-14.6
				c2.2-2.8,4.7-5.4,7.6-7.5c1.2-0.9,2.5-1.6,3.9-2.2c0.1,0,0.1,0,0.3-0.1c0,0.6-0.1,1.2-0.1,1.8c-0.2,2.5-0.3,5.1-0.1,7.6
				c0.1,0.9,0.2,1.8,0.4,2.7c0.1,0.6,0.4,1.1,0.7,1.7c-0.2,0.1-0.5,0.2-0.8,0.4c-2.1,1.2-4,2.8-5.8,4.4
				c-6.2,5.5-11.4,11.8-15.7,18.8C1912.8,927.3,1912.7,927.4,1912.6,927.5z"/>
			<path class="st8" d="M1899,862.9c0,1.2,0,2.4,0,3.6c-0.2,0-0.3,0-0.4,0c-2.8,0-5.6,0-8.4,0c-0.9,0-1.7,0.2-2.3,0.8
				c-0.6,0.5-0.9,1.2-0.9,2c0,0.1,0,0.2,0,0.3c0,15.8,0,31.6,0,47.4c0,1.8,1.2,3.1,3,3.1c2.8,0,5.7,0,8.5,0c0.2,0,0.4,0.1,0.6,0.2
				c1.5,0.9,2.9,1.9,4.3,3.1c0.1,0.1,0.2,0.1,0.3,0.3c-0.2,0-0.2,0-0.3,0c-5.3,0-10.6,0-15.9,0c-1.2,0-2.3-0.4-3.1-1.3
				c-0.4-0.5-0.7-1.1-0.7-1.7c0-0.2,0-0.3,0-0.5c0-17.9,0-35.8,0-53.7c0-2,1.3-3.4,3.4-3.5c2.2,0,4.3,0,6.5,0c1.7,0,3.4,0,5.1,0
				C1898.7,862.9,1898.9,862.9,1899,862.9z"/>
			<path class="st8" d="M1925.9,891.2c0-0.2,0-0.3,0-0.5c0-7-0.1-14,0-21c0-2.2-1.7-3.2-3.2-3.2c-2.6,0-5.2,0-7.8,0
				c-0.1,0-0.3,0-0.4,0c0-1.2,0-2.4,0-3.6c0.1,0,0.3,0,0.4,0c3.5,0,6.9,0,10.4,0c1,0,1.9,0.2,2.8,0.8c0.8,0.6,1.2,1.4,1.2,2.4
				c0,7.3,0,14.7,0,22c0,0.1,0,0.3-0.1,0.4C1928,889.4,1927,890.3,1925.9,891.2z"/>
			<path class="st8" d="M1919.5,923.6c0.3-0.4,0.6-0.8,0.8-1.1c0.6-0.7,1.2-1.5,1.8-2.2c0.2-0.2,0.4-0.3,0.7-0.3
				c0.6,0,1.2-0.1,1.7-0.4c0.9-0.5,1.5-1.3,1.4-2.4c-0.1-0.7,0.2-1.3,0.7-1.8c0.8-0.7,1.6-1.4,2.3-2.1c0.1,0,0.1-0.1,0.2-0.2
				c0,0.2,0,0.3,0,0.4c0,2.2-0.1,4.4,0,6.6c0.1,2.2-1.7,3.3-3.2,3.4c-1.2,0.1-2.5,0-3.7,0.1C1921.4,923.6,1920.5,923.6,1919.5,923.6
				z"/>
			<path class="st8" d="M1920.5,893.3c0,0.5,0,0.9,0,1.3c-9.3,0-18.6,0-27.8,0c0-0.5,0-0.9,0-1.3
				C1902,893.3,1911.2,893.3,1920.5,893.3z"/>
			<path class="st8" d="M1892.7,890.6c0-0.5,0-0.9,0-1.3c9.3,0,18.5,0,27.8,0c0,0.4,0,0.9,0,1.3
				C1911.2,890.6,1902,890.6,1892.7,890.6z"/>
			<path class="st8" d="M1892.7,898.8c0-0.5,0-0.9,0-1.3c9.3,0,18.5,0,27.8,0c0,0.4,0,0.9,0,1.3
				C1911.2,898.8,1902,898.8,1892.7,898.8z"/>
			<path class="st8" d="M1902.6,882c0,0.5,0,0.9,0,1.3c-3.3,0-6.6,0-9.9,0c0-0.4,0-0.9,0-1.3C1896,882,1899.3,882,1902.6,882z"/>
			<path class="st8" d="M1902.6,885.2c0,0.5,0,0.9,0,1.3c-3.3,0-6.6,0-9.9,0c0-0.4,0-0.9,0-1.3
				C1896,885.2,1899.3,885.2,1902.6,885.2z"/>
		</g>
		<text transform="matrix(1 0 0 1 1849.0701 978.8596)" class="st8" style="font-family:'ArialMT'; font-size:37.9305px;">Porosite</text>
	</g>
	<g class="st2">
		<g>
			<path class="st8" d="M2022.9,770.8c-0.1-21.6,17.7-39.5,39.2-39.6c22.7-0.1,39.8,18.1,40,39.3c0.2,22.4-17.8,39.9-39.3,40
				C2040.8,810.5,2023,792.9,2022.9,770.8z M2040.6,796.9c4.9-8.4,12.1-13.2,21.9-13.2c9.9,0,17,4.8,21.9,13.2
				c9.3-7.4,14.8-21.2,11-35c-4-14.6-17-24.8-32.2-25.1c-14.9-0.4-28.5,9.3-33.1,23.6C2025.4,774.7,2031,789,2040.6,796.9z
				 M2045.2,800.2c10.4,6.3,24.3,6.4,34.6,0c-2-4.7-7.7-10.7-16.5-11.1C2054.6,788.7,2047.9,794.1,2045.2,800.2z"/>
			<path class="st8" d="M2077.8,766.7c0,8.4-6.9,15.2-15.3,15.2c-8.3,0-15.1-6.9-15.1-15.2c0-8.4,6.9-15.2,15.3-15.2
				C2071,751.5,2077.8,758.3,2077.8,766.7z M2072.3,766.7c0-5.4-4.4-9.7-9.8-9.7c-5.3,0-9.6,4.4-9.6,9.7c0,5.4,4.4,9.7,9.8,9.7
				C2067.9,776.4,2072.3,772,2072.3,766.7z"/>
		</g>
		<text transform="matrix(1 0 0 1 2011.8064 867.6232)" class="st8" style="font-family:'ArialMT'; font-size:42.2713px;">Profili</text>
	</g>
	<text transform="matrix(1 0 0 1 1601.7996 27.8)" class="st2" style="font-family:'ArialMT'; font-size:45px;">#0a3637</text>
	<text transform="matrix(1 0 0 1 1601.7996 85.8)" class="st2" style="font-family:'ArialMT'; font-size:45px;">#8ab83e</text>
	<text transform="matrix(1 0 0 1 1601.7996 154.8)" class="st2" style="font-family:'ArialMT'; font-size:45px;">#f49b03</text>
	<text transform="matrix(1 0 0 1 1601.7996 229.8)" class="st2" style="font-family:'ArialMT'; font-size:45px;">#db0000</text>
	<text transform="matrix(1 0 0 1 1601.7996 296.8)" class="st2" style="font-family:'ArialMT'; font-size:45px;">#14abc4</text>
</g>
<g>
	<g>
		<g>
			<path class="st3" d="M526,40c4.4,1.1,8.9,2,13.2,3.4c27.8,9.1,46.5,34.8,46.7,64.2c0.1,33.4,0,66.7,0,100.1c0,1.8,0,3.6,0,6
				c2,0,3.8,0,5.5,0c29.4,0,58.9,0,88.3,0c14.8,0,23.1,8.2,23.2,23c0,19.3,0,38.6,0,58.2c-131.6,0-262.8,0-394.8,0c0-1.5,0-3,0-4.6
				c0-18,0-36,0-54c0-14.1,8.6-22.6,22.6-22.6c31.4,0,62.8,0,94.2,0c1.8,0,3.6,0,6,0c0-2,0-3.8,0-5.5c0-32.7,0-65.4,0-98.1
				c0-36.1,22.5-62.9,58.1-69.3c0.6-0.1,1.2-0.5,1.8-0.7C502.4,40,514.2,40,526,40z M538,151.4c-0.1-15.6-12.6-28-28.1-28
				c-15.5,0-28.1,12.5-28.1,28c0,15.7,12.7,28.3,28.4,28.2C525.8,179.5,538.1,167,538,151.4z"/>
			<path class="st3" d="M589.9,1002c-11.8-11.9-23.2-23.4-34.5-34.9c-20-20.3-39.6-40.9-59.8-60.9c-30.7-30.2-66.7-53-104.4-73.2
				c-11.2-6-22.5-11.9-34.4-18.2c48.2-30.9,95.9-61.5,144.1-92.4c26.2,47,52.1,93.6,78.3,140.7c6.8-13.7,13.1-26.8,19.7-39.7
				c35.6-69.3,75.7-135.9,124.1-197.1c30.1-38.1,63-73.4,102.7-101.9c16.4-11.8,33.6-21.9,52.5-29.4c0.9-0.4,1.8-0.6,3.4-1.1
				c-0.5,8.3-0.9,16-1.5,23.8c-2.3,34.3-4.2,68.6-1.6,102.9c0.9,12.2,2.9,24.3,5.7,36.2c1.8,7.6,6,14.6,9.4,22.3
				c-2.6,1.4-6.5,3.3-10.2,5.5c-28.7,16.6-54.4,37.3-79.2,59.2c-83.6,74-154.2,158.9-211.9,254.5C591.6,999.2,591,1000.2,589.9,1002
				z"/>
			<path class="st3" d="M405.9,128.1c0,16.4,0,32.1,0,48.4c-2.1,0-4,0-5.8,0c-37.8,0-75.6,0-113.3,0c-11.8,0-22.7,3-31.8,10.8
				c-8.1,6.9-12.7,15.6-12.7,26.5c0,1.5,0,2.9,0,4.4c0,213.6,0,427.2,0,640.7c0,24.5,16.2,41.4,40.9,41.6
				c38.4,0.3,76.9,0.1,115.3,0.3c2.7,0,5.8,0.9,8.2,2.3c20.4,12.5,39.8,26.3,57.8,42.1c1.1,1,2.1,1.9,3.9,3.6
				c-2,0.2-3.1,0.5-4.2,0.5c-71.6,0-143.3,0-214.9,0c-16.2,0-30.6-4.9-41.7-17.3c-5.9-6.7-9.3-14.5-9.5-23.6c0-2.1,0-4.2,0-6.4
				c0-242.2,0-484.4,0-726.6c0-27.1,18.2-46.5,45.6-47.1c29.3-0.6,58.5-0.3,87.8-0.3c22.9,0,45.8,0,68.7,0
				C401.9,128.1,403.7,128.1,405.9,128.1z"/>
			<path class="st3" d="M769.3,510.1c0-2.4,0-4.3,0-6.2c0-94.5-0.6-189.1,0.4-283.6c0.3-30.2-22.8-43.8-43.8-43.8
				c-35.2,0.1-70.3,0-105.5,0c-1.9,0-3.8,0-6,0c0-16.3,0-32,0-48.4c1.9,0,3.6,0,5.4,0c46.9,0,93.9,0.1,140.8,0
				c13.7,0,26.3,2.7,37.2,11.3c10.4,8.2,15.8,18.7,15.8,32.2c-0.1,99.1,0,198.2-0.1,297.3c0,1.9-0.6,4.5-1.9,5.6
				C797.9,486.3,783.9,497.9,769.3,510.1z"/>
			<path class="st3" d="M682.7,949.4c4.2-5.5,7.5-10.1,11.1-14.5c7.9-10,16.1-19.8,23.8-29.9c2.4-3.2,5-4.5,9-4.4
				c8.3,0.3,16.2-1.8,23.4-6c12.5-7.4,20.1-18.1,19.1-32.9c-0.7-10,2.1-17.3,9.9-23.6c10.9-8.9,21-18.7,31.5-28
				c0.7-0.6,1.5-1.1,3.1-2.2c0,2.5,0,4.2,0,5.9c0,29.6-0.8,59.2,0.2,88.7c1,29.2-22.9,44.8-42.5,46.1c-16.8,1.1-33.6,0.7-50.5,0.8
				C708.5,949.5,696.3,949.4,682.7,949.4z"/>
			<path class="st3" d="M696.5,539.3c0,6.3,0,12.1,0,18.3c-125.5,0-250.9,0-376.6,0c0-6.1,0-12,0-18.3
				C445.4,539.3,570.8,539.3,696.5,539.3z"/>
			<path class="st3" d="M319.8,502.1c0-6,0-11.9,0-18.1c125.4,0,250.8,0,376.5,0c0,5.8,0,11.7,0,18.1
				C571,502.1,445.6,502.1,319.8,502.1z"/>
			<path class="st3" d="M319.8,612.8c0-6,0-11.9,0-18c125.4,0,250.8,0,376.5,0c0,5.8,0,11.7,0,18C571,612.8,445.5,612.8,319.8,612.8
				z"/>
			<path class="st3" d="M453.4,386.7c0,6.1,0,11.9,0,18.1c-44.4,0-88.8,0-133.5,0c0-6,0-11.9,0-18.1
				C364.5,386.7,408.8,386.7,453.4,386.7z"/>
			<path class="st3" d="M453.4,429.7c0,6.1,0,11.9,0,18.1c-44.4,0-88.8,0-133.5,0c0-6,0-11.9,0-18.1
				C364.5,429.7,408.8,429.7,453.4,429.7z"/>
		</g>
	</g>
</g>
</svg>
