<?xml version="1.0" encoding="utf-8"?>
<!-- Generator: Adobe Illustrator 23.0.1, SVG Export Plug-In . SVG Version: 6.00 Build 0)  -->
<svg version="1.1" xmlns="http://www.w3.org/2000/svg" xmlns:xlink="http://www.w3.org/1999/xlink" x="0px" y="0px"
	 viewBox="0 0 1080 1080" style="enable-background:new 0 0 1080 1080;" xml:space="preserve">
<style type="text/css">
	.st0{display:none;}
	.st1{display:inline;fill:#0A3637;}
	.st2{display:inline;}
	.st3{fill:#8AB83E;}
	.st4{display:inline;fill:#8AB83E;}
	.st5{display:inline;fill:#F49B03;}
	.st6{display:inline;fill:#DB0000;}
	.st7{display:inline;fill:#14ABC4;}
	.st8{fill:#FFFFFF;}
</style>
<g id="Layer_1" class="st0">
	<rect x="1187.2" y="381.8" class="st1" width="1079" height="646"/>
	<g class="st2">
		<path class="st3" d="M1783.2,591.6c-0.05,8.38-2.35,15.26-6.58,21.39c-4.72,6.82-9.76,13.43-14.67,20.12
			c-3.89,5.3-7.79,10.59-11.69,15.88c-1.82,2.47-3.98,2.46-5.8-0.01c-8.29-11.26-16.58-22.5-24.86-33.77
			c-3.99-5.43-6.79-11.39-7.72-18.12c-1.07-7.72,0.3-15.04,4.11-21.81c4.89-8.7,12.16-14.59,21.81-17.27
			c9.71-2.7,19.04-1.52,27.71,3.68c9.59,5.76,15.37,14.24,17.24,25.3C1783.05,588.78,1783.11,590.62,1783.2,591.6z M1747.34,643.02
			c0.26-0.32,0.47-0.57,0.66-0.84c3.21-4.36,6.42-8.71,9.63-13.07c4.62-6.29,9.32-12.52,13.82-18.89
			c3.57-5.06,5.74-10.72,5.85-16.98c0.17-9.34-3.32-17.18-10.34-23.32c-6.53-5.7-14.24-8.15-22.86-7.2
			c-7.89,0.87-14.46,4.44-19.61,10.5c-4.11,4.84-6.45,10.47-6.98,16.82c-0.61,7.33,1.45,13.99,5.61,19.9
			c5.93,8.41,12.13,16.63,18.22,24.93C1743.32,637.56,1745.3,640.25,1747.34,643.02z"/>
		<g>
			<path class="st3" d="M1743.74,606.46v-10.2h-10.2c-1.24,0-2.22-0.33-2.95-0.99c-0.73-0.66-1.1-1.54-1.1-2.63
				c0-1.04,0.38-1.9,1.14-2.59c0.76-0.69,1.73-1.03,2.91-1.03h10.2v-10.16c0-1.24,0.33-2.22,0.99-2.95c0.66-0.73,1.54-1.1,2.63-1.1
				c1.04,0,1.9,0.38,2.59,1.14c0.69,0.76,1.03,1.73,1.03,2.91v10.16h10.2c1.21,0,2.19,0.34,2.93,1.01c0.74,0.67,1.12,1.55,1.12,2.61
				c0,1.07-0.38,1.94-1.14,2.61c-0.76,0.67-1.73,1.01-2.91,1.01h-10.2v10.2c0,1.21-0.34,2.19-1.01,2.93
				c-0.67,0.74-1.55,1.12-2.61,1.12c-1.07,0-1.94-0.38-2.61-1.14S1743.74,607.64,1743.74,606.46z"/>
		</g>
	</g>
	<rect x="1509.2" y="-18.2" class="st1" width="75" height="58"/>
	<rect x="1509.2" y="47.8" class="st4" width="75" height="58"/>
	<rect x="1509.2" y="113.8" class="st5" width="75" height="58"/>
	<rect x="1509.2" y="190.8" class="st6" width="75" height="58"/>
	<rect x="1509.2" y="258.8" class="st7" width="75" height="58"/>
	<g class="st2">
		<g>
			<path class="st3" d="M1705.42,777.23c-0.09-21.51,17.6-39.38,39.04-39.46c22.58-0.09,39.67,18.05,39.83,39.11
				c0.17,22.3-17.76,39.71-39.12,39.84C1723.18,816.85,1705.51,799.24,1705.42,777.23z M1723.02,803.22
				c4.89-8.4,12.04-13.17,21.83-13.18c9.81-0.01,16.97,4.78,21.86,13.16c9.21-7.41,14.71-21.07,10.92-34.91
				c-3.98-14.54-16.96-24.66-32.1-25.03c-14.86-0.36-28.35,9.21-32.97,23.48C1707.89,781.17,1713.47,795.38,1723.02,803.22z
				 M1727.63,806.5c10.35,6.33,24.17,6.33,34.46-0.01c-1.97-4.7-7.68-10.66-16.46-11.01C1737,795.13,1730.28,800.49,1727.63,806.5z"
				/>
			<path class="st3" d="M1760.02,773.17c-0.02,8.39-6.84,15.14-15.28,15.11c-8.26-0.02-15.03-6.87-15.01-15.18
				c0.02-8.4,6.83-15.13,15.28-15.11C1753.26,758.01,1760.03,764.86,1760.02,773.17z M1754.54,773.12
				c-0.01-5.36-4.35-9.66-9.75-9.66c-5.25,0-9.59,4.37-9.59,9.67c0,5.37,4.33,9.69,9.72,9.69
				C1750.21,782.82,1754.54,778.44,1754.54,773.12z"/>
		</g>
		
			<text transform="matrix(1 0 0 1 1694.8582 873.7033)" class="st3" style="font-family:'MyriadPro-Regular'; font-size:42.1053px;">Profili</text>
	</g>
	<g class="st2">
		<g>
			<path class="st8" d="M2110.76,476.29c0.71-0.6,1.43-1.19,2.13-1.81c5.73-5.04,11.46-10.08,17.18-15.13
				c6.99-6.15,13.97-12.31,20.95-18.47c1.07-0.94,2.14-1.88,3.24-2.84c1.08,0.98,2.16,1.95,3.24,2.92
				c5.96,5.4,11.92,10.8,17.88,16.2c4.81,4.36,9.62,8.72,14.43,13.08c2.08,1.88,4.16,3.76,6.24,5.64c0.09,0.08,0.2,0.14,0.3,0.21
				c0,0.03,0,0.06,0,0.1c-1.41,1.98-3.39,2.6-5.82,1.82c-1.93-0.62-3.48-1.82-4.96-3.16c-5.65-5.11-11.34-10.18-17.01-15.26
				c-4.62-4.14-9.24-8.29-13.86-12.44c-0.14-0.13-0.28-0.25-0.45-0.39c-1.16,0.98-2.31,1.95-3.45,2.92
				c-6.29,5.32-12.57,10.63-18.86,15.95c-4.17,3.53-8.34,7.06-12.51,10.59c-1.08,0.92-2.23,1.72-3.62,2.11
				c-1.91,0.54-3.69-0.09-4.85-1.7c-0.06-0.09-0.13-0.18-0.2-0.26C2110.76,476.35,2110.76,476.32,2110.76,476.29z"/>
			<path class="st8" d="M2154,452.34c1.51,1.34,3.01,2.68,4.51,4.01c5.49,4.88,10.98,9.76,16.47,14.65
				c2.84,2.53,5.68,5.05,8.51,7.59c0.15,0.14,0.27,0.4,0.27,0.6c0.01,10.72,0.01,21.43,0.01,32.15c0,1.34-0.7,2.46-2.43,2.45
				c-6.82-0.03-13.63-0.01-20.45-0.01c-0.15,0-0.31,0-0.51,0c0-0.23,0-0.42,0-0.6c0.01-5.61-0.01-11.22,0.03-16.83
				c0.01-1.82-0.97-3.08-3.03-3.1c-3.04-0.04-6.08-0.03-9.11,0c-1.58,0.01-2.5,1.07-2.5,2.72c0,5.88,0,11.75,0,17.63
				c0,0.06-0.01,0.12-0.02,0.26c-0.2,0-0.4,0-0.6,0c-6.93,0-13.85,0-20.78,0c-1.24,0-1.87-0.56-1.97-1.8
				c-0.01-0.14-0.01-0.29-0.01-0.43c0-10.75,0-21.49-0.01-32.24c0-0.41,0.13-0.67,0.43-0.92c5.82-4.86,11.63-9.74,17.45-14.61
				c4.03-3.38,8.05-6.76,12.08-10.14C2152.88,453.26,2153.43,452.81,2154,452.34z"/>
			<path class="st8" d="M2177.82,446.73c2.83,0,5.6,0,8.4,0c0,5.75,0,11.48,0,17.25c-0.12-0.08-0.23-0.14-0.31-0.22
				c-2.56-2.17-5.11-4.35-7.68-6.51c-0.3-0.25-0.4-0.51-0.4-0.89c0.01-3.03,0-6.05-0.01-9.08
				C2177.82,447.12,2177.82,446.95,2177.82,446.73z"/>
		</g>
		<text transform="matrix(1 0 0 1 2103.655 568.5881)" class="st8" style="font-family:'MyriadPro-Regular'; font-size:40.4349px;">Home</text>
	</g>
	<g class="st2">
		<g>
			<g>
				<path class="st8" d="M1990.45,477.24c5.86,6.99,15.05,7.3,20.81-0.17c5.17,6.72,14.06,6.84,19.44,0.03
					c1.48,1.8,3.28,3.15,5.43,4.04c2.19,0.91,4.41,1.09,6.82,0.24c0,0.54,0,0.93,0,1.32c0,8.97,0.01,17.94,0.01,26.91
					c0,4.03-2.16,6.19-6.17,6.19c-17.32,0.01-34.64,0.01-51.96,0.01c-3.28,0-5.71-2.31-5.73-5.57c-0.06-9.37-0.05-18.74-0.07-28.11
					c0-0.1,0.03-0.21,0.07-0.42C1983.77,482.6,1987.57,481.12,1990.45,477.24z M1990.39,513.46c5.97,0,11.83,0,17.7,0
					c0-9.15,0-18.21,0-27.3c-5.92,0-11.78,0-17.7,0C1990.39,495.28,1990.39,504.34,1990.39,513.46z M2024.49,501.36
					c1.92,0,3.84,0.01,5.76,0c1.44-0.01,1.94-0.51,1.95-1.98c0.01-3.77,0.01-7.54,0-11.31c0-1.44-0.53-1.98-1.96-1.98
					c-3.81-0.01-7.61-0.01-11.42,0c-1.32,0-1.88,0.55-1.88,1.83c-0.01,3.88-0.01,7.76,0,11.64c0,1.26,0.53,1.78,1.79,1.8
					C2020.65,501.37,2022.57,501.36,2024.49,501.36z"/>
				<path class="st8" d="M1993.33,469.31c0.34-1.89,0.66-3.69,1-5.5c0.93-4.95,1.87-9.89,2.78-14.84c0.11-0.61,0.3-0.86,0.96-0.86
					c3.74,0.02,7.47,0,11.21,0c0.14,0,0.28,0.03,0.49,0.06c0,7.04,0,14.05,0,21.14C2004.31,469.31,1998.89,469.31,1993.33,469.31z"
					/>
				<path class="st8" d="M1994.55,448.14c-0.56,3.03-1.1,5.94-1.64,8.86c-0.7,3.78-1.41,7.55-2.12,11.33
					c-0.11,0.58-0.16,1.08-1.01,1.07c-4.83-0.04-9.66-0.02-14.48-0.02c-0.18,0-0.35-0.05-0.66-0.09c0.15-0.42,0.26-0.79,0.4-1.15
					c2.13-5.75,4.25-11.49,6.38-17.23c0.75-2.03,1.78-2.76,3.91-2.76C1988.36,448.14,1991.41,448.14,1994.55,448.14z"/>
				<path class="st8" d="M2028.22,469.3c-5.18,0-10.34,0-15.59,0c0-7.02,0-14.04,0-21.23c0.86,0,1.71,0,2.57,0
					c2.76-0.01,5.51,0.01,8.27-0.05c0.77-0.02,1.05,0.2,1.18,0.99c1.16,6.64,2.38,13.26,3.57,19.89
					C2028.24,469,2028.22,469.11,2028.22,469.3z"/>
				<path class="st8" d="M2047,469.38c-0.73,0-1.42,0-2.1,0c-4.28,0-8.56-0.02-12.84,0.02c-0.8,0.01-1.1-0.2-1.25-1.04
					c-1.15-6.6-2.36-13.19-3.55-19.79c-0.02-0.14,0-0.28,0-0.49c2.84,0,5.66-0.06,8.47,0.03c1.06,0.03,1.9,0.75,2.35,1.73
					c2.97,6.37,5.92,12.74,8.88,19.12C2046.99,469.02,2046.98,469.1,2047,469.38z"/>
				<path class="st8" d="M1992.83,471.96c5.7,0,11.28,0,16.91,0c0.26,1.89,0.11,3.47-1.41,4.94c-4.45,4.28-11.47,4.13-15.53-0.51
					c-0.29-0.33-0.46-0.9-0.43-1.35C1992.43,474.04,1992.66,473.04,1992.83,471.96z"/>
				<path class="st8" d="M2012.29,471.95c5.73,0,11.02,0,16.3,0c1.09,2.3,0.81,3.66-1.04,5.23c-4.37,3.7-10.95,3.13-14.4-1.43
					C2012.46,474.85,2012.57,473.34,2012.29,471.95z"/>
				<path class="st8" d="M2031.59,471.98c5.47,0,10.94,0,16.4,0c0.52,2.98-3.66,7.24-7.4,7.56
					C2035.69,479.96,2031.6,476.55,2031.59,471.98z"/>
				<path class="st8" d="M1973.66,471.93c5.55,0,11.09,0,16.63,0c0.15,3.69-3.91,7.38-8.19,7.49
					C1977.83,479.53,1973.77,475.95,1973.66,471.93z"/>
			</g>
			<circle class="st3" cx="2047.56" cy="455.38" r="24.86"/>
			
				<text transform="matrix(1 0 0 1 2038.5222 467.1281)" style="fill:#0A3637; font-family:'MyriadPro-Regular'; font-size:36.1605px;">0</text>
		</g>
		
			<text transform="matrix(1 0 0 1 1953.7351 564.7599)" class="st8" style="font-family:'MyriadPro-Regular'; font-size:36.1605px;">Shporta</text>
	</g>
	<g class="st2">
		<g>
			<path class="st8" d="M1907.91,856.4c0.32,0.08,0.66,0.15,0.97,0.25c2.06,0.67,3.44,2.57,3.45,4.75c0.01,2.47,0,4.93,0,7.4
				c0,0.13,0,0.26,0,0.44c0.15,0,0.28,0,0.41,0c2.18,0,4.35,0,6.53,0c1.09,0,1.71,0.61,1.71,1.7c0,1.43,0,2.85,0,4.3
				c-9.73,0-19.43,0-29.19,0c0-0.11,0-0.22,0-0.34c0-1.33,0-2.66,0-3.99c0-1.04,0.63-1.67,1.67-1.67c2.32,0,4.64,0,6.96,0
				c0.13,0,0.26,0,0.44,0c0-0.15,0-0.28,0-0.41c0-2.42,0-4.84,0-7.25c0-2.67,1.66-4.65,4.29-5.13c0.05-0.01,0.09-0.04,0.13-0.06
				C1906.17,856.4,1907.04,856.4,1907.91,856.4z M1908.8,864.64c-0.01-1.15-0.93-2.07-2.08-2.07c-1.15,0-2.08,0.92-2.08,2.07
				c0,1.16,0.94,2.09,2.1,2.09C1907.9,866.72,1908.81,865.79,1908.8,864.64z"/>
			<path class="st8" d="M1912.64,927.52c-0.87-0.88-1.72-1.73-2.55-2.58c-1.47-1.5-2.92-3.02-4.42-4.5
				c-2.27-2.23-4.93-3.92-7.72-5.41c-0.83-0.44-1.66-0.88-2.54-1.35c3.56-2.29,7.09-4.55,10.65-6.83c1.93,3.48,3.85,6.92,5.79,10.4
				c0.5-1.02,0.97-1.98,1.46-2.93c2.63-5.13,5.6-10.04,9.18-14.57c2.23-2.81,4.66-5.43,7.59-7.54c1.21-0.87,2.49-1.62,3.88-2.17
				c0.07-0.03,0.13-0.04,0.25-0.08c-0.04,0.61-0.07,1.18-0.11,1.76c-0.17,2.53-0.31,5.07-0.11,7.61c0.07,0.9,0.22,1.8,0.42,2.68
				c0.13,0.56,0.45,1.08,0.69,1.65c-0.19,0.1-0.48,0.24-0.75,0.4c-2.13,1.23-4.03,2.76-5.85,4.38c-6.18,5.47-11.4,11.75-15.67,18.82
				C1912.77,927.31,1912.72,927.39,1912.64,927.52z"/>
			<path class="st8" d="M1899.04,862.91c0,1.22,0,2.37,0,3.58c-0.15,0-0.29,0-0.43,0c-2.79,0-5.59,0-8.38,0
				c-0.87,0-1.68,0.22-2.35,0.79c-0.6,0.51-0.94,1.15-0.94,1.96c0,0.11,0,0.22,0,0.33c0,15.79,0,31.58,0,47.37
				c0,1.81,1.2,3.06,3.02,3.08c2.84,0.03,5.68,0.01,8.52,0.02c0.2,0,0.43,0.07,0.6,0.17c1.51,0.92,2.95,1.94,4.27,3.11
				c0.08,0.07,0.16,0.14,0.29,0.26c-0.15,0.02-0.23,0.04-0.31,0.04c-5.3,0-10.59,0-15.89,0c-1.2,0-2.26-0.36-3.08-1.28
				c-0.44-0.49-0.69-1.07-0.7-1.74c0-0.16,0-0.31,0-0.47c0-17.91,0-35.81,0-53.72c0-2.01,1.35-3.43,3.37-3.48
				c2.16-0.05,4.33-0.02,6.49-0.02c1.69,0,3.39,0,5.08,0C1898.74,862.91,1898.87,862.91,1899.04,862.91z"/>
			<path class="st8" d="M1925.91,891.15c0-0.18,0-0.32,0-0.46c0-6.99-0.05-13.98,0.03-20.97c0.02-2.23-1.69-3.24-3.24-3.24
				c-2.6,0.01-5.2,0-7.8,0c-0.14,0-0.28,0-0.45,0c0-1.2,0-2.37,0-3.58c0.14,0,0.27,0,0.4,0c3.47,0,6.94,0.01,10.41,0
				c1.01,0,1.95,0.2,2.75,0.84c0.77,0.6,1.17,1.38,1.17,2.38c-0.01,7.33,0,14.65-0.01,21.98c0,0.14-0.04,0.33-0.14,0.41
				C1928.01,889.39,1926.98,890.25,1925.91,891.15z"/>
			<path class="st8" d="M1919.5,923.63c0.31-0.41,0.56-0.75,0.82-1.07c0.59-0.74,1.19-1.46,1.76-2.21c0.18-0.23,0.37-0.33,0.67-0.32
				c0.62,0.02,1.2-0.13,1.73-0.44c0.92-0.54,1.49-1.33,1.41-2.43c-0.05-0.74,0.16-1.28,0.73-1.75c0.8-0.66,1.55-1.38,2.33-2.07
				c0.05-0.05,0.11-0.08,0.23-0.16c0,0.19,0,0.31,0,0.44c0,2.19-0.06,4.38,0.02,6.56c0.07,2.16-1.69,3.31-3.15,3.41
				c-1.24,0.08-2.49,0.05-3.73,0.06C1921.41,923.64,1920.51,923.63,1919.5,923.63z"/>
			<path class="st8" d="M1920.52,893.32c0,0.46,0,0.9,0,1.35c-9.28,0-18.55,0-27.84,0c0-0.45,0-0.89,0-1.35
				C1901.96,893.32,1911.22,893.32,1920.52,893.32z"/>
			<path class="st8" d="M1892.67,890.56c0-0.45,0-0.88,0-1.33c9.27,0,18.54,0,27.83,0c0,0.43,0,0.87,0,1.33
				C1911.24,890.56,1901.97,890.56,1892.67,890.56z"/>
			<path class="st8" d="M1892.67,898.75c0-0.45,0-0.88,0-1.33c9.27,0,18.54,0,27.84,0c0,0.43,0,0.87,0,1.33
				C1911.24,898.75,1901.96,898.75,1892.67,898.75z"/>
			<path class="st8" d="M1902.55,882.03c0,0.45,0,0.88,0,1.34c-3.29,0-6.57,0-9.87,0c0-0.44,0-0.88,0-1.34
				C1895.97,882.03,1899.25,882.03,1902.55,882.03z"/>
			<path class="st8" d="M1902.55,885.21c0,0.45,0,0.88,0,1.34c-3.28,0-6.56,0-9.87,0c0-0.44,0-0.88,0-1.34
				C1895.97,885.21,1899.25,885.21,1902.55,885.21z"/>
		</g>
		
			<text transform="matrix(1 0 0 1 1849.0701 978.8596)" class="st8" style="font-family:'MyriadPro-Regular'; font-size:37.9305px;">Porosite</text>
	</g>
	<g class="st2">
		<g>
			<path class="st8" d="M2022.95,770.77c-0.09-21.6,17.67-39.54,39.2-39.62c22.67-0.09,39.83,18.12,39.99,39.26
				c0.17,22.39-17.83,39.87-39.28,40C2040.78,810.55,2023.04,792.87,2022.95,770.77z M2040.61,796.86
				c4.91-8.43,12.09-13.22,21.91-13.23c9.85-0.01,17.04,4.8,21.95,13.21c9.25-7.44,14.77-21.16,10.97-35.04
				c-3.99-14.6-17.03-24.76-32.22-25.13c-14.92-0.36-28.46,9.25-33.1,23.58C2025.43,774.72,2031.03,788.99,2040.61,796.86z
				 M2045.24,800.15c10.39,6.35,24.26,6.36,34.6-0.01c-1.98-4.72-7.71-10.7-16.53-11.06
				C2054.65,788.74,2047.91,794.12,2045.24,800.15z"/>
			<path class="st8" d="M2077.76,766.7c-0.02,8.43-6.86,15.2-15.34,15.17c-8.29-0.02-15.09-6.89-15.07-15.24
				c0.02-8.43,6.86-15.19,15.34-15.17C2070.97,751.48,2077.77,758.35,2077.76,766.7z M2072.25,766.65c-0.01-5.38-4.36-9.7-9.79-9.7
				c-5.27,0-9.62,4.39-9.63,9.71c0,5.39,4.35,9.72,9.76,9.72C2067.91,776.38,2072.26,771.99,2072.25,766.65z"/>
		</g>
		
			<text transform="matrix(1 0 0 1 2011.8064 867.6232)" class="st8" style="font-family:'MyriadPro-Regular'; font-size:42.2713px;">Profili</text>
	</g>
	<text transform="matrix(1 0 0 1 1601.7996 27.8)" class="st2" style="font-family:'MyriadPro-Regular'; font-size:45px;">#0a3637</text>
	<text transform="matrix(1 0 0 1 1601.7996 85.8)" class="st2" style="font-family:'MyriadPro-Regular'; font-size:45px;">#8ab83e</text>
	<text transform="matrix(1 0 0 1 1601.7996 154.8)" class="st2" style="font-family:'MyriadPro-Regular'; font-size:45px;">#f49b03</text>
	<text transform="matrix(1 0 0 1 1601.7996 229.8)" class="st2" style="font-family:'MyriadPro-Regular'; font-size:45px;">#db0000</text>
	<text transform="matrix(1 0 0 1 1601.7996 296.8)" class="st2" style="font-family:'MyriadPro-Regular'; font-size:45px;">#14abc4</text>
</g>
<g id="Layer_2">
	<g>
		<g>
			<path class="st3" d="M528.88,215.41c2.72,0.7,5.49,1.26,8.15,2.13c17.21,5.65,28.81,21.54,28.88,39.74
				c0.08,20.65,0.02,41.31,0.02,61.96c0,1.1,0,2.2,0,3.69c1.26,0,2.33,0,3.4,0c18.22,0,36.45-0.01,54.67,0
				c9.17,0,14.32,5.1,14.34,14.24c0.03,11.93,0.01,23.87,0.01,36.01c-81.45,0-162.69,0-244.41,0c0-0.9,0-1.86,0-2.82
				c0-11.14-0.02-22.27,0.01-33.41c0.02-8.71,5.3-14,13.99-14.01c19.44-0.02,38.88-0.01,58.32-0.01c1.1,0,2.2,0,3.7,0
				c0-1.26,0-2.33,0-3.4c0-20.25-0.01-40.5,0-60.75c0.01-22.34,13.91-38.91,35.96-42.92c0.38-0.07,0.73-0.3,1.09-0.46
				C514.3,215.41,521.59,215.41,528.88,215.41z M536.34,284.39c-0.04-9.63-7.77-17.34-17.38-17.33
				c-9.62,0.01-17.39,7.74-17.41,17.32c-0.02,9.73,7.84,17.54,17.57,17.47C528.75,301.78,536.39,294.04,536.34,284.39z"/>
			<path class="st3" d="M568.43,810.92c-7.31-7.39-14.36-14.49-21.38-21.63c-12.35-12.56-24.49-25.32-37.04-37.67
				c-19-18.68-41.28-32.8-64.64-45.31c-6.94-3.72-13.91-7.37-21.29-11.28c29.84-19.14,59.39-38.1,89.19-57.22
				c16.19,29.1,32.23,57.93,48.45,87.09c4.22-8.51,8.1-16.59,12.19-24.56c22.03-42.92,46.85-84.1,76.85-122
				c18.66-23.57,39.03-45.46,63.59-63.09c10.13-7.28,20.83-13.58,32.47-18.17c0.55-0.22,1.12-0.38,2.12-0.71
				c-0.31,5.11-0.57,9.91-0.9,14.71c-1.45,21.22-2.59,42.45-0.96,63.69c0.58,7.53,1.8,15.07,3.55,22.41
				c1.12,4.69,3.73,9.03,5.8,13.82c-1.62,0.86-4.01,2.05-6.31,3.38c-17.79,10.27-33.7,23.1-49.02,36.65
				c-51.78,45.8-95.46,98.38-131.19,157.55C569.52,809.19,569.14,809.78,568.43,810.92z"/>
			<path class="st3" d="M454.57,269.94c0,10.17,0,19.86,0,29.99c-1.28,0-2.45,0-3.61,0c-23.39,0-46.77,0-70.16,0
				c-7.32,0-14.03,1.84-19.68,6.66c-5.02,4.28-7.89,9.67-7.87,16.4c0,0.91-0.01,1.82-0.01,2.73c0,132.22,0,264.43,0,396.65
				c0,15.15,10.05,25.62,25.31,25.76c23.79,0.21,47.58,0.05,71.37,0.16c1.7,0.01,3.6,0.56,5.05,1.45
				c12.62,7.73,24.66,16.26,35.76,26.08c0.67,0.59,1.33,1.2,2.44,2.21c-1.21,0.15-1.92,0.31-2.63,0.31
				c-44.34,0.01-88.68,0.03-133.03-0.01c-10.03-0.01-18.94-3.01-25.79-10.72c-3.68-4.14-5.77-8.99-5.85-14.61
				c-0.02-1.32-0.03-2.63-0.03-3.95c0-149.93,0-299.86,0-449.8c0-16.8,11.27-28.76,28.24-29.13c18.11-0.4,36.24-0.17,54.36-0.19
				c14.17-0.02,28.35,0,42.52,0C452.07,269.94,453.17,269.94,454.57,269.94z"/>
			<path class="st3" d="M679.53,506.41c0-1.49,0-2.66,0-3.84c0-58.52-0.38-117.04,0.22-175.55c0.19-18.71-14.11-27.13-27.12-27.1
				c-21.77,0.05-43.53,0.01-65.3,0.01c-1.19,0-2.38,0-3.74,0c0-10.07,0-19.83,0-29.99c1.17,0,2.25,0,3.32,0
				c29.06,0,58.11,0.05,87.17-0.03c8.45-0.02,16.29,1.68,23.03,7.01c6.41,5.06,9.81,11.59,9.8,19.91
				c-0.04,61.35-0.02,122.7-0.07,184.06c0,1.17-0.35,2.76-1.15,3.45C697.2,491.65,688.56,498.83,679.53,506.41z"/>
			<path class="st3" d="M625.91,778.35c2.59-3.41,4.67-6.24,6.85-8.99c4.91-6.18,9.94-12.26,14.76-18.5
				c1.51-1.95,3.11-2.79,5.59-2.7c5.16,0.18,10.05-1.11,14.5-3.72c7.72-4.55,12.46-11.18,11.8-20.35c-0.44-6.2,1.3-10.68,6.14-14.62
				c6.73-5.49,13-11.55,19.47-17.36c0.42-0.38,0.93-0.68,1.89-1.37c0,1.56,0,2.62,0,3.68c0,18.31-0.49,36.64,0.14,54.93
				c0.62,18.05-14.16,27.71-26.34,28.52c-10.38,0.69-20.82,0.41-31.24,0.49C641.89,778.4,634.32,778.35,625.91,778.35z"/>
			<path class="st3" d="M634.46,524.51c0,3.89,0,7.51,0,11.33c-77.71,0-155.3,0-233.12,0c0-3.77,0-7.45,0-11.33
				C479,524.51,556.6,524.51,634.46,524.51z"/>
			<path class="st3" d="M401.27,501.43c0-3.73,0-7.34,0-11.18c77.63,0,155.23,0,233.07,0c0,3.57,0,7.25,0,11.18
				C556.74,501.43,479.09,501.43,401.27,501.43z"/>
			<path class="st3" d="M401.25,570c0-3.73,0-7.34,0-11.17c77.64,0,155.25,0,233.09,0c0,3.58,0,7.26,0,11.17
				C556.74,570,479.07,570,401.25,570z"/>
			<path class="st3" d="M483.97,430.02c0,3.77,0,7.38,0,11.22c-27.51,0-54.98,0-82.66,0c0-3.7,0-7.38,0-11.22
				C428.88,430.02,456.35,430.02,483.97,430.02z"/>
			<path class="st3" d="M483.96,456.64c0,3.78,0,7.39,0,11.23c-27.5,0-54.96,0-82.64,0c0-3.7,0-7.37,0-11.23
				C428.88,456.64,456.34,456.64,483.96,456.64z"/>
		</g>
	</g>
</g>
</svg>
