<?xml version="1.0" encoding="utf-8"?>
<!-- Generator: Adobe Illustrator 23.0.1, SVG Export Plug-In . SVG Version: 6.00 Build 0)  -->
<svg version="1.1" xmlns="http://www.w3.org/2000/svg" xmlns:xlink="http://www.w3.org/1999/xlink" x="0px" y="0px"
	 viewBox="0 0 1080 1080" style="enable-background:new 0 0 1080 1080;" xml:space="preserve">
<style type="text/css">
	.st0{display:none;}
	.st1{display:inline;fill:#0A3637;}
	.st2{display:inline;}
	.st3{fill:#8AB83E;}
	.st4{display:inline;fill:#8AB83E;}
	.st5{display:inline;fill:#F49B03;}
	.st6{display:inline;fill:#DB0000;}
	.st7{display:inline;fill:#14ABC4;}
	.st8{fill:#FFFFFF;}
</style>
<g id="Layer_1" class="st0">
	<rect x="1187.2" y="381.8" class="st1" width="1079" height="646"/>
	<g class="st2">
		<path class="st3" d="M1783.2,591.6c-0.05,8.38-2.35,15.26-6.58,21.39c-4.72,6.82-9.76,13.43-14.67,20.12
			c-3.89,5.3-7.79,10.59-11.69,15.88c-1.82,2.47-3.98,2.46-5.8-0.01c-8.29-11.26-16.58-22.5-24.86-33.77
			c-3.99-5.43-6.79-11.39-7.72-18.12c-1.07-7.72,0.3-15.04,4.11-21.81c4.89-8.7,12.16-14.59,21.81-17.27
			c9.71-2.7,19.04-1.52,27.71,3.68c9.59,5.76,15.37,14.24,17.24,25.3C1783.05,588.78,1783.11,590.62,1783.2,591.6z M1747.34,643.02
			c0.26-0.32,0.47-0.57,0.66-0.84c3.21-4.36,6.42-8.71,9.63-13.07c4.62-6.29,9.32-12.52,13.82-18.89
			c3.57-5.06,5.74-10.72,5.85-16.98c0.17-9.34-3.32-17.18-10.34-23.32c-6.53-5.7-14.24-8.15-22.86-7.2
			c-7.89,0.87-14.46,4.44-19.61,10.5c-4.11,4.84-6.45,10.47-6.98,16.82c-0.61,7.33,1.45,13.99,5.61,19.9
			c5.93,8.41,12.13,16.63,18.22,24.93C1743.32,637.56,1745.3,640.25,1747.34,643.02z"/>
		<g>
			<path class="st3" d="M1743.74,606.46v-10.2h-10.2c-1.24,0-2.22-0.33-2.95-0.99c-0.73-0.66-1.1-1.54-1.1-2.63
				c0-1.04,0.38-1.9,1.14-2.59c0.76-0.69,1.73-1.03,2.91-1.03h10.2v-10.16c0-1.24,0.33-2.22,0.99-2.95c0.66-0.73,1.54-1.1,2.63-1.1
				c1.04,0,1.9,0.38,2.59,1.14c0.69,0.76,1.03,1.73,1.03,2.91v10.16h10.2c1.21,0,2.19,0.34,2.93,1.01c0.74,0.67,1.12,1.55,1.12,2.61
				c0,1.07-0.38,1.94-1.14,2.61c-0.76,0.67-1.73,1.01-2.91,1.01h-10.2v10.2c0,1.21-0.34,2.19-1.01,2.93
				c-0.67,0.74-1.55,1.12-2.61,1.12c-1.07,0-1.94-0.38-2.61-1.14S1743.74,607.64,1743.74,606.46z"/>
		</g>
	</g>
	<rect x="1509.2" y="-18.2" class="st1" width="75" height="58"/>
	<rect x="1509.2" y="47.8" class="st4" width="75" height="58"/>
	<rect x="1509.2" y="113.8" class="st5" width="75" height="58"/>
	<rect x="1509.2" y="190.8" class="st6" width="75" height="58"/>
	<rect x="1509.2" y="258.8" class="st7" width="75" height="58"/>
	<g class="st2">
		<g>
			<path class="st8" d="M2110.76,476.29c0.71-0.6,1.43-1.19,2.13-1.81c5.73-5.04,11.46-10.08,17.18-15.13
				c6.99-6.15,13.97-12.31,20.95-18.47c1.07-0.94,2.14-1.88,3.24-2.84c1.08,0.98,2.16,1.95,3.24,2.92
				c5.96,5.4,11.92,10.8,17.88,16.2c4.81,4.36,9.62,8.72,14.43,13.08c2.08,1.88,4.16,3.76,6.24,5.64c0.09,0.08,0.2,0.14,0.3,0.21
				c0,0.03,0,0.06,0,0.1c-1.41,1.98-3.39,2.6-5.82,1.82c-1.93-0.62-3.48-1.82-4.96-3.16c-5.65-5.11-11.34-10.18-17.01-15.26
				c-4.62-4.14-9.24-8.29-13.86-12.44c-0.14-0.13-0.28-0.25-0.45-0.39c-1.16,0.98-2.31,1.95-3.45,2.92
				c-6.29,5.32-12.57,10.63-18.86,15.95c-4.17,3.53-8.34,7.06-12.51,10.59c-1.08,0.92-2.23,1.72-3.62,2.11
				c-1.91,0.54-3.69-0.09-4.85-1.7c-0.06-0.09-0.13-0.18-0.2-0.26C2110.76,476.35,2110.76,476.32,2110.76,476.29z"/>
			<path class="st8" d="M2154,452.34c1.51,1.34,3.01,2.68,4.51,4.01c5.49,4.88,10.98,9.76,16.47,14.65
				c2.84,2.53,5.68,5.05,8.51,7.59c0.15,0.14,0.27,0.4,0.27,0.6c0.01,10.72,0.01,21.43,0.01,32.15c0,1.34-0.7,2.46-2.43,2.45
				c-6.82-0.03-13.63-0.01-20.45-0.01c-0.15,0-0.31,0-0.51,0c0-0.23,0-0.42,0-0.6c0.01-5.61-0.01-11.22,0.03-16.83
				c0.01-1.82-0.97-3.08-3.03-3.1c-3.04-0.04-6.08-0.03-9.11,0c-1.58,0.01-2.5,1.07-2.5,2.72c0,5.88,0,11.75,0,17.63
				c0,0.06-0.01,0.12-0.02,0.26c-0.2,0-0.4,0-0.6,0c-6.93,0-13.85,0-20.78,0c-1.24,0-1.87-0.56-1.97-1.8
				c-0.01-0.14-0.01-0.29-0.01-0.43c0-10.75,0-21.49-0.01-32.24c0-0.41,0.13-0.67,0.43-0.92c5.82-4.86,11.63-9.74,17.45-14.61
				c4.03-3.38,8.05-6.76,12.08-10.14C2152.88,453.26,2153.43,452.81,2154,452.34z"/>
			<path class="st8" d="M2177.82,446.73c2.83,0,5.6,0,8.4,0c0,5.75,0,11.48,0,17.25c-0.12-0.08-0.23-0.14-0.31-0.22
				c-2.56-2.17-5.11-4.35-7.68-6.51c-0.3-0.25-0.4-0.51-0.4-0.89c0.01-3.03,0-6.05-0.01-9.08
				C2177.82,447.12,2177.82,446.95,2177.82,446.73z"/>
		</g>
		<text transform="matrix(1 0 0 1 2103.655 568.5881)" class="st8" style="font-family:'MyriadPro-Regular'; font-size:40.4349px;">Home</text>
	</g>
	<g class="st2">
		<g>
			<g>
				<path class="st8" d="M1990.45,477.24c5.86,6.99,15.05,7.3,20.81-0.17c5.17,6.72,14.06,6.84,19.44,0.03
					c1.48,1.8,3.28,3.15,5.43,4.04c2.19,0.91,4.41,1.09,6.82,0.24c0,0.54,0,0.93,0,1.32c0,8.97,0.01,17.94,0.01,26.91
					c0,4.03-2.16,6.19-6.17,6.19c-17.32,0.01-34.64,0.01-51.96,0.01c-3.28,0-5.71-2.31-5.73-5.57c-0.06-9.37-0.05-18.74-0.07-28.11
					c0-0.1,0.03-0.21,0.07-0.42C1983.77,482.6,1987.57,481.12,1990.45,477.24z M1990.39,513.46c5.97,0,11.83,0,17.7,0
					c0-9.15,0-18.21,0-27.3c-5.92,0-11.78,0-17.7,0C1990.39,495.28,1990.39,504.34,1990.39,513.46z M2024.49,501.36
					c1.92,0,3.84,0.01,5.76,0c1.44-0.01,1.94-0.51,1.95-1.98c0.01-3.77,0.01-7.54,0-11.31c0-1.44-0.53-1.98-1.96-1.98
					c-3.81-0.01-7.61-0.01-11.42,0c-1.32,0-1.88,0.55-1.88,1.83c-0.01,3.88-0.01,7.76,0,11.64c0,1.26,0.53,1.78,1.79,1.8
					C2020.65,501.37,2022.57,501.36,2024.49,501.36z"/>
				<path class="st8" d="M1993.33,469.31c0.34-1.89,0.66-3.69,1-5.5c0.93-4.95,1.87-9.89,2.78-14.84c0.11-0.61,0.3-0.86,0.96-0.86
					c3.74,0.02,7.47,0,11.21,0c0.14,0,0.28,0.03,0.49,0.06c0,7.04,0,14.05,0,21.14C2004.31,469.31,1998.89,469.31,1993.33,469.31z"
					/>
				<path class="st8" d="M1994.55,448.14c-0.56,3.03-1.1,5.94-1.64,8.86c-0.7,3.78-1.41,7.55-2.12,11.33
					c-0.11,0.58-0.16,1.08-1.01,1.07c-4.83-0.04-9.66-0.02-14.48-0.02c-0.18,0-0.35-0.05-0.66-0.09c0.15-0.42,0.26-0.79,0.4-1.15
					c2.13-5.75,4.25-11.49,6.38-17.23c0.75-2.03,1.78-2.76,3.91-2.76C1988.36,448.14,1991.41,448.14,1994.55,448.14z"/>
				<path class="st8" d="M2028.22,469.3c-5.18,0-10.34,0-15.59,0c0-7.02,0-14.04,0-21.23c0.86,0,1.71,0,2.57,0
					c2.76-0.01,5.51,0.01,8.27-0.05c0.77-0.02,1.05,0.2,1.18,0.99c1.16,6.64,2.38,13.26,3.57,19.89
					C2028.24,469,2028.22,469.11,2028.22,469.3z"/>
				<path class="st8" d="M2047,469.38c-0.73,0-1.42,0-2.1,0c-4.28,0-8.56-0.02-12.84,0.02c-0.8,0.01-1.1-0.2-1.25-1.04
					c-1.15-6.6-2.36-13.19-3.55-19.79c-0.02-0.14,0-0.28,0-0.49c2.84,0,5.66-0.06,8.47,0.03c1.06,0.03,1.9,0.75,2.35,1.73
					c2.97,6.37,5.92,12.74,8.88,19.12C2046.99,469.02,2046.98,469.1,2047,469.38z"/>
				<path class="st8" d="M1992.83,471.96c5.7,0,11.28,0,16.91,0c0.26,1.89,0.11,3.47-1.41,4.94c-4.45,4.28-11.47,4.13-15.53-0.51
					c-0.29-0.33-0.46-0.9-0.43-1.35C1992.43,474.04,1992.66,473.04,1992.83,471.96z"/>
				<path class="st8" d="M2012.29,471.95c5.73,0,11.02,0,16.3,0c1.09,2.3,0.81,3.66-1.04,5.23c-4.37,3.7-10.95,3.13-14.4-1.43
					C2012.46,474.85,2012.57,473.34,2012.29,471.95z"/>
				<path class="st8" d="M2031.59,471.98c5.47,0,10.94,0,16.4,0c0.52,2.98-3.66,7.24-7.4,7.56
					C2035.69,479.96,2031.6,476.55,2031.59,471.98z"/>
				<path class="st8" d="M1973.66,471.93c5.55,0,11.09,0,16.63,0c0.15,3.69-3.91,7.38-8.19,7.49
					C1977.83,479.53,1973.77,475.95,1973.66,471.93z"/>
			</g>
			<circle class="st3" cx="2047.56" cy="455.38" r="24.86"/>
			
				<text transform="matrix(1 0 0 1 2038.5222 467.1281)" style="fill:#0A3637; font-family:'MyriadPro-Regular'; font-size:36.1605px;">0</text>
		</g>
		
			<text transform="matrix(1 0 0 1 1953.7351 564.7599)" class="st8" style="font-family:'MyriadPro-Regular'; font-size:36.1605px;">Shporta</text>
	</g>
	<text transform="matrix(1 0 0 1 1601.7996 27.8)" class="st2" style="font-family:'MyriadPro-Regular'; font-size:45px;">#0a3637</text>
	<text transform="matrix(1 0 0 1 1601.7996 85.8)" class="st2" style="font-family:'MyriadPro-Regular'; font-size:45px;">#8ab83e</text>
	<text transform="matrix(1 0 0 1 1601.7996 154.8)" class="st2" style="font-family:'MyriadPro-Regular'; font-size:45px;">#f49b03</text>
	<text transform="matrix(1 0 0 1 1601.7996 229.8)" class="st2" style="font-family:'MyriadPro-Regular'; font-size:45px;">#db0000</text>
	<text transform="matrix(1 0 0 1 1601.7996 296.8)" class="st2" style="font-family:'MyriadPro-Regular'; font-size:45px;">#14abc4</text>
</g>
<g id="Layer_2">
	<g>
		<g>
			<path class="st8" d="M518.95,64.99c4.29,1.11,8.65,1.98,12.85,3.36c27.12,8.9,45.4,33.95,45.51,62.62
				c0.13,32.55,0.03,65.09,0.03,97.64c0,1.73,0,3.46,0,5.82c1.99,0,3.67,0,5.36,0c28.72,0,57.43-0.01,86.15,0
				c14.45,0.01,22.56,8.04,22.6,22.44c0.04,18.81,0.01,37.61,0.01,56.75c-128.35,0-256.38,0-385.15,0c0-1.42,0-2.94,0-4.45
				c0-17.55-0.03-35.1,0.01-52.65c0.03-13.72,8.36-22.07,22.05-22.08c30.63-0.03,61.26-0.01,91.9-0.01c1.73,0,3.46,0,5.82,0
				c0-1.98,0-3.67,0-5.36c0-31.91-0.01-63.82,0-95.72c0.02-35.21,21.91-61.32,56.67-67.63c0.6-0.11,1.15-0.48,1.72-0.73
				C495.97,64.99,507.46,64.99,518.95,64.99z M530.71,173.68c-0.07-15.18-12.25-27.32-27.4-27.31c-15.16,0.01-27.41,12.2-27.44,27.3
				c-0.03,15.33,12.36,27.64,27.69,27.53C518.75,201.08,530.78,188.89,530.71,173.68z"/>
			<path class="st8" d="M581.27,1003.4c-11.52-11.65-22.63-22.84-33.68-34.08c-19.46-19.79-38.59-39.9-58.38-59.36
				c-29.94-29.43-65.04-51.69-101.86-71.41c-10.94-5.86-21.92-11.62-33.55-17.78c47.02-30.16,93.58-60.04,140.55-90.16
				c25.51,45.86,50.78,91.29,76.35,137.24c6.65-13.41,12.76-26.15,19.21-38.71c34.72-67.64,73.83-132.53,121.11-192.24
				c29.4-37.14,61.5-71.63,100.2-99.42c15.97-11.47,32.82-21.4,51.17-28.63c0.86-0.34,1.76-0.59,3.33-1.12
				c-0.49,8.05-0.9,15.61-1.42,23.18c-2.29,33.43-4.08,66.9-1.52,100.37c0.91,11.86,2.84,23.75,5.59,35.32
				c1.76,7.4,5.87,14.23,9.13,21.78c-2.55,1.36-6.31,3.23-9.94,5.32c-28.04,16.18-53.11,36.4-77.25,57.75
				c-81.6,72.17-150.42,155.02-206.74,248.27C583,1000.67,582.39,1001.6,581.27,1003.4z"/>
			<path class="st8" d="M401.86,150.91c0,16.03,0,31.29,0,47.27c-2.01,0-3.85,0-5.7,0c-36.85,0-73.7,0.01-110.56,0
				c-11.53,0-22.11,2.89-31.02,10.49c-7.91,6.75-12.43,15.24-12.4,25.85c0,1.44-0.01,2.87-0.01,4.31c0,208.35,0,416.7,0,625.04
				c0,23.87,15.84,40.38,39.89,40.59c37.49,0.34,74.98,0.08,112.47,0.25c2.67,0.01,5.68,0.89,7.96,2.29
				c19.88,12.18,38.86,25.63,56.36,41.1c1.06,0.94,2.1,1.9,3.85,3.48c-1.91,0.24-3.03,0.49-4.14,0.49
				c-69.87,0.02-139.75,0.05-209.62-0.01c-15.81-0.01-29.85-4.74-40.65-16.9c-5.8-6.53-9.09-14.17-9.22-23.02
				c-0.03-2.07-0.05-4.15-0.05-6.22c0-236.27,0-472.53,0-708.8c0-26.47,17.75-45.31,44.51-45.9c28.54-0.63,57.11-0.26,85.66-0.3
				c22.33-0.03,44.67-0.01,67-0.01C397.91,150.91,399.65,150.91,401.86,150.91z"/>
			<path class="st8" d="M756.35,523.55c0-2.34,0-4.2,0-6.05c0-92.21-0.6-184.43,0.35-276.64c0.3-29.48-22.24-42.75-42.74-42.71
				c-34.3,0.07-68.6,0.02-102.9,0.02c-1.88,0-3.76,0-5.89,0c0-15.86,0-31.25,0-47.27c1.85,0,3.54,0,5.24,0
				c45.79,0,91.58,0.08,137.36-0.05c13.32-0.04,25.67,2.64,36.3,11.04c10.09,7.98,15.46,18.27,15.45,31.38
				c-0.07,96.68-0.02,193.36-0.11,290.04c0,1.85-0.55,4.35-1.81,5.43C784.19,500.29,770.58,511.61,756.35,523.55z"/>
			<path class="st8" d="M671.85,952.07c4.08-5.37,7.36-9.84,10.8-14.17c7.73-9.74,15.66-19.32,23.25-29.15
				c2.38-3.08,4.9-4.39,8.81-4.26c8.13,0.29,15.84-1.74,22.85-5.87c12.17-7.17,19.63-17.61,18.6-32.07
				c-0.7-9.77,2.05-16.82,9.67-23.04c10.6-8.66,20.48-18.21,30.68-27.36c0.67-0.6,1.46-1.07,2.98-2.16c0,2.45,0,4.12,0,5.8
				c0,28.86-0.78,57.74,0.22,86.56c0.98,28.44-22.31,43.66-41.51,44.94c-16.35,1.09-32.81,0.64-49.22,0.77
				C697.04,952.15,685.11,952.07,671.85,952.07z"/>
			<path class="st8" d="M685.32,552.07c0,6.13,0,11.83,0,17.85c-122.46,0-244.72,0-367.35,0c0-5.93,0-11.73,0-17.85
				C440.36,552.07,562.64,552.07,685.32,552.07z"/>
			<path class="st8" d="M317.86,515.7c0-5.88,0-11.57,0-17.61c122.34,0,244.61,0,367.27,0c0,5.63,0,11.43,0,17.61
				C562.86,515.7,440.49,515.7,317.86,515.7z"/>
			<path class="st8" d="M317.84,623.75c0-5.88,0-11.57,0-17.6c122.35,0,244.64,0,367.31,0c0,5.64,0,11.44,0,17.6
				C562.86,623.75,440.47,623.75,317.84,623.75z"/>
			<path class="st8" d="M448.19,403.18c0,5.95,0,11.63,0,17.68c-43.35,0-86.64,0-130.26,0c0-5.84,0-11.63,0-17.68
				C361.36,403.18,404.66,403.18,448.19,403.18z"/>
			<path class="st8" d="M448.17,445.12c0,5.96,0,11.64,0,17.69c-43.33,0-86.6,0-130.22,0c0-5.83,0-11.61,0-17.69
				C361.37,445.12,404.64,445.12,448.17,445.12z"/>
		</g>
	</g>
</g>
</svg>
