<?xml version="1.0" encoding="utf-8"?>
<!-- Generator: Adobe Illustrator 23.0.1, SVG Export Plug-In . SVG Version: 6.00 Build 0)  -->
<svg version="1.1" xmlns="http://www.w3.org/2000/svg" xmlns:xlink="http://www.w3.org/1999/xlink" x="0px" y="0px"
	 viewBox="0 0 1080 1080" style="enable-background:new 0 0 1080 1080;" xml:space="preserve">
<style type="text/css">
	.st0{display:none;}
	.st1{display:inline;fill:#0A3637;}
	.st2{display:inline;}
	.st3{fill:#8AB83E;}
	.st4{display:inline;fill:#8AB83E;}
	.st5{display:inline;fill:#F49B03;}
	.st6{display:inline;fill:#DB0000;}
	.st7{display:inline;fill:#14ABC4;}
	.st8{fill:#FFFFFF;}
</style>
<g id="Layer_1" class="st0">
	<rect x="1187.2" y="381.8" class="st1" width="1079" height="646"/>
	<g class="st2">
		<path class="st3" d="M1783.2,591.6c-0.05,8.38-2.35,15.26-6.58,21.39c-4.72,6.82-9.76,13.43-14.67,20.12
			c-3.89,5.3-7.79,10.59-11.69,15.88c-1.82,2.47-3.98,2.46-5.8-0.01c-8.29-11.26-16.58-22.5-24.86-33.77
			c-3.99-5.43-6.79-11.39-7.72-18.12c-1.07-7.72,0.3-15.04,4.11-21.81c4.89-8.7,12.16-14.59,21.81-17.27
			c9.71-2.7,19.04-1.52,27.71,3.68c9.59,5.76,15.37,14.24,17.24,25.3C1783.05,588.78,1783.11,590.62,1783.2,591.6z M1747.34,643.02
			c0.26-0.32,0.47-0.57,0.66-0.84c3.21-4.36,6.42-8.71,9.63-13.07c4.62-6.29,9.32-12.52,13.82-18.89
			c3.57-5.06,5.74-10.72,5.85-16.98c0.17-9.34-3.32-17.18-10.34-23.32c-6.53-5.7-14.24-8.15-22.86-7.2
			c-7.89,0.87-14.46,4.44-19.61,10.5c-4.11,4.84-6.45,10.47-6.98,16.82c-0.61,7.33,1.45,13.99,5.61,19.9
			c5.93,8.41,12.13,16.63,18.22,24.93C1743.32,637.56,1745.3,640.25,1747.34,643.02z"/>
		<g>
			<path class="st3" d="M1743.74,606.46v-10.2h-10.2c-1.24,0-2.22-0.33-2.95-0.99c-0.73-0.66-1.1-1.54-1.1-2.63
				c0-1.04,0.38-1.9,1.14-2.59c0.76-0.69,1.73-1.03,2.91-1.03h10.2v-10.16c0-1.24,0.33-2.22,0.99-2.95c0.66-0.73,1.54-1.1,2.63-1.1
				c1.04,0,1.9,0.38,2.59,1.14c0.69,0.76,1.03,1.73,1.03,2.91v10.16h10.2c1.21,0,2.19,0.34,2.93,1.01c0.74,0.67,1.12,1.55,1.12,2.61
				c0,1.07-0.38,1.94-1.14,2.61c-0.76,0.67-1.73,1.01-2.91,1.01h-10.2v10.2c0,1.21-0.34,2.19-1.01,2.93
				c-0.67,0.74-1.55,1.12-2.61,1.12c-1.07,0-1.94-0.38-2.61-1.14S1743.74,607.64,1743.74,606.46z"/>
		</g>
	</g>
	<rect x="1509.2" y="-18.2" class="st1" width="75" height="58"/>
	<rect x="1509.2" y="47.8" class="st4" width="75" height="58"/>
	<rect x="1509.2" y="113.8" class="st5" width="75" height="58"/>
	<rect x="1509.2" y="190.8" class="st6" width="75" height="58"/>
	<rect x="1509.2" y="258.8" class="st7" width="75" height="58"/>
	<g class="st2">
		<g>
			<path class="st8" d="M2110.76,476.29c0.71-0.6,1.43-1.19,2.13-1.81c5.73-5.04,11.46-10.08,17.18-15.13
				c6.99-6.15,13.97-12.31,20.95-18.47c1.07-0.94,2.14-1.88,3.24-2.84c1.08,0.98,2.16,1.95,3.24,2.92
				c5.96,5.4,11.92,10.8,17.88,16.2c4.81,4.36,9.62,8.72,14.43,13.08c2.08,1.88,4.16,3.76,6.24,5.64c0.09,0.08,0.2,0.14,0.3,0.21
				c0,0.03,0,0.06,0,0.1c-1.41,1.98-3.39,2.6-5.82,1.82c-1.93-0.62-3.48-1.82-4.96-3.16c-5.65-5.11-11.34-10.18-17.01-15.26
				c-4.62-4.14-9.24-8.29-13.86-12.44c-0.14-0.13-0.28-0.25-0.45-0.39c-1.16,0.98-2.31,1.95-3.45,2.92
				c-6.29,5.32-12.57,10.63-18.86,15.95c-4.17,3.53-8.34,7.06-12.51,10.59c-1.08,0.92-2.23,1.72-3.62,2.11
				c-1.91,0.54-3.69-0.09-4.85-1.7c-0.06-0.09-0.13-0.18-0.2-0.26C2110.76,476.35,2110.76,476.32,2110.76,476.29z"/>
			<path class="st8" d="M2154,452.34c1.51,1.34,3.01,2.68,4.51,4.01c5.49,4.88,10.98,9.76,16.47,14.65
				c2.84,2.53,5.68,5.05,8.51,7.59c0.15,0.14,0.27,0.4,0.27,0.6c0.01,10.72,0.01,21.43,0.01,32.15c0,1.34-0.7,2.46-2.43,2.45
				c-6.82-0.03-13.63-0.01-20.45-0.01c-0.15,0-0.31,0-0.51,0c0-0.23,0-0.42,0-0.6c0.01-5.61-0.01-11.22,0.03-16.83
				c0.01-1.82-0.97-3.08-3.03-3.1c-3.04-0.04-6.08-0.03-9.11,0c-1.58,0.01-2.5,1.07-2.5,2.72c0,5.88,0,11.75,0,17.63
				c0,0.06-0.01,0.12-0.02,0.26c-0.2,0-0.4,0-0.6,0c-6.93,0-13.85,0-20.78,0c-1.24,0-1.87-0.56-1.97-1.8
				c-0.01-0.14-0.01-0.29-0.01-0.43c0-10.75,0-21.49-0.01-32.24c0-0.41,0.13-0.67,0.43-0.92c5.82-4.86,11.63-9.74,17.45-14.61
				c4.03-3.38,8.05-6.76,12.08-10.14C2152.88,453.26,2153.43,452.81,2154,452.34z"/>
			<path class="st8" d="M2177.82,446.73c2.83,0,5.6,0,8.4,0c0,5.75,0,11.48,0,17.25c-0.12-0.08-0.23-0.14-0.31-0.22
				c-2.56-2.17-5.11-4.35-7.68-6.51c-0.3-0.25-0.4-0.51-0.4-0.89c0.01-3.03,0-6.05-0.01-9.08
				C2177.82,447.12,2177.82,446.95,2177.82,446.73z"/>
		</g>
		<text transform="matrix(1 0 0 1 2103.655 568.5881)" class="st8" style="font-family:'MyriadPro-Regular'; font-size:40.4349px;">Home</text>
	</g>
	<g class="st2">
		<g>
			<g>
				<path class="st8" d="M1990.45,477.24c5.86,6.99,15.05,7.3,20.81-0.17c5.17,6.72,14.06,6.84,19.44,0.03
					c1.48,1.8,3.28,3.15,5.43,4.04c2.19,0.91,4.41,1.09,6.82,0.24c0,0.54,0,0.93,0,1.32c0,8.97,0.01,17.94,0.01,26.91
					c0,4.03-2.16,6.19-6.17,6.19c-17.32,0.01-34.64,0.01-51.96,0.01c-3.28,0-5.71-2.31-5.73-5.57c-0.06-9.37-0.05-18.74-0.07-28.11
					c0-0.1,0.03-0.21,0.07-0.42C1983.77,482.6,1987.57,481.12,1990.45,477.24z M1990.39,513.46c5.97,0,11.83,0,17.7,0
					c0-9.15,0-18.21,0-27.3c-5.92,0-11.78,0-17.7,0C1990.39,495.28,1990.39,504.34,1990.39,513.46z M2024.49,501.36
					c1.92,0,3.84,0.01,5.76,0c1.44-0.01,1.94-0.51,1.95-1.98c0.01-3.77,0.01-7.54,0-11.31c0-1.44-0.53-1.98-1.96-1.98
					c-3.81-0.01-7.61-0.01-11.42,0c-1.32,0-1.88,0.55-1.88,1.83c-0.01,3.88-0.01,7.76,0,11.64c0,1.26,0.53,1.78,1.79,1.8
					C2020.65,501.37,2022.57,501.36,2024.49,501.36z"/>
				<path class="st8" d="M1993.33,469.31c0.34-1.89,0.66-3.69,1-5.5c0.93-4.95,1.87-9.89,2.78-14.84c0.11-0.61,0.3-0.86,0.96-0.86
					c3.74,0.02,7.47,0,11.21,0c0.14,0,0.28,0.03,0.49,0.06c0,7.04,0,14.05,0,21.14C2004.31,469.31,1998.89,469.31,1993.33,469.31z"
					/>
				<path class="st8" d="M1994.55,448.14c-0.56,3.03-1.1,5.94-1.64,8.86c-0.7,3.78-1.41,7.55-2.12,11.33
					c-0.11,0.58-0.16,1.08-1.01,1.07c-4.83-0.04-9.66-0.02-14.48-0.02c-0.18,0-0.35-0.05-0.66-0.09c0.15-0.42,0.26-0.79,0.4-1.15
					c2.13-5.75,4.25-11.49,6.38-17.23c0.75-2.03,1.78-2.76,3.91-2.76C1988.36,448.14,1991.41,448.14,1994.55,448.14z"/>
				<path class="st8" d="M2028.22,469.3c-5.18,0-10.34,0-15.59,0c0-7.02,0-14.04,0-21.23c0.86,0,1.71,0,2.57,0
					c2.76-0.01,5.51,0.01,8.27-0.05c0.77-0.02,1.05,0.2,1.18,0.99c1.16,6.64,2.38,13.26,3.57,19.89
					C2028.24,469,2028.22,469.11,2028.22,469.3z"/>
				<path class="st8" d="M2047,469.38c-0.73,0-1.42,0-2.1,0c-4.28,0-8.56-0.02-12.84,0.02c-0.8,0.01-1.1-0.2-1.25-1.04
					c-1.15-6.6-2.36-13.19-3.55-19.79c-0.02-0.14,0-0.28,0-0.49c2.84,0,5.66-0.06,8.47,0.03c1.06,0.03,1.9,0.75,2.35,1.73
					c2.97,6.37,5.92,12.74,8.88,19.12C2046.99,469.02,2046.98,469.1,2047,469.38z"/>
				<path class="st8" d="M1992.83,471.96c5.7,0,11.28,0,16.91,0c0.26,1.89,0.11,3.47-1.41,4.94c-4.45,4.28-11.47,4.13-15.53-0.51
					c-0.29-0.33-0.46-0.9-0.43-1.35C1992.43,474.04,1992.66,473.04,1992.83,471.96z"/>
				<path class="st8" d="M2012.29,471.95c5.73,0,11.02,0,16.3,0c1.09,2.3,0.81,3.66-1.04,5.23c-4.37,3.7-10.95,3.13-14.4-1.43
					C2012.46,474.85,2012.57,473.34,2012.29,471.95z"/>
				<path class="st8" d="M2031.59,471.98c5.47,0,10.94,0,16.4,0c0.52,2.98-3.66,7.24-7.4,7.56
					C2035.69,479.96,2031.6,476.55,2031.59,471.98z"/>
				<path class="st8" d="M1973.66,471.93c5.55,0,11.09,0,16.63,0c0.15,3.69-3.91,7.38-8.19,7.49
					C1977.83,479.53,1973.77,475.95,1973.66,471.93z"/>
			</g>
			<circle class="st3" cx="2047.56" cy="455.38" r="24.86"/>
			
				<text transform="matrix(1 0 0 1 2038.5222 467.1281)" style="fill:#0A3637; font-family:'MyriadPro-Regular'; font-size:36.1605px;">0</text>
		</g>
		
			<text transform="matrix(1 0 0 1 1953.7351 564.7599)" class="st8" style="font-family:'MyriadPro-Regular'; font-size:36.1605px;">Shporta</text>
	</g>
	<g class="st2">
		<g>
			<path class="st8" d="M1907.91,856.4c0.32,0.08,0.66,0.15,0.97,0.25c2.06,0.67,3.44,2.57,3.45,4.75c0.01,2.47,0,4.93,0,7.4
				c0,0.13,0,0.26,0,0.44c0.15,0,0.28,0,0.41,0c2.18,0,4.35,0,6.53,0c1.09,0,1.71,0.61,1.71,1.7c0,1.43,0,2.85,0,4.3
				c-9.73,0-19.43,0-29.19,0c0-0.11,0-0.22,0-0.34c0-1.33,0-2.66,0-3.99c0-1.04,0.63-1.67,1.67-1.67c2.32,0,4.64,0,6.96,0
				c0.13,0,0.26,0,0.44,0c0-0.15,0-0.28,0-0.41c0-2.42,0-4.84,0-7.25c0-2.67,1.66-4.65,4.29-5.13c0.05-0.01,0.09-0.04,0.13-0.06
				C1906.17,856.4,1907.04,856.4,1907.91,856.4z M1908.8,864.64c-0.01-1.15-0.93-2.07-2.08-2.07c-1.15,0-2.08,0.92-2.08,2.07
				c0,1.16,0.94,2.09,2.1,2.09C1907.9,866.72,1908.81,865.79,1908.8,864.64z"/>
			<path class="st8" d="M1912.64,927.52c-0.87-0.88-1.72-1.73-2.55-2.58c-1.47-1.5-2.92-3.02-4.42-4.5
				c-2.27-2.23-4.93-3.92-7.72-5.41c-0.83-0.44-1.66-0.88-2.54-1.35c3.56-2.29,7.09-4.55,10.65-6.83c1.93,3.48,3.85,6.92,5.79,10.4
				c0.5-1.02,0.97-1.98,1.46-2.93c2.63-5.13,5.6-10.04,9.18-14.57c2.23-2.81,4.66-5.43,7.59-7.54c1.21-0.87,2.49-1.62,3.88-2.17
				c0.07-0.03,0.13-0.04,0.25-0.08c-0.04,0.61-0.07,1.18-0.11,1.76c-0.17,2.53-0.31,5.07-0.11,7.61c0.07,0.9,0.22,1.8,0.42,2.68
				c0.13,0.56,0.45,1.08,0.69,1.65c-0.19,0.1-0.48,0.24-0.75,0.4c-2.13,1.23-4.03,2.76-5.85,4.38c-6.18,5.47-11.4,11.75-15.67,18.82
				C1912.77,927.31,1912.72,927.39,1912.64,927.52z"/>
			<path class="st8" d="M1899.04,862.91c0,1.22,0,2.37,0,3.58c-0.15,0-0.29,0-0.43,0c-2.79,0-5.59,0-8.38,0
				c-0.87,0-1.68,0.22-2.35,0.79c-0.6,0.51-0.94,1.15-0.94,1.96c0,0.11,0,0.22,0,0.33c0,15.79,0,31.58,0,47.37
				c0,1.81,1.2,3.06,3.02,3.08c2.84,0.03,5.68,0.01,8.52,0.02c0.2,0,0.43,0.07,0.6,0.17c1.51,0.92,2.95,1.94,4.27,3.11
				c0.08,0.07,0.16,0.14,0.29,0.26c-0.15,0.02-0.23,0.04-0.31,0.04c-5.3,0-10.59,0-15.89,0c-1.2,0-2.26-0.36-3.08-1.28
				c-0.44-0.49-0.69-1.07-0.7-1.74c0-0.16,0-0.31,0-0.47c0-17.91,0-35.81,0-53.72c0-2.01,1.35-3.43,3.37-3.48
				c2.16-0.05,4.33-0.02,6.49-0.02c1.69,0,3.39,0,5.08,0C1898.74,862.91,1898.87,862.91,1899.04,862.91z"/>
			<path class="st8" d="M1925.91,891.15c0-0.18,0-0.32,0-0.46c0-6.99-0.05-13.98,0.03-20.97c0.02-2.23-1.69-3.24-3.24-3.24
				c-2.6,0.01-5.2,0-7.8,0c-0.14,0-0.28,0-0.45,0c0-1.2,0-2.37,0-3.58c0.14,0,0.27,0,0.4,0c3.47,0,6.94,0.01,10.41,0
				c1.01,0,1.95,0.2,2.75,0.84c0.77,0.6,1.17,1.38,1.17,2.38c-0.01,7.33,0,14.65-0.01,21.98c0,0.14-0.04,0.33-0.14,0.41
				C1928.01,889.39,1926.98,890.25,1925.91,891.15z"/>
			<path class="st8" d="M1919.5,923.63c0.31-0.41,0.56-0.75,0.82-1.07c0.59-0.74,1.19-1.46,1.76-2.21c0.18-0.23,0.37-0.33,0.67-0.32
				c0.62,0.02,1.2-0.13,1.73-0.44c0.92-0.54,1.49-1.33,1.41-2.43c-0.05-0.74,0.16-1.28,0.73-1.75c0.8-0.66,1.55-1.38,2.33-2.07
				c0.05-0.05,0.11-0.08,0.23-0.16c0,0.19,0,0.31,0,0.44c0,2.19-0.06,4.38,0.02,6.56c0.07,2.16-1.69,3.31-3.15,3.41
				c-1.24,0.08-2.49,0.05-3.73,0.06C1921.41,923.64,1920.51,923.63,1919.5,923.63z"/>
			<path class="st8" d="M1920.52,893.32c0,0.46,0,0.9,0,1.35c-9.28,0-18.55,0-27.84,0c0-0.45,0-0.89,0-1.35
				C1901.96,893.32,1911.22,893.32,1920.52,893.32z"/>
			<path class="st8" d="M1892.67,890.56c0-0.45,0-0.88,0-1.33c9.27,0,18.54,0,27.83,0c0,0.43,0,0.87,0,1.33
				C1911.24,890.56,1901.97,890.56,1892.67,890.56z"/>
			<path class="st8" d="M1892.67,898.75c0-0.45,0-0.88,0-1.33c9.27,0,18.54,0,27.84,0c0,0.43,0,0.87,0,1.33
				C1911.24,898.75,1901.96,898.75,1892.67,898.75z"/>
			<path class="st8" d="M1902.55,882.03c0,0.45,0,0.88,0,1.34c-3.29,0-6.57,0-9.87,0c0-0.44,0-0.88,0-1.34
				C1895.97,882.03,1899.25,882.03,1902.55,882.03z"/>
			<path class="st8" d="M1902.55,885.21c0,0.45,0,0.88,0,1.34c-3.28,0-6.56,0-9.87,0c0-0.44,0-0.88,0-1.34
				C1895.97,885.21,1899.25,885.21,1902.55,885.21z"/>
		</g>
		
			<text transform="matrix(1 0 0 1 1849.0701 978.8596)" class="st8" style="font-family:'MyriadPro-Regular'; font-size:37.9305px;">Porosite</text>
	</g>
	<text transform="matrix(1 0 0 1 1601.7996 27.8)" class="st2" style="font-family:'MyriadPro-Regular'; font-size:45px;">#0a3637</text>
	<text transform="matrix(1 0 0 1 1601.7996 85.8)" class="st2" style="font-family:'MyriadPro-Regular'; font-size:45px;">#8ab83e</text>
	<text transform="matrix(1 0 0 1 1601.7996 154.8)" class="st2" style="font-family:'MyriadPro-Regular'; font-size:45px;">#f49b03</text>
	<text transform="matrix(1 0 0 1 1601.7996 229.8)" class="st2" style="font-family:'MyriadPro-Regular'; font-size:45px;">#db0000</text>
	<text transform="matrix(1 0 0 1 1601.7996 296.8)" class="st2" style="font-family:'MyriadPro-Regular'; font-size:45px;">#14abc4</text>
</g>
<g id="Layer_2">
	<g>
		<g>
			<path class="st8" d="M172.29,542.88c-0.79-191.5,156.68-350.6,347.58-351.33c200.99-0.76,353.15,160.67,354.59,348.14
				c1.52,198.51-158.07,353.51-348.3,354.67C330.37,895.56,173.09,738.81,172.29,542.88z M328.92,774.23
				c43.52-74.79,107.17-117.26,194.32-117.31c87.33-0.05,151.08,42.58,194.61,117.13c81.99-65.99,130.93-187.61,97.24-310.75
				c-35.42-129.48-150.98-219.52-285.75-222.8c-132.32-3.22-252.39,81.99-293.52,209.07C194.27,577.91,243.93,704.39,328.92,774.23z
				 M369.95,803.39c92.14,56.34,215.17,56.37,306.78-0.06c-17.51-41.83-68.36-94.89-146.57-98.04
				C453.42,702.19,393.61,749.88,369.95,803.39z"/>
			<path class="st8" d="M658.29,506.73c-0.14,74.71-60.87,134.76-136.06,134.55c-73.54-0.21-133.81-61.14-133.66-135.13
				c0.15-74.76,60.79-134.72,136.07-134.54C598.15,371.78,658.43,432.73,658.29,506.73z M609.5,506.29
				c-0.08-47.75-38.7-86.02-86.79-86.02c-46.75,0.01-85.34,38.93-85.35,86.09c-0.01,47.78,38.58,86.23,86.56,86.23
				C570.99,592.59,609.59,553.66,609.5,506.29z"/>
		</g>
	</g>
</g>
</svg>
