<svg id="Layer_1" data-name="Layer 1" xmlns="http://www.w3.org/2000/svg" xmlns:xlink="http://www.w3.org/1999/xlink" viewBox="0 0 1052.32 455.37"><defs><style>.cls-1,.cls-5{fill:#fff;}.cls-1{fill-rule:evenodd;}.cls-2{fill:url(#linear-gradient);}.cls-3{fill:url(#linear-gradient-2);}.cls-4{fill:url(#linear-gradient-3);}</style><linearGradient id="linear-gradient" x1="578.16" y1="391.05" x2="606.44" y2="391.05" gradientTransform="matrix(1, 0, 0, -1, 0, 1080)" gradientUnits="userSpaceOnUse"><stop offset="0" stop-color="#81ba41"/><stop offset="1" stop-color="#327f3e"/></linearGradient><linearGradient id="linear-gradient-2" x1="663.02" y1="391.05" x2="691.3" y2="391.05" xlink:href="#linear-gradient"/><linearGradient id="linear-gradient-3" x1="486.25" y1="507.71" x2="723.46" y2="507.71" xlink:href="#linear-gradient"/></defs><title>xpertshoplogo</title><path class="cls-1" d="M412.05,526.89a121.37,121.37,0,0,0-18.32-29.1c-26.94-32.32-79.3-40.94-117.44-22-13.15,6.67-10.78,6.25-19.4,13.58-18.53,15.3-34,40.73-34,66.15V739.81h40.08V661.36c46.11,0,85.12,6.9,117.23-19.61,4.74-3.88,8.83-6.25,12.71-11C414.63,603.39,429.08,564.61,412.05,526.89Zm-56,83.4C342,620.42,328.64,623,304.94,623h-42c0-48.27-8.41-88.36,28.66-110.12,14.23-8.19,20.48-6.69,37.07-6.69,22.64,0,49.35,26.73,49.35,49.35C378,577.74,376.06,596.06,356,610.29Z" transform="translate(-14.88 -284.44)"/><path class="cls-1" d="M14.88,659.64l1.72,1.72c34.05.22,62.71-1.94,88.14-28.66,3.45-3.66,5-6.9,8.62-9.7,24.78,37.07,58.62,38.36,96.76,38.36V623c-32.76,0-55.6-4.31-70-30.39-13.36-23.92-8-58.19,14-74.56,15.73-11.85,29.95-13.58,56-13.58V466.11c-33.83,0-53.66-1.08-80,20.47-9.91,8.19-9.7,7.11-16.81,17.89-3.45-2.37-4.74-5.39-7.76-8.62-7.11-7.76-20.26-16.59-29.95-21.33-20.9-9.91-31.89-8.4-60.77-8.4v38.36c40.95,0,76.5,11.85,76.72,58.4C91.81,610.72,57.33,623,14.88,623Z" transform="translate(-14.88 -284.44)"/><path class="cls-1" d="M948.67,573.87c0,14.65,9.48,37.28,17.89,47.63l16.16,16.81c8.62,7.11,6.25,6.9,19.4,13.36,24.57,12.28,37.07,9.7,65.08,9.7V623c-24.35,0-38.79-.65-55.6-11.85-25.64-17.46-22.84-44.82-22.84-68.31h78.44V504.48H988.76V387.68H948.68V573.87Z" transform="translate(-14.88 -284.44)"/><path class="cls-1" d="M820.88,553.83V661.36H861V560.94c0-41.81,35.77-56.46,73-56.46h5.39V466.12c-28.45,0-53-2.37-78.66,18.1-3.88,3-8.62,6.46-12.07,9.7-12.92,12.06-27.79,40.3-27.79,59.91Z" transform="translate(-14.88 -284.44)"/><path class="cls-2" d="M606.44,689a14.14,14.14,0,1,1-28.28,0,14.86,14.86,0,0,1,.22-2.52,14.14,14.14,0,0,1,27.6-1A13.65,13.65,0,0,1,606.44,689Z" transform="translate(-14.88 -284.44)"/><path class="cls-3" d="M691.3,689A14.14,14.14,0,1,1,663,689a13.54,13.54,0,0,1,.46-3.57,14.14,14.14,0,0,1,27.6,1A16.06,16.06,0,0,1,691.3,689Z" transform="translate(-14.88 -284.44)"/><path class="cls-4" d="M679,617.41q-15.15,15.12-35.2,18.19a62.15,62.15,0,0,1-38-5.91L723.43,512.05l-14.64-14.64a109.64,109.64,0,0,0-11.43-10A100.75,100.75,0,0,0,673.6,474a106.08,106.08,0,0,0-79.85,0A100.55,100.55,0,0,0,570,487.44a105.68,105.68,0,0,0-11.43,10c-.21.21-.43.43-.62.64a102.3,102.3,0,0,0-18.66,25.7v-25.7a10.6,10.6,0,0,0-10.61-10.61H491.55a5.31,5.31,0,0,0,0,10.61h31.83a5.28,5.28,0,0,1,5.17,4.09,5.34,5.34,0,0,1,.13,1.21v82a109.09,109.09,0,0,0,4,18.72c.8,2.64,1.7,5.25,2.71,7.88.36.91.72,1.82,1.11,2.73.85,2,1.78,4,2.77,6a102.39,102.39,0,0,0,19.29,26.47,105.64,105.64,0,0,0,29.61,21h0a20.81,20.81,0,0,1,4.13-.41,21.18,21.18,0,0,1,16.32,7.67,108,108,0,0,0,52.82-.7h0a21.07,21.07,0,0,1,18.24-6.8,105.44,105.44,0,0,0,29.1-20.72l14.64-14.66-29.77-29.75Zm-85.76-34.73-.21.21-17,17a61.43,61.43,0,0,1-5.68-17,63.32,63.32,0,0,1-.94-10.61V572a64.08,64.08,0,0,1,3.37-21,58.92,58.92,0,0,1,4.84-10.61,67,67,0,0,1,10.68-13.78q15.12-15.12,35.21-17.95a63.44,63.44,0,0,1,38,6.14q-6.6,6.64-18.66,18.43-8.73,8.58-18,17.77l-7.06,7-14.17,14.19Z" transform="translate(-14.88 -284.44)"/><path class="cls-5" d="M809.37,639.9q-5.72-50-11.42-99.95-5.82-50.7-11.62-101.43c-1.7-14.88-3.42-29.77-5.21-45.26H709.53c0-2.61,0-4.59,0-6.55-.16-7.34.23-14.74-.57-22-4.35-39.72-34.14-71.19-74.24-78.77-38.16-7.23-77.89,12.4-96.06,47.39a90.59,90.59,0,0,0-10.15,43.88c.09,5.25,0,10.51,0,16.23H456.9c-1.24,10.85-2.41,21.26-3.61,31.67Q447.5,475.56,441.72,526,436,576.27,430.29,626.48q-5.82,51-11.64,101.92H819.41Q814.39,684.17,809.37,639.9ZM600.13,305.23a71.9,71.9,0,0,1,91.2,67.85c.16,6.48,0,13,0,19.95H547.23C541.49,346.87,564.06,315.15,600.13,305.23Zm-161,404.84c1.36-12.16,2.68-24.06,4-35.94q5.79-50.46,11.59-100.94t11.6-100.94c2.14-18.73,4.32-37.46,6.36-56.21.31-2.77.54-4.66,4.18-4.63,16.36.17,32.72.09,49.08.11a17.58,17.58,0,0,1,2.56.47c0,6.09.14,12.24-.11,18.36,0,1.19-1.36,2.51-2.39,3.47-8,7.44-8.73,18.77-1.58,26.29a18,18,0,0,0,26,.2c7.5-7.64,6.83-19-1.48-26.63-1-.92-2.12-2.33-2.16-3.55-.21-6-.1-11.94-.1-18.29H691.31c0,6.36.11,12.8-.1,19.23,0,1-1.46,2.06-2.4,2.91-8,7.3-8.55,18.72-1.22,26.27a18,18,0,0,0,26-.1c7.2-7.47,6.48-18.92-1.39-26.34a8.86,8.86,0,0,1-2.53-5.38c-.34-5.45-.13-10.94-.13-16.6,1.9-.14,3.21-.33,4.52-.33,15.37,0,30.72.07,46.08-.09,3.47,0,4.86.74,5.28,4.56,5.08,45.6,10.42,91.17,15.64,136.76q7.25,63.42,14.41,126.82c1.15,10.08,2.33,20.15,3.54,30.53H439.1Z" transform="translate(-14.88 -284.44)"/></svg>