<?xml version="1.0" encoding="utf-8"?>
<!-- Generator: Adobe Illustrator 23.0.1, SVG Export Plug-In . SVG Version: 6.00 Build 0)  -->
<svg version="1.1" xmlns="http://www.w3.org/2000/svg" xmlns:xlink="http://www.w3.org/1999/xlink" x="0px" y="0px"
	 viewBox="0 0 500 500" style="enable-background:new 0 0 500 500;" xml:space="preserve">
<style type="text/css">
	.st0{fill:#FFFFFF;}
	.st1{fill:#8AB83E;}
	.st2{opacity:0.55;fill:#0A3637;}
	.st3{fill:#032302;}
	.st4{fill:#ACD362;}
	.st5{fill:#0A3637;}
	.st6{fill:#472915;}
	.st7{fill:#754E30;}
	.st8{fill:#939393;}
	.st9{fill:#191919;}
	.st10{fill:#F98D3D;}
	.st11{fill:#ED701B;}
	.st12{fill:none;}
	.st13{fill:#FFBF4D;}
	.st14{fill:#EFAA3A;}
	.st15{opacity:0.29;fill:#F98D2B;}
	.st16{fill:#3A5B00;}
	.st17{fill:#172600;}
	.st18{fill:#49B4D6;}
	.st19{fill:#FF9F50;}
	.st20{fill:#D7F0F9;}
</style>
<g id="BACKGROUND">
	<rect class="st0" width="500" height="500"/>
</g>
<g id="OBJECTS">
	<g>
		<g>
			<path class="st1" d="M453.06,393.56c6.95,0,12.62-5.57,12.73-12.52c0.53-34.64,3.32-85.75-61.92-99.88
				c-52.8-11.44-21.49-105.27-163.69-99.21c-102.07,4.35-74.96,90.39-154.32,97.55c-52.81,4.77-53.27,71.56-51.24,102.16
				c0.44,6.69,6,11.89,12.71,11.89H453.06z"/>
			<g>
				<path class="st2" d="M403.87,281.15c-52.8-11.44-21.49-105.27-163.69-99.21c-24.28,1.04-41.24,6.7-54.07,14.81
					c4.32-0.57,8.91-0.97,13.8-1.17c142.19-6.06,110.89,87.77,163.69,99.21c64.55,13.98,62.51,64.15,61.94,98.76h27.52
					c6.95,0,12.62-5.57,12.73-12.52C466.32,346.39,469.11,295.29,403.87,281.15z"/>
			</g>
			<g>
				<rect x="177.77" class="st3" width="2.24" height="163.8"/>
				<rect x="338.74" class="st3" width="2.24" height="188.96"/>
				<g>
					<path class="st4" d="M340.77,177.95l-166.95-19.49c-7.13-0.83-13.59,4.28-14.43,11.41l-12.46,106.75
						c-0.83,7.13,4.28,13.59,11.41,14.43l166.95,19.49c7.13,0.83,13.59-4.28,14.43-11.41l12.46-106.75
						C353.02,185.24,347.91,178.78,340.77,177.95z"/>
					<path class="st5" d="M350.95,202.94l1.23-10.57c0.83-7.13-4.28-13.59-11.41-14.43l-166.95-19.49
						c-7.13-0.83-13.59,4.28-14.43,11.41l-1.23,10.57L350.95,202.94z"/>
					<g>
						<path class="st5" d="M185.18,245.08l21.16-37.29c1.36-2.39,4.01-3.73,6.74-3.42l0,0c3.75,0.44,6.44,3.83,6,7.58l-4.4,37.72
							l0.19,0.02c2.6,0.3,4.46,2.66,4.16,5.25l0,0c-0.3,2.6-2.66,4.46-5.25,4.16l-0.19-0.02l-0.8,6.87
							c-0.33,2.81-2.87,4.82-5.67,4.49l0,0c-2.81-0.33-4.82-2.87-4.49-5.67l0.8-6.87l-15.24-1.78c-2.6-0.3-4.47-2.66-4.16-5.26
							l0.4-3.46C184.51,246.58,184.77,245.79,185.18,245.08z M204.58,247.87l2.73-23.39c0.02-0.16-0.2-0.23-0.28-0.09l-12.5,22.06
							c-0.22,0.39,0.03,0.88,0.47,0.93l8.89,1.04C204.23,248.46,204.54,248.21,204.58,247.87z"/>
						<path class="st5" d="M278.57,255.98l21.16-37.29c1.36-2.39,4.01-3.73,6.74-3.42l0,0c3.75,0.44,6.44,3.83,6,7.58l-4.4,37.72
							l0.19,0.02c2.6,0.3,4.46,2.66,4.16,5.25l0,0c-0.3,2.6-2.66,4.46-5.25,4.16l-0.19-0.02l-0.8,6.87
							c-0.33,2.81-2.87,4.82-5.67,4.49l0,0c-2.81-0.33-4.82-2.87-4.49-5.67l0.8-6.87l-15.24-1.78c-2.6-0.3-4.47-2.66-4.16-5.26
							l0.4-3.46C277.91,257.48,278.17,256.69,278.57,255.98z M297.98,258.77l2.73-23.39c0.02-0.16-0.2-0.23-0.28-0.09l-12.5,22.06
							c-0.22,0.39,0.03,0.88,0.47,0.93l8.89,1.04C297.63,259.36,297.94,259.11,297.98,258.77z"/>
						<path class="st5" d="M236.59,223.14c1.23-10.54,7.48-15.91,17.65-14.73c10.16,1.19,15.01,7.86,13.78,18.39l-4,34.25
							c-1.23,10.54-7.48,15.91-17.65,14.73c-10.16-1.19-15.01-7.86-13.78-18.39L236.59,223.14z M242.86,259.26
							c-0.55,4.7,1.31,6.73,4.61,7.12c3.29,0.38,5.57-1.16,6.12-5.87l4.15-35.57c0.55-4.7-1.31-6.73-4.61-7.12
							c-3.29-0.38-5.57,1.16-6.12,5.87L242.86,259.26z"/>
					</g>
				</g>
			</g>
			<g>
				<path class="st6" d="M144.79,298.79c0,0-2.26,10-1.88,20.22c0.34,9.15-0.75,69.31-0.75,69.31h7.35c0,0,10.46-47.12,10.85-50.84
					c0.39-3.72,5.65-40.93,5.65-40.93L144.79,298.79z"/>
				<path class="st7" d="M149.68,296.05c0,0,1.69,12.85,4.57,21.99c2.88,9.13,17.01,70.29,17.01,70.29h7.35
					c0,0-1.35-47.12-1.86-50.84c-0.51-3.72-4.23-40.93-4.23-40.93L149.68,296.05z"/>
				<path class="st8" d="M171.85,388.31v5.13h13.99c0.79,0,1.11-1.03,0.44-1.47c-2.05-1.36-5.32-3.24-8.37-3.66H171.85z"/>
				<path class="st8" d="M142.54,388.31v5.13h13.99c0.79,0,1.11-1.03,0.44-1.47c-2.05-1.36-5.32-3.24-8.37-3.66H142.54z"/>
				<g>
					<path class="st9" d="M167.77,236.26c0,0,4.81-7.31-0.71-8.02c-4.24-0.55-5.99,0.72-5.99,0.72s-4.88-0.54-7.56,1.78
						c-1.83,1.59-8.55,13.9,2.32,18.35c10.87,4.45,8.55-6.95,8.55-6.95L167.77,236.26z"/>
					<path d="M167.06,228.24c-4.24-0.55-5.99,0.72-5.99,0.72s-4.88-0.54-7.56,1.78c-1.83,1.59-8.55,13.9,2.32,18.35
						c5.11,2.09,7.3,0.68,8.2-1.4c-10.31,2.9-11.43-9.53-9.73-13.06c1.73-3.59,5.87-1.94,5.87-1.94c1.62-4.08,6.91-3.64,9.09-3.32
						C168.87,228.8,168.18,228.38,167.06,228.24z"/>
					<path class="st10" d="M161,239.82c0,0-1.43-1.43-2.49,0c-1.07,1.43-0.36,4.63,1.43,4.81c0,0-0.53,4.63-4.1,4.45v3.74h8.37
						v-2.85c0,0,5.17-2.14,4.99-6.41c-0.18-4.28-1.43-7.31-1.43-7.31S164.92,239.46,161,239.82z"/>
					<path class="st11" d="M162.29,251.17c0.83,0.35,0.68,0.87,0.72,1.65h1.2v-2.85c0,0-2.03,0.64-5-1.05
						C159.21,248.93,160.94,250.61,162.29,251.17z"/>
				</g>
				<path class="st10" d="M164,233c0,0-4.34-1.73-4.85-0.43c-0.33,0.85,0.51,1.58,1.67,2.32l-1.02,0.17
					c-0.23,0.04-0.31,0.33-0.13,0.47c0.28,0.23,1.07,0.38,2.71,0.44L164,233z"/>
				<g>
					<polygon class="st12" points="138.18,280.07 143.99,298.82 143.89,297.87 143.99,298.82 145.96,271.52 					"/>
					<path class="st13" d="M195,243.87c-8.28-6.13-30.88-11.04-30.88-11.04l-1.86,3.39c0,0,20.52,7.95,19.17,9.14
						c-0.8,0.7-10.82,5.29-14.22,6.84c-0.73,0.33-1.52,0.49-2.33,0.48l-10.39-0.06c0,0-7.5-0.89-13.39,5.88
						c-5.27,6.07-14.23,20.12-14.23,20.12l15.1,22.2l1.67,2.45l0.01-0.03l-0.01,0.21c0,0,0.54,0.06,1.49,0.15
						c4.85,0.45,20.41,1.68,28.64-0.07l0.23-0.05l-0.39-36.42c13.14-10.4,19.42-18.44,21.66-20.96
						C195.83,245.43,195.72,244.41,195,243.87z M144.34,293.54l-1.47-3.22l-4.69-10.25l7.78-8.72l-1.4,19.13L144.34,293.54z"/>
				</g>
				<polygon class="st14" points="142.87,290.32 144.34,293.54 143.63,303.25 143.61,303.28 141.94,300.83 				"/>
				<path class="st15" d="M170.06,265.76c-1.4,1.02-1.04,10.02-1.39,15.65c-0.58,9.43-1.14,17.59-0.73,22.85
					c2.13-0.14,4.11-0.37,5.79-0.73l0.23-0.05l-0.39-36.42c13.14-10.4,19.42-18.44,21.66-20.96c0.59-0.67,0.48-1.69-0.24-2.23
					C195,243.87,184.61,255.2,170.06,265.76z"/>
				<path class="st6" d="M176.74,337.49c-0.37-2.68-2.41-22.8-3.51-33.8l-5.28,0.58c0,0,7.7,63.33,8.21,84.06h2.44
					C178.6,388.32,177.25,341.21,176.74,337.49z"/>
			</g>
			<g>
				<g>
					<g>
						<path class="st16" d="M101.55,370.49c0,0-2.26-2.12-0.74-10.14c1.52-8.02,5.38-15.73,3.48-24.43
							c-1.89-8.71-16.73-30.65-16.77-32.11c-0.05-1.46-4.58,25.53,3.09,36.17c7.67,10.63,8.59,14.32,8.25,19.91
							c-0.34,5.59,0.08,10.1,0.92,11.4L101.55,370.49z"/>
						<path class="st17" d="M100.14,354.36c-0.89,3.58-1.43,12.55-0.01,14.7c0.13,0.2,0.32,0.09,0.56-0.28
							c-0.43-1.48-0.72-4.08,0.1-8.42c1.52-8.02,5.38-15.73,3.48-24.43c-1.89-8.71-16.73-30.65-16.77-32.11
							c0,0,2.24,18.29,9.76,30.87C102.66,343.69,101.03,350.78,100.14,354.36z"/>
					</g>
					<g>
						<path class="st16" d="M104.25,369.94c0,0-4.36-10.88,3.03-20.3c7.39-9.42,19.2-21.52,19.43-26.31c0,0,3.04,22.75-6.58,29.19
							c-9.61,6.44-16.35,7.47-14.69,17.38L104.25,369.94z"/>
						<path class="st17" d="M114.63,347.95c-10.72,7.8-11.6,16.79-9.93,20.96c0.13,0.32,0.37,0.52,0.7,0.63
							c-1.44-9.56,5.25-10.65,14.74-17.01c9.61-6.44,6.58-29.19,6.58-29.19S125.34,340.14,114.63,347.95z"/>
					</g>
					<g>
						<path class="st16" d="M97.08,370.18c0,0,1.4-5.76,0.65-11.98c-0.74-6.22-7.24-9.72-13.31-16.29
							c-3.12-3.38-4.05-21.25-2.11-22.91c0,0-10.72,12.99-9.06,22.5c1.65,9.51,19.14,15.69,20.76,20.29
							c1.62,4.6,1.48,8.45,1.48,8.45L97.08,370.18z"/>
						<g>
							<path class="st17" d="M78.69,324.11c-3.54,9.59,0.09,21.21,11.86,28.43c8.66,5.31,5.9,16.36,5.9,16.36l1.42-4.36
								c0.13-1.88,0.14-4.08-0.13-6.34c-0.74-6.22-7.24-9.72-13.31-16.29c-3.01-3.26-3.98-20-2.31-22.67
								C81.63,319.86,80.24,321.66,78.69,324.11z"/>
							<path class="st18" d="M82.12,319.24c0.12-0.15,0.19-0.24,0.19-0.24C82.25,319.06,82.18,319.14,82.12,319.24z"/>
						</g>
					</g>
					<g>
						<path class="st16" d="M106.49,369.46c0,0,2.51-9.32,8.73-10.58c6.21-1.25,13.35-10.44,13.73-12.24
							C128.95,346.65,127.9,363.96,106.49,369.46z"/>
						<path class="st17" d="M114.86,361.97c-3.81,1.9-5.39,4.46-5.95,6.79c19.06-6.13,20.04-22.11,20.04-22.11
							c-0.08,0.36-0.42,1.01-0.97,1.82C126.11,351.75,121.59,358.61,114.86,361.97z"/>
					</g>
				</g>
				<path class="st13" d="M119.94,366.03H87.44l3.86,24.27c0.29,1.84,1.88,3.2,3.74,3.2h17.29c1.86,0,3.45-1.35,3.74-3.2
					L119.94,366.03z"/>
				<polygon class="st19" points="119.3,370.05 119.94,366.03 87.44,366.03 88.08,370.05 				"/>
				<path class="st19" d="M112.06,366.03l-3.86,24.27c-0.29,1.84-1.88,3.2-3.74,3.2h7.87c1.86,0,3.45-1.35,3.74-3.2l3.86-24.27
					H112.06z"/>
			</g>
			<g>
				<path class="st20" d="M101.56,220.21c3.49,0,6.53-2.54,7.01-6c0.08-0.62,0.13-1.26,0.13-1.9c0-7.71-6.25-13.96-13.96-13.96
					c-0.32,0-0.63,0.01-0.94,0.04c-0.64-7.6-7.01-13.57-14.77-13.57c-8.19,0-14.83,6.64-14.83,14.83c0,0.36,0.02,0.72,0.04,1.08
					c-2.32-1.3-5.03-1.99-7.91-1.86c-7.45,0.34-13.57,6.3-14.1,13.74c0,0.06-0.01,0.12-0.01,0.18c-0.24,4.04,3.03,7.44,7.08,7.44
					H101.56z"/>
				<path class="st20" d="M434.69,231.17c11.04,0,11.65-16.61,0.62-17.15c-0.3-0.01-0.6-0.02-0.91-0.02c-1.97,0-3.86,0.31-5.64,0.88
					c-1.48-8.99-9.28-15.85-18.69-15.85c-9.62,0-17.55,7.17-18.77,16.45c-2.28-1.09-4.84-1.71-7.54-1.71
					c-1.51,0-2.97,0.19-4.37,0.55c-9.65,2.49-7.63,16.85,2.34,16.85H434.69z"/>
				<path class="st20" d="M302.14,149.32c11.03,0,11.65-16.61,0.62-17.14c-0.3-0.01-0.6-0.02-0.91-0.02c-1.97,0-3.86,0.31-5.64,0.88
					c-1.48-8.99-9.28-15.85-18.68-15.85c-9.61,0-17.55,7.17-18.77,16.45c-2.28-1.09-4.84-1.71-7.53-1.71
					c-1.51,0-2.97,0.19-4.37,0.55c-9.65,2.48-7.62,16.84,2.34,16.84H302.14z"/>
				<circle class="st13" cx="126.45" cy="153.56" r="26.45"/>
				<path class="st19" d="M126.66,127.11c7.19,4.73,11.95,12.87,11.95,22.12c0,14.61-11.84,26.45-26.45,26.45
					c-0.07,0-0.14,0-0.22-0.01c4.17,2.74,9.15,4.34,14.51,4.34c14.61,0,26.45-11.84,26.45-26.45
					C152.9,139.03,141.17,127.23,126.66,127.11z"/>
			</g>
			<g>
				<g>
					<g>
						<path class="st16" d="M283.09,370.03c0,0,2.26-2.12,0.74-10.14c-1.52-8.02-5.38-15.73-3.48-24.43
							c1.89-8.71,16.73-30.65,16.77-32.11c0.05-1.46,4.58,25.53-3.09,36.17c-7.67,10.63-8.59,14.32-8.25,19.92
							c0.34,5.59-0.08,10.1-0.92,11.4L283.09,370.03z"/>
						<path class="st17" d="M284.49,353.89c0.89,3.58,1.43,12.55,0.01,14.7c-0.13,0.2-0.32,0.09-0.56-0.28
							c0.43-1.48,0.72-4.08-0.1-8.42c-1.52-8.02-5.38-15.73-3.48-24.43c1.89-8.71,16.73-30.65,16.77-32.11
							c0,0-2.24,18.29-9.76,30.87C281.97,343.23,283.6,350.31,284.49,353.89z"/>
					</g>
					<g>
						<path class="st16" d="M280.38,369.47c0,0,4.36-10.88-3.03-20.3c-7.39-9.42-19.2-21.52-19.43-26.31c0,0-3.04,22.75,6.58,29.19
							c9.61,6.44,16.35,7.47,14.69,17.38L280.38,369.47z"/>
						<path class="st17" d="M270.01,347.48c10.72,7.8,11.6,16.79,9.93,20.96c-0.13,0.32-0.37,0.52-0.7,0.63
							c1.44-9.56-5.25-10.65-14.74-17.01c-9.61-6.44-6.58-29.19-6.58-29.19S259.29,339.68,270.01,347.48z"/>
					</g>
					<g>
						<path class="st16" d="M287.55,369.71c0,0-1.4-5.76-0.65-11.98c0.74-6.22,7.24-9.72,13.31-16.29
							c3.12-3.38,4.05-21.25,2.11-22.92c0,0,10.72,12.99,9.06,22.5c-1.65,9.51-19.14,15.69-20.76,20.29
							c-1.62,4.6-1.48,8.45-1.48,8.45L287.55,369.71z"/>
						<g>
							<path class="st17" d="M305.94,323.64c3.54,9.59-0.09,21.21-11.86,28.43c-8.66,5.31-5.9,16.36-5.9,16.36l-1.42-4.36
								c-0.13-1.88-0.14-4.08,0.13-6.34c0.74-6.22,7.24-9.72,13.31-16.29c3.01-3.26,3.98-20,2.31-22.67
								C303.01,319.39,304.39,321.19,305.94,323.64z"/>
							<path class="st18" d="M302.51,318.77c-0.12-0.15-0.19-0.24-0.19-0.24C302.39,318.59,302.45,318.67,302.51,318.77z"/>
						</g>
					</g>
					<g>
						<path class="st16" d="M278.14,369c0,0-2.51-9.32-8.73-10.58c-6.21-1.25-13.35-10.44-13.73-12.24
							C255.68,346.18,256.73,363.5,278.14,369z"/>
						<path class="st17" d="M269.77,361.5c3.81,1.9,5.39,4.46,5.95,6.79c-19.06-6.13-20.04-22.11-20.04-22.11
							c0.08,0.36,0.42,1.01,0.97,1.82C258.52,351.28,263.05,358.14,269.77,361.5z"/>
					</g>
				</g>
				<path class="st13" d="M264.7,365.56h32.49l-3.86,24.27c-0.29,1.84-1.88,3.2-3.74,3.2H272.3c-1.86,0-3.45-1.35-3.74-3.2
					L264.7,365.56z"/>
				<polygon class="st19" points="265.34,369.58 264.7,365.56 297.19,365.56 296.55,369.58 				"/>
				<path class="st19" d="M272.57,365.56l3.86,24.27c0.29,1.84,1.88,3.2,3.74,3.2h-7.87c-1.86,0-3.45-1.35-3.74-3.2l-3.86-24.27
					H272.57z"/>
			</g>
		</g>
	</g>
</g>
<g id="DESIGNED_BY_FREEPIK">
</g>
</svg>
