<?xml version="1.0" encoding="utf-8"?>
<!-- Generator: Adobe Illustrator 23.0.1, SVG Export Plug-In . SVG Version: 6.00 Build 0)  -->
<svg version="1.1" id="Layer_1" xmlns="http://www.w3.org/2000/svg" xmlns:xlink="http://www.w3.org/1999/xlink" x="0px" y="0px"
	 viewBox="0 0 561.6 216" style="enable-background:new 0 0 561.6 216;" xml:space="preserve">
<style type="text/css">
	.st0{fill:#354417;}
	.st1{fill:#8AB83E;}
	.st2{fill:#0A3637;}
	.st3{fill:#4F7000;}
	.st4{fill:#FFFFFF;}
	.st5{fill:#FF1E00;}
	.st6{fill-rule:evenodd;clip-rule:evenodd;fill:#FFFFFF;}
	.st7{fill:url(#SVGID_1_);}
	.st8{fill:url(#SVGID_2_);}
	.st9{fill:url(#SVGID_3_);}
</style>
<g>
	<rect width="561.6" height="216"/>
	<g>
		<g>
			<g>
				<g>
					<path class="st0" d="M143.21,174.47H50.3l-28.62-94.5H5.52c-1.92,0-3.47-1.55-3.47-3.47s1.55-3.47,3.47-3.47h21.31l28.62,94.5
						h82.85l23.04-65.18c0.64-1.81,2.62-2.75,4.43-2.12c1.81,0.64,2.75,2.62,2.12,4.43L143.21,174.47z"/>
				</g>
				<polygon class="st0" points="41.01,102.59 58.85,162.83 135.56,162.83 156.38,102.59 				"/>
				<g>
					<circle class="st0" cx="136.18" cy="187.03" r="6.35"/>
					<path class="st0" d="M54.87,187.03c0,3.51,2.84,6.35,6.35,6.35c3.51,0,6.35-2.84,6.35-6.35c0-3.51-2.84-6.35-6.35-6.35
						C57.71,180.68,54.87,183.53,54.87,187.03z"/>
				</g>
				<g>
					<path class="st0" d="M164.61,96.91H41.01c-1.92,0-3.47-1.55-3.47-3.47c0-1.92,1.55-3.47,3.47-3.47h123.6
						c1.92,0,3.47,1.55,3.47,3.47C168.08,95.36,166.53,96.91,164.61,96.91z"/>
				</g>
			</g>
			<g>
				<path class="st0" d="M143.92,173.76H51.01L22.4,79.26H6.23c-1.92,0-3.47-1.55-3.47-3.47c0-1.92,1.55-3.47,3.47-3.47h21.31
					l28.62,94.5h82.85l23.04-65.18c0.64-1.81,2.62-2.75,4.43-2.12c1.81,0.64,2.75,2.62,2.12,4.43L143.92,173.76z"/>
				<polygon class="st0" points="41.72,101.88 59.56,162.11 136.27,162.11 157.1,101.88 				"/>
				<g>
					<circle class="st0" cx="136.89" cy="186.32" r="6.35"/>
					
						<ellipse transform="matrix(0.9999 -0.0156 0.0156 0.9999 -2.9026 0.9901)" class="st0" cx="61.93" cy="186.32" rx="6.35" ry="6.35"/>
				</g>
				<path class="st0" d="M165.33,96.2H41.72c-1.92,0-3.47-1.55-3.47-3.47c0-1.92,1.55-3.47,3.47-3.47h123.6
					c1.92,0,3.47,1.55,3.47,3.47C168.8,94.64,167.24,96.2,165.33,96.2z"/>
			</g>
			<g>
				<path class="st0" d="M144.64,173.04H51.73l-28.62-94.5H6.95c-1.92,0-3.47-1.55-3.47-3.47c0-1.92,1.55-3.47,3.47-3.47h21.31
					l28.62,94.5h82.85l23.04-65.18c0.64-1.81,2.62-2.75,4.43-2.12c1.81,0.64,2.75,2.62,2.12,4.43L144.64,173.04z"/>
				<polygon class="st0" points="42.44,101.16 60.28,161.4 136.99,161.4 157.81,101.16 				"/>
				<g>
					<circle class="st0" cx="137.61" cy="185.6" r="6.35"/>
					
						<ellipse transform="matrix(0.9995 -0.0303 0.0303 0.9995 -5.5878 1.9808)" class="st0" cx="62.65" cy="185.6" rx="6.35" ry="6.35"/>
				</g>
				<path class="st0" d="M166.04,95.48H42.44c-1.92,0-3.47-1.55-3.47-3.47c0-1.92,1.55-3.47,3.47-3.47h123.6
					c1.92,0,3.47,1.55,3.47,3.47C169.51,93.93,167.96,95.48,166.04,95.48z"/>
			</g>
			<g>
				<path class="st0" d="M145.35,172.33H52.44l-28.62-94.5H7.66c-1.92,0-3.47-1.55-3.47-3.47c0-1.92,1.55-3.47,3.47-3.47h21.31
					l28.62,94.5h82.85l23.04-65.18c0.64-1.81,2.62-2.75,4.43-2.12c1.81,0.64,2.75,2.62,2.12,4.43L145.35,172.33z"/>
				<polygon class="st0" points="43.16,100.44 60.99,160.68 137.7,160.68 158.53,100.44 				"/>
				<g>
					<circle class="st0" cx="138.32" cy="184.88" r="6.35"/>
					
						<ellipse transform="matrix(0.999 -0.044 0.044 0.999 -8.0717 2.9663)" class="st0" cx="63.36" cy="184.88" rx="6.35" ry="6.35"/>
				</g>
				<path class="st0" d="M166.76,94.77H43.16c-1.92,0-3.47-1.55-3.47-3.47c0-1.92,1.55-3.47,3.47-3.47h123.6
					c1.92,0,3.47,1.55,3.47,3.47C170.23,93.21,168.68,94.77,166.76,94.77z"/>
			</g>
			<g>
				<path class="st0" d="M146.07,171.61H53.16l-28.62-94.5H8.38c-1.92,0-3.47-1.55-3.47-3.47c0-1.92,1.55-3.47,3.47-3.47h21.31
					l28.62,94.5h82.85L164.2,99.5c0.64-1.81,2.62-2.75,4.43-2.12c1.81,0.64,2.75,2.62,2.12,4.43L146.07,171.61z"/>
				<polygon class="st0" points="43.87,99.73 61.71,159.96 138.42,159.96 159.25,99.73 				"/>
				<g>
					<circle class="st0" cx="139.04" cy="184.17" r="6.35"/>
					
						<ellipse transform="matrix(0.9984 -0.0569 0.0569 0.9984 -10.3692 3.9419)" class="st0" cx="64.08" cy="184.17" rx="6.35" ry="6.35"/>
				</g>
				<path class="st0" d="M167.47,94.05H43.87c-1.92,0-3.47-1.55-3.47-3.47c0-1.92,1.55-3.47,3.47-3.47h123.6
					c1.92,0,3.47,1.55,3.47,3.47C170.94,92.5,169.39,94.05,167.47,94.05z"/>
			</g>
			<g>
				<path class="st0" d="M146.78,170.9H53.87L25.26,76.4H9.1c-1.92,0-3.47-1.55-3.47-3.47s1.55-3.47,3.47-3.47h21.31l28.62,94.5
					h82.85l23.04-65.18c0.64-1.81,2.62-2.75,4.43-2.12c1.81,0.64,2.75,2.62,2.12,4.43L146.78,170.9z"/>
				<polygon class="st0" points="44.59,99.01 62.42,159.25 139.13,159.25 159.96,99.01 				"/>
				<g>
					
						<ellipse transform="matrix(0.9732 -0.2298 0.2298 0.9732 -38.4105 37.0162)" class="st0" cx="139.75" cy="183.45" rx="6.35" ry="6.35"/>
					
						<ellipse transform="matrix(0.9976 -0.0689 0.0689 0.9976 -12.4947 4.904)" class="st0" cx="64.79" cy="183.45" rx="6.35" ry="6.35"/>
				</g>
				<path class="st0" d="M168.19,93.34H44.59c-1.92,0-3.47-1.55-3.47-3.47c0-1.92,1.55-3.47,3.47-3.47h123.6
					c1.92,0,3.47,1.55,3.47,3.47C171.66,91.78,170.11,93.34,168.19,93.34z"/>
			</g>
			<g>
				<path class="st0" d="M147.5,170.18H54.59l-28.62-94.5H9.81c-1.92,0-3.47-1.55-3.47-3.47c0-1.92,1.55-3.47,3.47-3.47h21.31
					l28.62,94.5h82.85l23.04-65.18c0.64-1.81,2.62-2.75,4.43-2.12c1.81,0.64,2.75,2.62,2.12,4.43L147.5,170.18z"/>
				<polygon class="st0" points="45.3,98.3 63.14,158.53 139.85,158.53 160.68,98.3 				"/>
				<g>
					
						<ellipse transform="matrix(0.9732 -0.2298 0.2298 0.9732 -38.227 37.1614)" class="st0" cx="140.47" cy="182.74" rx="6.35" ry="6.35"/>
					
						<ellipse transform="matrix(0.9968 -0.0803 0.0803 0.9968 -14.4615 5.8501)" class="st0" cx="65.51" cy="182.74" rx="6.35" ry="6.35"/>
				</g>
				<path class="st0" d="M168.91,92.62H45.3c-1.92,0-3.47-1.55-3.47-3.47c0-1.92,1.55-3.47,3.47-3.47h123.6
					c1.92,0,3.47,1.55,3.47,3.47C172.38,91.07,170.82,92.62,168.91,92.62z"/>
			</g>
			<g>
				<path class="st0" d="M148.21,169.47H55.3l-28.62-94.5H10.53c-1.92,0-3.47-1.55-3.47-3.47c0-1.92,1.55-3.47,3.47-3.47h21.31
					l28.62,94.5h82.85l23.04-65.18c0.64-1.81,2.62-2.75,4.43-2.12c1.81,0.64,2.75,2.62,2.12,4.43L148.21,169.47z"/>
				<polygon class="st0" points="46.02,97.58 63.86,157.82 140.56,157.82 161.39,97.58 				"/>
				<g>
					
						<ellipse transform="matrix(0.9732 -0.2298 0.2298 0.9732 -38.0435 37.3066)" class="st0" cx="141.18" cy="182.02" rx="6.35" ry="6.35"/>
					
						<ellipse transform="matrix(0.9959 -0.091 0.091 0.9959 -16.282 6.7782)" class="st0" cx="66.22" cy="182.02" rx="6.35" ry="6.35"/>
				</g>
				<path class="st0" d="M169.62,91.91H46.02c-1.92,0-3.47-1.55-3.47-3.47c0-1.92,1.55-3.47,3.47-3.47h123.6
					c1.92,0,3.47,1.55,3.47,3.47C173.09,90.35,171.54,91.91,169.62,91.91z"/>
			</g>
			<g>
				<path class="st0" d="M148.93,168.75H56.02L27.4,74.25H11.24c-1.92,0-3.47-1.55-3.47-3.47c0-1.92,1.55-3.47,3.47-3.47h21.31
					l28.62,94.5h82.85l23.04-65.18c0.64-1.81,2.62-2.75,4.43-2.12c1.81,0.64,2.75,2.62,2.12,4.43L148.93,168.75z"/>
				<polygon class="st0" points="46.73,96.87 64.57,157.1 141.28,157.1 162.11,96.87 				"/>
				<g>
					
						<ellipse transform="matrix(0.9732 -0.2298 0.2298 0.9732 -37.8599 37.4519)" class="st0" cx="141.9" cy="181.31" rx="6.35" ry="6.35"/>
					
						<ellipse transform="matrix(0.9949 -0.101 0.101 0.9949 -17.9677 7.6871)" class="st0" cx="66.94" cy="181.31" rx="6.35" ry="6.35"/>
				</g>
				<path class="st0" d="M170.34,91.19H46.73c-1.92,0-3.47-1.55-3.47-3.47c0-1.92,1.55-3.47,3.47-3.47h123.6
					c1.92,0,3.47,1.55,3.47,3.47C173.81,89.64,172.25,91.19,170.34,91.19z"/>
			</g>
			<g>
				<path class="st0" d="M149.64,168.04H56.73l-28.62-94.5H11.96c-1.92,0-3.47-1.55-3.47-3.47c0-1.92,1.55-3.47,3.47-3.47h21.31
					l28.62,94.5h82.85l23.04-65.18c0.64-1.81,2.62-2.75,4.43-2.12c1.81,0.64,2.75,2.62,2.12,4.43L149.64,168.04z"/>
				<polygon class="st0" points="47.45,96.15 65.29,156.39 141.99,156.39 162.82,96.15 				"/>
				<g>
					
						<ellipse transform="matrix(0.9732 -0.2298 0.2298 0.9732 -37.6764 37.5971)" class="st0" cx="142.61" cy="180.59" rx="6.35" ry="6.35"/>
					
						<ellipse transform="matrix(0.9939 -0.1104 0.1104 0.9939 -19.5293 8.5759)" class="st0" cx="67.66" cy="180.59" rx="6.35" ry="6.35"/>
				</g>
				<path class="st0" d="M171.05,90.47H47.45c-1.92,0-3.47-1.55-3.47-3.47c0-1.92,1.55-3.47,3.47-3.47h123.6
					c1.92,0,3.47,1.55,3.47,3.47C174.52,88.92,172.97,90.47,171.05,90.47z"/>
			</g>
			<g>
				<path class="st0" d="M150.36,167.32H57.45l-28.62-94.5H12.67c-1.92,0-3.47-1.55-3.47-3.47s1.55-3.47,3.47-3.47h21.31l28.62,94.5
					h82.85l23.04-65.18c0.64-1.81,2.62-2.75,4.43-2.12c1.81,0.64,2.75,2.62,2.12,4.43L150.36,167.32z"/>
				<polygon class="st0" points="48.16,95.44 66,155.67 142.71,155.67 163.54,95.44 				"/>
				<g>
					
						<ellipse transform="matrix(0.9732 -0.2298 0.2298 0.9732 -37.4929 37.7423)" class="st0" cx="143.33" cy="179.88" rx="6.35" ry="6.35"/>
					
						<ellipse transform="matrix(0.9929 -0.1193 0.1193 0.9929 -20.9763 9.4441)" class="st0" cx="68.37" cy="179.88" rx="6.35" ry="6.35"/>
				</g>
				<path class="st0" d="M171.77,89.76H48.16c-1.92,0-3.47-1.55-3.47-3.47c0-1.92,1.55-3.47,3.47-3.47h123.6
					c1.92,0,3.47,1.55,3.47,3.47C175.24,88.2,173.68,89.76,171.77,89.76z"/>
			</g>
			<g>
				<path class="st0" d="M151.08,166.6H58.17L29.55,72.1H13.39c-1.92,0-3.47-1.55-3.47-3.47c0-1.92,1.55-3.47,3.47-3.47H34.7
					l28.62,94.5h82.85l23.04-65.18c0.64-1.81,2.62-2.75,4.43-2.12c1.81,0.64,2.75,2.62,2.12,4.43L151.08,166.6z"/>
				<polygon class="st0" points="48.88,94.72 66.72,154.96 143.43,154.96 164.25,94.72 				"/>
				<g>
					
						<ellipse transform="matrix(0.9732 -0.2298 0.2298 0.9732 -37.3094 37.8876)" class="st0" cx="144.05" cy="179.16" rx="6.35" ry="6.35"/>
					
						<ellipse transform="matrix(0.9918 -0.1277 0.1277 0.9918 -22.3177 10.2916)" class="st0" cx="69.09" cy="179.16" rx="6.35" ry="6.35"/>
				</g>
				<path class="st0" d="M172.48,89.04H48.88c-1.92,0-3.47-1.55-3.47-3.47c0-1.92,1.55-3.47,3.47-3.47h123.6
					c1.92,0,3.47,1.55,3.47,3.47C175.95,87.49,174.4,89.04,172.48,89.04z"/>
			</g>
			<g>
				<path class="st0" d="M151.79,165.89H58.88l-28.62-94.5H14.1c-1.92,0-3.47-1.55-3.47-3.47c0-1.92,1.55-3.47,3.47-3.47h21.31
					l28.62,94.5h82.85l23.04-65.18c0.64-1.81,2.62-2.75,4.43-2.12c1.81,0.64,2.75,2.62,2.12,4.43L151.79,165.89z"/>
				<polygon class="st0" points="49.59,94.01 67.43,154.24 144.14,154.24 164.97,94.01 				"/>
				<g>
					
						<ellipse transform="matrix(0.9732 -0.2298 0.2298 0.9732 -37.1259 38.0328)" class="st0" cx="144.76" cy="178.45" rx="6.35" ry="6.35"/>
					
						<ellipse transform="matrix(0.9908 -0.1357 0.1357 0.9908 -23.5615 11.1184)" class="st0" cx="69.8" cy="178.45" rx="6.35" ry="6.35"/>
				</g>
				<path class="st0" d="M173.2,88.33H49.59c-1.92,0-3.47-1.55-3.47-3.47c0-1.92,1.55-3.47,3.47-3.47h123.6
					c1.92,0,3.47,1.55,3.47,3.47C176.67,86.77,175.11,88.33,173.2,88.33z"/>
			</g>
			<g>
				<path class="st0" d="M152.51,165.17H59.6l-28.62-94.5H14.82c-1.92,0-3.47-1.55-3.47-3.47c0-1.92,1.55-3.47,3.47-3.47h21.31
					l28.62,94.5h82.85l23.04-65.18c0.64-1.81,2.62-2.75,4.43-2.12c1.81,0.64,2.75,2.62,2.12,4.43L152.51,165.17z"/>
				<polygon class="st0" points="50.31,93.29 68.15,153.53 144.86,153.53 165.68,93.29 				"/>
				<g>
					
						<ellipse transform="matrix(0.9732 -0.2298 0.2298 0.9732 -36.9423 38.178)" class="st0" cx="145.48" cy="177.73" rx="6.35" ry="6.35"/>
					
						<ellipse transform="matrix(0.9897 -0.1431 0.1431 0.9897 -24.7154 11.9247)" class="st0" cx="70.52" cy="177.73" rx="6.35" ry="6.35"/>
				</g>
				<path class="st0" d="M173.91,87.61H50.31c-1.92,0-3.47-1.55-3.47-3.47c0-1.92,1.55-3.47,3.47-3.47h123.6
					c1.92,0,3.47,1.55,3.47,3.47C177.38,86.06,175.83,87.61,173.91,87.61z"/>
			</g>
			<g>
				<path class="st0" d="M153.22,164.46H60.31L31.7,69.96H15.53c-1.92,0-3.47-1.55-3.47-3.47c0-1.92,1.55-3.47,3.47-3.47h21.31
					l28.62,94.5h82.85l23.04-65.18c0.64-1.81,2.62-2.75,4.43-2.12c1.81,0.64,2.75,2.62,2.12,4.43L153.22,164.46z"/>
				<polygon class="st0" points="51.03,92.57 68.86,152.81 145.57,152.81 166.4,92.57 				"/>
				<g>
					
						<ellipse transform="matrix(0.9732 -0.2298 0.2298 0.9732 -36.7588 38.3232)" class="st0" cx="146.19" cy="177.01" rx="6.35" ry="6.35"/>
					
						<ellipse transform="matrix(0.9886 -0.1502 0.1502 0.9886 -25.7859 12.7111)" class="st0" cx="71.23" cy="177.01" rx="6.35" ry="6.35"/>
				</g>
				<path class="st0" d="M174.63,86.9H51.03c-1.92,0-3.47-1.55-3.47-3.47c0-1.92,1.55-3.47,3.47-3.47h123.6
					c1.92,0,3.47,1.55,3.47,3.47C178.1,85.34,176.55,86.9,174.63,86.9z"/>
			</g>
			<g>
				<path class="st0" d="M153.94,163.74H61.03l-28.62-94.5H16.25c-1.92,0-3.47-1.55-3.47-3.47c0-1.92,1.55-3.47,3.47-3.47h21.31
					l28.62,94.5h82.85l23.04-65.18c0.64-1.81,2.62-2.75,4.43-2.12c1.81,0.64,2.75,2.62,2.12,4.43L153.94,163.74z"/>
				<polygon class="st0" points="51.74,91.86 69.58,152.09 146.29,152.09 167.11,91.86 				"/>
				<g>
					
						<ellipse transform="matrix(0.9732 -0.2298 0.2298 0.9732 -36.5753 38.4685)" class="st0" cx="146.91" cy="176.3" rx="6.35" ry="6.35"/>
					
						<ellipse transform="matrix(0.9876 -0.157 0.157 0.9876 -26.7794 13.4778)" class="st0" cx="71.95" cy="176.3" rx="6.35" ry="6.35"/>
				</g>
				<path class="st0" d="M175.34,86.18H51.74c-1.92,0-3.47-1.55-3.47-3.47c0-1.92,1.55-3.47,3.47-3.47h123.6
					c1.92,0,3.47,1.55,3.47,3.47C178.81,84.63,177.26,86.18,175.34,86.18z"/>
			</g>
			<g>
				<path class="st0" d="M154.65,163.03H61.74l-28.62-94.5H16.97c-1.92,0-3.47-1.55-3.47-3.47c0-1.92,1.55-3.47,3.47-3.47h21.31
					l28.62,94.5h82.85l23.04-65.18c0.64-1.81,2.62-2.75,4.43-2.12c1.81,0.64,2.75,2.62,2.12,4.43L154.65,163.03z"/>
				<polygon class="st0" points="52.46,91.14 70.29,151.38 147,151.38 167.83,91.14 				"/>
				<g>
					
						<ellipse transform="matrix(0.9732 -0.2298 0.2298 0.9732 -36.3918 38.6137)" class="st0" cx="147.62" cy="175.58" rx="6.35" ry="6.35"/>
					
						<ellipse transform="matrix(0.9866 -0.1633 0.1633 0.9866 -27.7015 14.2255)" class="st0" cx="72.66" cy="175.58" rx="6.35" ry="6.35"/>
				</g>
				<path class="st0" d="M176.06,85.47H52.46c-1.92,0-3.47-1.55-3.47-3.47c0-1.92,1.55-3.47,3.47-3.47h123.6
					c1.92,0,3.47,1.55,3.47,3.47C179.53,83.91,177.98,85.47,176.06,85.47z"/>
			</g>
			<g>
				<path class="st0" d="M155.37,162.31H62.46l-28.62-94.5H17.68c-1.92,0-3.47-1.55-3.47-3.47c0-1.92,1.55-3.47,3.47-3.47h21.31
					l28.62,94.5h82.85L173.5,90.2c0.64-1.81,2.62-2.75,4.43-2.12c1.81,0.64,2.75,2.62,2.12,4.43L155.37,162.31z"/>
				<polygon class="st0" points="53.17,90.43 71.01,150.66 147.72,150.66 168.55,90.43 				"/>
				<g>
					
						<ellipse transform="matrix(0.9732 -0.2298 0.2298 0.9732 -36.2083 38.7589)" class="st0" cx="148.34" cy="174.87" rx="6.35" ry="6.35"/>
					
						<ellipse transform="matrix(0.9856 -0.1694 0.1694 0.9856 -28.5574 14.9547)" class="st0" cx="73.38" cy="174.87" rx="6.35" ry="6.35"/>
				</g>
				<path class="st0" d="M176.78,84.75H53.17c-1.92,0-3.47-1.55-3.47-3.47c0-1.92,1.55-3.47,3.47-3.47h123.6
					c1.92,0,3.47,1.55,3.47,3.47C180.25,83.2,178.69,84.75,176.78,84.75z"/>
			</g>
			<g>
				<path class="st0" d="M156.08,161.6H63.17L34.56,67.1H18.4c-1.92,0-3.47-1.55-3.47-3.47c0-1.92,1.55-3.47,3.47-3.47h21.31
					l28.62,94.5h82.85l23.04-65.18c0.64-1.81,2.62-2.75,4.43-2.12c1.81,0.64,2.75,2.62,2.12,4.43L156.08,161.6z"/>
				<polygon class="st0" points="53.89,89.71 71.72,149.95 148.43,149.95 169.26,89.71 				"/>
				<g>
					
						<ellipse transform="matrix(0.9732 -0.2298 0.2298 0.9732 -36.0247 38.9041)" class="st0" cx="149.05" cy="174.15" rx="6.35" ry="6.35"/>
					
						<ellipse transform="matrix(0.9845 -0.1751 0.1751 0.9845 -29.3518 15.666)" class="st0" cx="74.09" cy="174.15" rx="6.35" ry="6.35"/>
				</g>
				<path class="st0" d="M177.49,84.04H53.89c-1.92,0-3.47-1.55-3.47-3.47c0-1.92,1.55-3.47,3.47-3.47h123.6
					c1.92,0,3.47,1.55,3.47,3.47C180.96,82.48,179.41,84.04,177.49,84.04z"/>
			</g>
			<g>
				<path class="st0" d="M156.8,160.88H63.89l-28.62-94.5H19.11c-1.92,0-3.47-1.55-3.47-3.47s1.55-3.47,3.47-3.47h21.31l28.62,94.5
					h82.85l23.04-65.18c0.64-1.81,2.62-2.75,4.43-2.12c1.81,0.64,2.75,2.62,2.12,4.43L156.8,160.88z"/>
				<polygon class="st0" points="54.6,89 72.44,149.23 149.15,149.23 169.98,89 				"/>
				<g>
					
						<ellipse transform="matrix(0.9732 -0.2298 0.2298 0.9732 -35.8412 39.0494)" class="st0" cx="149.77" cy="173.44" rx="6.35" ry="6.35"/>
					
						<ellipse transform="matrix(0.9836 -0.1806 0.1806 0.9836 -30.089 16.3601)" class="st0" cx="74.81" cy="173.44" rx="6.35" ry="6.35"/>
				</g>
				<path class="st0" d="M178.21,83.32H54.6c-1.92,0-3.47-1.55-3.47-3.47c0-1.92,1.55-3.47,3.47-3.47h123.6
					c1.92,0,3.47,1.55,3.47,3.47C181.68,81.77,180.12,83.32,178.21,83.32z"/>
			</g>
			<g>
				<path class="st0" d="M157.51,160.17H64.6l-28.62-94.5H19.83c-1.92,0-3.47-1.55-3.47-3.47c0-1.92,1.55-3.47,3.47-3.47h21.31
					l28.62,94.5h82.85l23.04-65.18c0.64-1.81,2.62-2.75,4.43-2.12c1.81,0.64,2.75,2.62,2.12,4.43L157.51,160.17z"/>
				<polygon class="st0" points="55.32,88.28 73.16,148.52 149.86,148.52 170.69,88.28 				"/>
				<g>
					
						<ellipse transform="matrix(0.9732 -0.2298 0.2298 0.9732 -35.6577 39.1946)" class="st0" cx="150.48" cy="172.72" rx="6.35" ry="6.35"/>
					
						<ellipse transform="matrix(0.9826 -0.1858 0.1858 0.9826 -30.7731 17.0377)" class="st0" cx="75.53" cy="172.72" rx="6.35" ry="6.35"/>
				</g>
				<path class="st0" d="M178.92,82.6H55.32c-1.92,0-3.47-1.55-3.47-3.47c0-1.92,1.55-3.47,3.47-3.47h123.6
					c1.92,0,3.47,1.55,3.47,3.47C182.39,81.05,180.84,82.6,178.92,82.6z"/>
			</g>
			<g>
				<path class="st0" d="M158.23,159.45H65.32l-28.62-94.5H20.54c-1.92,0-3.47-1.55-3.47-3.47s1.55-3.47,3.47-3.47h21.31l28.62,94.5
					h82.85l23.04-65.18c0.64-1.81,2.62-2.75,4.43-2.12c1.81,0.64,2.75,2.62,2.12,4.43L158.23,159.45z"/>
				<polygon class="st0" points="56.03,87.57 73.87,147.8 150.58,147.8 171.41,87.57 				"/>
				<g>
					
						<ellipse transform="matrix(0.9732 -0.2298 0.2298 0.9732 -35.4742 39.3398)" class="st0" cx="151.2" cy="172.01" rx="6.35" ry="6.35"/>
					
						<ellipse transform="matrix(0.9816 -0.1907 0.1907 0.9816 -31.4076 17.6993)" class="st0" cx="76.24" cy="172.01" rx="6.35" ry="6.35"/>
				</g>
				<path class="st0" d="M179.64,81.89H56.03c-1.92,0-3.47-1.55-3.47-3.47c0-1.92,1.55-3.47,3.47-3.47h123.6
					c1.92,0,3.47,1.55,3.47,3.47C183.11,80.33,181.55,81.89,179.64,81.89z"/>
			</g>
			<g>
				<path class="st0" d="M158.95,158.74H66.04l-28.62-94.5H21.26c-1.92,0-3.47-1.55-3.47-3.47s1.55-3.47,3.47-3.47h21.31l28.62,94.5
					h82.85l23.04-65.18c0.64-1.81,2.62-2.75,4.43-2.12c1.81,0.64,2.75,2.62,2.12,4.43L158.95,158.74z"/>
				<polygon class="st0" points="56.75,86.85 74.59,147.09 151.3,147.09 172.12,86.85 				"/>
				<g>
					
						<ellipse transform="matrix(0.9732 -0.2298 0.2298 0.9732 -35.2907 39.485)" class="st0" cx="151.92" cy="171.29" rx="6.35" ry="6.35"/>
					
						<ellipse transform="matrix(0.9807 -0.1955 0.1955 0.9807 -31.996 18.3456)" class="st0" cx="76.96" cy="171.29" rx="6.35" ry="6.35"/>
				</g>
				<path class="st0" d="M180.35,81.17H56.75c-1.92,0-3.47-1.55-3.47-3.47c0-1.92,1.55-3.47,3.47-3.47h123.6
					c1.92,0,3.47,1.55,3.47,3.47C183.82,79.62,182.27,81.17,180.35,81.17z"/>
			</g>
			<g>
				<path class="st0" d="M159.66,158.02H66.75l-28.62-94.5H21.97c-1.92,0-3.47-1.55-3.47-3.47c0-1.92,1.55-3.47,3.47-3.47h21.31
					l28.62,94.5h82.85L177.8,85.9c0.64-1.81,2.62-2.75,4.43-2.12c1.81,0.64,2.75,2.62,2.12,4.43L159.66,158.02z"/>
				<polygon class="st0" points="57.46,86.14 75.3,146.37 152.01,146.37 172.84,86.14 				"/>
				<g>
					
						<ellipse transform="matrix(0.9732 -0.2298 0.2298 0.9732 -35.1071 39.6303)" class="st0" cx="152.63" cy="170.58" rx="6.35" ry="6.35"/>
					
						<ellipse transform="matrix(0.9798 -0.2 0.2 0.9798 -32.5411 18.9772)" class="st0" cx="77.67" cy="170.58" rx="6.35" ry="6.35"/>
				</g>
				<path class="st0" d="M181.07,80.46H57.46c-1.92,0-3.47-1.55-3.47-3.47c0-1.92,1.55-3.47,3.47-3.47h123.6
					c1.92,0,3.47,1.55,3.47,3.47C184.54,78.9,182.98,80.46,181.07,80.46z"/>
			</g>
			<g>
				<path class="st0" d="M160.38,157.3H67.47L38.85,62.8H22.69c-1.92,0-3.47-1.55-3.47-3.47c0-1.92,1.55-3.47,3.47-3.47H44
					l28.62,94.5h82.85l23.04-65.18c0.64-1.81,2.62-2.75,4.43-2.12c1.81,0.64,2.75,2.62,2.12,4.43L160.38,157.3z"/>
				<polygon class="st0" points="58.18,85.42 76.02,145.66 152.73,145.66 173.55,85.42 				"/>
				<g>
					
						<ellipse transform="matrix(0.9732 -0.2298 0.2298 0.9732 -34.9236 39.7755)" class="st0" cx="153.35" cy="169.86" rx="6.35" ry="6.35"/>
					
						<ellipse transform="matrix(0.9789 -0.2043 0.2043 0.9789 -33.046 19.5948)" class="st0" cx="78.39" cy="169.86" rx="6.35" ry="6.35"/>
				</g>
				<path class="st0" d="M181.78,79.74H58.18c-1.92,0-3.47-1.55-3.47-3.47c0-1.92,1.55-3.47,3.47-3.47h123.6
					c1.92,0,3.47,1.55,3.47,3.47C185.25,78.19,183.7,79.74,181.78,79.74z"/>
			</g>
			<g>
				<path class="st0" d="M161.09,156.59H68.18l-28.62-94.5H23.4c-1.92,0-3.47-1.55-3.47-3.47s1.55-3.47,3.47-3.47h21.31l28.62,94.5
					h82.85l23.04-65.18c0.64-1.81,2.62-2.75,4.43-2.12c1.81,0.64,2.75,2.62,2.12,4.43L161.09,156.59z"/>
				<polygon class="st0" points="58.9,84.7 76.73,144.94 153.44,144.94 174.27,84.7 				"/>
				<g>
					
						<ellipse transform="matrix(0.9732 -0.2298 0.2298 0.9732 -34.7401 39.9207)" class="st0" cx="154.06" cy="169.15" rx="6.35" ry="6.35"/>
					
						<ellipse transform="matrix(0.978 -0.2084 0.2084 0.978 -33.5131 20.1988)" class="st0" cx="79.1" cy="169.15" rx="6.35" ry="6.35"/>
				</g>
				<path class="st0" d="M182.5,79.03H58.9c-1.92,0-3.47-1.55-3.47-3.47c0-1.92,1.55-3.47,3.47-3.47h123.6
					c1.92,0,3.47,1.55,3.47,3.47C185.97,77.47,184.42,79.03,182.5,79.03z"/>
			</g>
			<g>
				<path class="st0" d="M161.81,155.87H68.9l-28.62-94.5H24.12c-1.92,0-3.47-1.55-3.47-3.47s1.55-3.47,3.47-3.47h21.31l28.62,94.5
					h82.85l23.04-65.18c0.64-1.81,2.62-2.75,4.43-2.12c1.81,0.64,2.75,2.62,2.12,4.43L161.81,155.87z"/>
				<polygon class="st0" points="59.61,83.99 77.45,144.22 154.16,144.22 174.98,83.99 				"/>
				<g>
					
						<ellipse transform="matrix(0.9732 -0.2298 0.2298 0.9732 -34.5566 40.0659)" class="st0" cx="154.78" cy="168.43" rx="6.35" ry="6.35"/>
					
						<ellipse transform="matrix(0.9772 -0.2123 0.2123 0.9772 -33.9448 20.79)" class="st0" cx="79.82" cy="168.43" rx="6.35" ry="6.35"/>
				</g>
				<path class="st0" d="M183.21,78.31H59.61c-1.92,0-3.47-1.55-3.47-3.47s1.55-3.47,3.47-3.47h123.6c1.92,0,3.47,1.55,3.47,3.47
					S185.13,78.31,183.21,78.31z"/>
			</g>
			<g>
				<path class="st0" d="M162.52,155.16H69.61L41,60.66H24.84c-1.92,0-3.47-1.55-3.47-3.47s1.55-3.47,3.47-3.47h21.31l28.62,94.5
					h82.85l23.04-65.18c0.64-1.81,2.62-2.75,4.43-2.12c1.81,0.64,2.75,2.62,2.12,4.43L162.52,155.16z"/>
				<polygon class="st0" points="60.33,83.27 78.16,143.51 154.87,143.51 175.7,83.27 				"/>
				<g>
					
						<ellipse transform="matrix(0.9732 -0.2298 0.2298 0.9732 -34.3731 40.2112)" class="st0" cx="155.49" cy="167.71" rx="6.35" ry="6.35"/>
					
						<ellipse transform="matrix(0.9764 -0.2161 0.2161 0.9764 -34.3433 21.3687)" class="st0" cx="80.53" cy="167.71" rx="6.35" ry="6.35"/>
				</g>
				<path class="st0" d="M183.93,77.6H60.33c-1.92,0-3.47-1.55-3.47-3.47s1.55-3.47,3.47-3.47h123.6c1.92,0,3.47,1.55,3.47,3.47
					S185.85,77.6,183.93,77.6z"/>
			</g>
			<g>
				<path class="st0" d="M163.24,154.44H70.33l-28.62-94.5H25.55c-1.92,0-3.47-1.55-3.47-3.47c0-1.92,1.55-3.47,3.47-3.47h21.31
					l28.62,94.5h82.85l23.04-65.18c0.64-1.81,2.62-2.75,4.43-2.12c1.81,0.64,2.75,2.62,2.12,4.43L163.24,154.44z"/>
				<polygon class="st0" points="61.04,82.56 78.88,142.79 155.59,142.79 176.42,82.56 				"/>
				<g>
					<path class="st0" d="M149.86,167c0,3.51,2.84,6.35,6.35,6.35c3.51,0,6.35-2.84,6.35-6.35c0-3.51-2.84-6.35-6.35-6.35
						C152.7,160.65,149.86,163.49,149.86,167z"/>
					<path class="st0" d="M74.9,167c0,3.51,2.84,6.35,6.35,6.35c3.51,0,6.35-2.84,6.35-6.35c0-3.51-2.84-6.35-6.35-6.35
						C77.74,160.65,74.9,163.49,74.9,167z"/>
				</g>
				<path class="st0" d="M184.64,76.88H61.04c-1.92,0-3.47-1.55-3.47-3.47s1.55-3.47,3.47-3.47h123.6c1.92,0,3.47,1.55,3.47,3.47
					S186.56,76.88,184.64,76.88z"/>
			</g>
			<g>
				<path class="st0" d="M163.95,153.73H71.04l-28.62-94.5H26.27c-1.92,0-3.47-1.55-3.47-3.47c0-1.92,1.55-3.47,3.47-3.47h21.31
					l28.62,94.5h82.85l23.04-65.18c0.64-1.81,2.62-2.75,4.43-2.12c1.81,0.64,2.75,2.62,2.12,4.43L163.95,153.73z"/>
				<polygon class="st0" points="61.76,81.84 79.59,142.08 156.3,142.08 177.13,81.84 				"/>
				<g>
					<path class="st0" d="M150.58,166.28c0,3.51,2.84,6.35,6.35,6.35c3.51,0,6.35-2.84,6.35-6.35c0-3.51-2.84-6.35-6.35-6.35
						C153.42,159.94,150.58,162.78,150.58,166.28z"/>
					<path class="st0" d="M75.62,166.28c0,3.51,2.84,6.35,6.35,6.35c3.51,0,6.35-2.84,6.35-6.35c0-3.51-2.84-6.35-6.35-6.35
						C78.46,159.94,75.62,162.78,75.62,166.28z"/>
				</g>
				<path class="st0" d="M185.36,76.17H61.76c-1.92,0-3.47-1.55-3.47-3.47s1.55-3.47,3.47-3.47h123.6c1.92,0,3.47,1.55,3.47,3.47
					S187.28,76.17,185.36,76.17z"/>
			</g>
			<g>
				<path class="st0" d="M164.67,153.01H71.76l-28.62-94.5H26.98c-1.92,0-3.47-1.55-3.47-3.47s1.55-3.47,3.47-3.47h21.31l28.62,94.5
					h82.85l23.04-65.18c0.64-1.81,2.62-2.75,4.43-2.12c1.81,0.64,2.75,2.62,2.12,4.43L164.67,153.01z"/>
				<polygon class="st0" points="62.47,81.13 80.31,141.36 157.02,141.36 177.85,81.13 				"/>
				<g>
					<path class="st0" d="M151.29,165.57c0,3.51,2.84,6.35,6.35,6.35c3.51,0,6.35-2.84,6.35-6.35c0-3.51-2.84-6.35-6.35-6.35
						C154.13,159.22,151.29,162.06,151.29,165.57z"/>
					<path class="st0" d="M76.33,165.57c0,3.51,2.84,6.35,6.35,6.35c3.51,0,6.35-2.84,6.35-6.35c0-3.51-2.84-6.35-6.35-6.35
						C79.17,159.22,76.33,162.06,76.33,165.57z"/>
				</g>
				<path class="st0" d="M186.08,75.45H62.47c-1.92,0-3.47-1.55-3.47-3.47s1.55-3.47,3.47-3.47h123.6c1.92,0,3.47,1.55,3.47,3.47
					S187.99,75.45,186.08,75.45z"/>
			</g>
			<g>
				<g>
					<path class="st0" d="M165.38,152.3H72.47L43.86,57.8H27.7c-1.92,0-3.47-1.55-3.47-3.47s1.55-3.47,3.47-3.47h21.31l28.62,94.5
						h82.85l23.04-65.18c0.64-1.81,2.62-2.75,4.43-2.12c1.81,0.64,2.75,2.62,2.12,4.43L165.38,152.3z"/>
				</g>
				<polygon class="st0" points="63.19,80.41 81.03,140.65 157.73,140.65 178.56,80.41 				"/>
				<g>
					<path class="st0" d="M152.01,164.85c0,3.51,2.84,6.35,6.35,6.35c3.51,0,6.35-2.84,6.35-6.35c0-3.51-2.84-6.35-6.35-6.35
						C154.85,158.5,152.01,161.35,152.01,164.85z"/>
					<path class="st0" d="M77.05,164.85c0,3.51,2.84,6.35,6.35,6.35c3.51,0,6.35-2.84,6.35-6.35c0-3.51-2.84-6.35-6.35-6.35
						C79.89,158.5,77.05,161.35,77.05,164.85z"/>
				</g>
				<g>
					<path class="st0" d="M186.79,74.73H63.19c-1.92,0-3.47-1.55-3.47-3.47s1.55-3.47,3.47-3.47h123.6c1.92,0,3.47,1.55,3.47,3.47
						S188.71,74.73,186.79,74.73z"/>
				</g>
			</g>
		</g>
		<g>
			<g>
				<path class="st1" d="M165.55,152.13H72.64l-28.62-94.5H27.86c-1.92,0-3.47-1.55-3.47-3.47c0-1.92,1.55-3.47,3.47-3.47h21.31
					l28.62,94.5h82.85l23.04-65.18c0.64-1.81,2.62-2.75,4.43-2.12c1.81,0.64,2.75,2.62,2.12,4.43L165.55,152.13z"/>
			</g>
			<polygon class="st1" points="63.35,80.25 81.19,140.48 157.9,140.48 178.73,80.25 			"/>
			<g>
				<circle class="st1" cx="158.52" cy="164.69" r="6.35"/>
				<path class="st1" d="M77.21,164.69c0,3.51,2.84,6.35,6.35,6.35c3.51,0,6.35-2.84,6.35-6.35c0-3.51-2.84-6.35-6.35-6.35
					C80.06,158.34,77.21,161.18,77.21,164.69z"/>
			</g>
			<g>
				<path class="st1" d="M186.96,74.57H63.35c-1.92,0-3.47-1.55-3.47-3.47c0-1.92,1.55-3.47,3.47-3.47h123.6
					c1.92,0,3.47,1.55,3.47,3.47C190.43,73.01,188.87,74.57,186.96,74.57z"/>
			</g>
		</g>
		<g>
			<path class="st2" d="M100.35,95.62c1.84,0.51,2.76,1.47,2.76,2.87v6.29c0,2.49-1.27,3.74-3.81,3.74h-6.75V83.42h5.73
				c2.98,0,4.47,1.51,4.47,4.54v4.82c0,1.44-0.8,2.33-2.41,2.66V95.62z M95.91,94.01h1.57c1.28,0,1.92-0.61,1.92-1.82v-3.91
				c0-1.21-0.5-1.82-1.5-1.82h-1.99V94.01z M95.91,105.47h2.52c0.89,0,1.33-0.36,1.33-1.08v-5.56c0-1.19-0.66-1.78-1.99-1.78h-1.85
				V105.47z"/>
			<path class="st2" d="M113.88,108.51h-7.97V83.42h3.36v22.05h4.61V108.51z"/>
			<path class="st2" d="M118.98,108.51h-3.36V87.72c0-2.87,1.34-4.3,4.02-4.3h2.52c2.68,0,4.02,1.43,4.02,4.3v20.79h-3.35v-9.19
				h-3.84V108.51z M122.82,96.28v-8.35c0-0.98-0.49-1.47-1.47-1.47h-0.91c-0.98,0-1.47,0.49-1.47,1.47v8.35H122.82z"/>
			<path class="st2" d="M139.18,102.64v1.61c0,2.84-1.34,4.26-4.02,4.26h-2.17c-2.68,0-4.02-1.42-4.02-4.26V87.69
				c0-2.84,1.34-4.26,4.02-4.26h2.17c2.68,0,4.02,1.42,4.02,4.26v2.83h-3.36v-2.59c0-0.98-0.5-1.47-1.5-1.47h-0.66
				c-0.89,0-1.33,0.49-1.33,1.47v16.08c0,0.98,0.44,1.47,1.33,1.47h0.84c0.89,0,1.33-0.49,1.33-1.47v-1.36H139.18z"/>
			<path class="st2" d="M145.15,108.51h-3.36V83.42h3.36V108.51z M152.87,108.51h-3.35l-4.19-12.27v-0.21l3.49-12.62h3.08
				l-3.53,12.48L152.87,108.51z"/>
		</g>
		<g>
			<path class="st2" d="M97.08,121.9v3.04h-4.4v11.39h-3.35v-25.09h8.32v3.04h-4.96v7.62H97.08z"/>
			<path class="st2" d="M99.91,111.24h6.57c2.56,0,3.84,1.43,3.84,4.3v6.19c0,2.19-0.66,3.58-1.99,4.16l2.34,10.45h-3.18l-2.2-10.13
				h-2.03v10.13h-3.36V111.24z M103.27,123.33h2.2c1,0,1.5-0.61,1.5-1.82v-5.42c0-1.21-0.5-1.82-1.5-1.82h-2.2V123.33z"/>
			<path class="st2" d="M113.12,136.33v-25.09h3.36v25.09H113.12z"/>
			<path class="st2" d="M119.62,136.33v-25.09h5.84c3.15,0,4.72,1.61,4.72,4.82v16.63c0,2.42-1.34,3.63-4.02,3.63H119.62z
				 M122.98,133.29h2.52c0.89,0,1.33-0.37,1.33-1.12V116.1c0-1.21-0.5-1.82-1.5-1.82h-2.34V133.29z"/>
			<path class="st2" d="M136.33,136.33h-3.36v-20.79c0-2.87,1.34-4.3,4.02-4.3h2.52c2.68,0,4.02,1.43,4.02,4.3v20.79h-3.35v-9.19
				h-3.84V136.33z M140.17,124.1v-8.35c0-0.98-0.49-1.47-1.47-1.47h-0.91c-0.98,0-1.47,0.49-1.47,1.47v8.35H140.17z"/>
			<path class="st2" d="M152.05,136.33h-3.36v-9.23l-4.12-15.87h3.32l2.52,10.9h0.1l2.27-10.9h3.32l-4.05,15.87V136.33z"/>
		</g>
	</g>
	<g>
		<path class="st3" d="M561.6,0v216H146.57C173.77,171.98,258.19,35.47,280.9,0H561.6z"/>
		<path class="st2" d="M561.6,0v216H146.57C173.77,171.98,258.19,35.47,280.9,0H561.6z"/>
	</g>
	<g>
		
			<ellipse transform="matrix(0.2298 -0.9732 0.9732 0.2298 115.4833 225.0307)" class="st4" cx="199.91" cy="39.56" rx="11.56" ry="11.56"/>
		<path class="st4" d="M44.95,148.3c0,2.62-2.12,4.74-4.74,4.74c-2.62,0-4.74-2.12-4.74-4.74c0-2.62,2.12-4.74,4.74-4.74
			C42.83,143.56,44.95,145.68,44.95,148.3z"/>
		<circle class="st4" cx="117.54" cy="187.11" r="8.59"/>
		<path class="st4" d="M55.02,197.78c0,2.45-1.99,4.44-4.44,4.44c-2.45,0-4.44-1.99-4.44-4.44s1.99-4.44,4.44-4.44
			C53.03,193.33,55.02,195.32,55.02,197.78z"/>
		<circle class="st4" cx="102.73" cy="27.11" r="15.7"/>
		<path class="st4" d="M156.95,39.56c0,1.8-1.46,3.26-3.26,3.26c-1.8,0-3.26-1.46-3.26-3.26c0-1.8,1.46-3.26,3.26-3.26
			C155.49,36.3,156.95,37.76,156.95,39.56z"/>
		<path class="st4" d="M223.91,71.85c0,2.62-2.12,4.74-4.74,4.74c-2.62,0-4.74-2.12-4.74-4.74c0-2.62,2.12-4.74,4.74-4.74
			C221.79,67.11,223.91,69.23,223.91,71.85z"/>
		<circle class="st4" cx="25.39" cy="93.19" r="8.3"/>
		<circle class="st5" cx="244.95" cy="22.96" r="10.37"/>
		<path class="st5" d="M54.43,121.04c0,1.64-1.33,2.96-2.96,2.96c-1.64,0-2.96-1.33-2.96-2.96s1.33-2.96,2.96-2.96
			C53.1,118.07,54.43,119.4,54.43,121.04z"/>
		<circle class="st5" cx="24.5" cy="189.48" r="8"/>
		<path class="st5" d="M97.69,194.81c0,0.82-0.66,1.48-1.48,1.48s-1.48-0.66-1.48-1.48c0-0.82,0.66-1.48,1.48-1.48
			S97.69,194,97.69,194.81z"/>
		
			<ellipse transform="matrix(0.2298 -0.9732 0.9732 0.2298 7.7912 61.6965)" class="st5" cx="42.87" cy="25.93" rx="9.78" ry="9.78"/>
		<circle class="st5" cx="79.02" cy="46.07" r="2.07"/>
		<path class="st5" d="M207.91,95.85c0,2.78-2.26,5.04-5.04,5.04c-2.78,0-5.04-2.26-5.04-5.04c0-2.78,2.26-5.04,5.04-5.04
			C205.66,90.81,207.91,93.07,207.91,95.85z"/>
	</g>
	<g>
		<path class="st4" d="M162.87,209.24c-0.09,0-0.18-0.02-0.26-0.08c-0.23-0.15-0.31-0.45-0.16-0.69l66.37-106.67
			c0.15-0.23,0.46-0.31,0.69-0.16c0.23,0.15,0.31,0.45,0.16,0.69L163.3,209C163.2,209.16,163.04,209.24,162.87,209.24z"/>
	</g>
	<g>
		<path class="st4" d="M223.32,133.98c-0.09,0-0.18-0.02-0.26-0.07c-0.24-0.14-0.31-0.45-0.17-0.69l73.19-121.19
			c0.14-0.24,0.45-0.31,0.69-0.17c0.24,0.14,0.31,0.45,0.17,0.69l-73.18,121.19C223.65,133.9,223.49,133.98,223.32,133.98z"/>
	</g>
</g>
<g>
	<g>
		<path class="st6" d="M367,99.45c-1.22-2.64-2.54-4.78-4.32-6.86c-6.35-7.62-18.71-9.66-27.7-5.18c-3.1,1.57-2.54,1.47-4.58,3.2
			c-4.37,3.61-8.03,9.61-8.03,15.6v43.46h9.45v-18.51c10.88,0,20.08,1.63,27.65-4.63c1.12-0.92,2.08-1.47,3-2.59
			C367.61,117.5,371.02,108.35,367,99.45z M353.78,119.12c-3.3,2.39-6.46,3-12.05,3h-9.91c0-11.39-1.98-20.84,6.76-25.98
			c3.36-1.93,4.83-1.58,8.74-1.58c5.34,0,11.64,6.31,11.64,11.64C358.96,111.45,358.51,115.77,353.78,119.12z"/>
		<path class="st6" d="M273.31,130.77l0.41,0.41c8.03,0.05,14.79-0.46,20.79-6.76c0.81-0.86,1.17-1.63,2.03-2.29
			c5.85,8.74,13.83,9.05,22.82,9.05v-9.05c-7.73,0-13.12-1.02-16.52-7.17c-3.15-5.64-1.88-13.73,3.3-17.59
			c3.71-2.8,7.06-3.2,13.22-3.2v-9.05c-7.98,0-12.66-0.25-18.86,4.83c-2.34,1.93-2.29,1.68-3.97,4.22
			c-0.81-0.56-1.12-1.27-1.83-2.03c-1.68-1.83-4.78-3.91-7.06-5.03c-4.93-2.34-7.52-1.98-14.33-1.98v9.05
			c9.66,0,18.05,2.8,18.1,13.78c0.05,11.28-8.08,14.18-18.1,14.18V130.77z"/>
		<path class="st6" d="M493.58,110.53c0,3.46,2.24,8.79,4.22,11.24l3.81,3.97c2.03,1.68,1.47,1.63,4.58,3.15
			c5.8,2.9,8.74,2.29,15.35,2.29v-9.05c-5.74,0-9.15-0.15-13.12-2.8c-6.05-4.12-5.39-10.57-5.39-16.11h18.5v-9.05h-18.5V66.61h-9.45
			L493.58,110.53L493.58,110.53z"/>
		<path class="st6" d="M463.44,105.81v25.37h9.45v-23.69c0-9.86,8.44-13.32,17.23-13.32h1.27v-9.05c-6.71,0-12.5-0.56-18.56,4.27
			c-0.92,0.71-2.03,1.52-2.85,2.29C466.94,94.52,463.44,101.18,463.44,105.81L463.44,105.81z"/>
		<g>
			
				<linearGradient id="SVGID_1_" gradientUnits="userSpaceOnUse" x1="-757.165" y1="397.418" x2="-750.4941" y2="397.418" gradientTransform="matrix(1 0 0 -1 1163.3468 535.0977)">
				<stop  offset="0" style="stop-color:#81BA41"/>
				<stop  offset="1" style="stop-color:#327F3E"/>
			</linearGradient>
			<path class="st7" d="M412.85,137.68c0,0.6-0.16,1.17-0.44,1.65c-0.57,1.01-1.66,1.68-2.9,1.68c-1.84,0-3.34-1.49-3.34-3.34
				c0-0.2,0.02-0.4,0.05-0.59c0.16-0.87,0.65-1.63,1.35-2.12c0.54-0.39,1.21-0.62,1.93-0.62c1.55,0,2.85,1.06,3.23,2.49
				C412.82,137.11,412.85,137.39,412.85,137.68z"/>
			
				<linearGradient id="SVGID_2_" gradientUnits="userSpaceOnUse" x1="-737.1475" y1="397.418" x2="-730.4765" y2="397.418" gradientTransform="matrix(1 0 0 -1 1163.3468 535.0977)">
				<stop  offset="0" style="stop-color:#81BA41"/>
				<stop  offset="1" style="stop-color:#327F3E"/>
			</linearGradient>
			<path class="st8" d="M432.87,137.68c0,1.84-1.49,3.34-3.34,3.34c-1.24,0-2.33-0.68-2.9-1.68c-0.28-0.49-0.44-1.05-0.44-1.65
				c0-0.29,0.04-0.57,0.11-0.84c0.37-1.43,1.68-2.49,3.23-2.49c0.72,0,1.39,0.23,1.93,0.62c0.7,0.5,1.19,1.25,1.35,2.12
				C432.85,137.28,432.87,137.48,432.87,137.68z"/>
			
				<linearGradient id="SVGID_3_" gradientUnits="userSpaceOnUse" x1="-778.8456" y1="424.9369" x2="-722.8903" y2="424.9369" gradientTransform="matrix(1 0 0 -1 1163.3468 535.0977)">
				<stop  offset="0" style="stop-color:#81BA41"/>
				<stop  offset="1" style="stop-color:#327F3E"/>
			</linearGradient>
			<path class="st9" d="M429.98,120.8c-2.38,2.38-5.15,3.81-8.3,4.29c-3.16,0.48-6.15,0.02-8.97-1.39l27.75-27.75L437,92.5
				c-0.86-0.86-1.76-1.64-2.7-2.35c-1.74-1.32-3.6-2.37-5.6-3.17c-3.09-1.23-6.23-1.84-9.42-1.84c-3.19,0-6.33,0.61-9.42,1.84
				c-2,0.79-3.87,1.85-5.6,3.17c-0.94,0.71-1.84,1.49-2.7,2.35c-0.05,0.05-0.1,0.1-0.15,0.15c-1.83,1.85-3.29,3.87-4.4,6.06v-6.06
				c0-0.63-0.23-1.2-0.61-1.63c-0.46-0.53-1.14-0.87-1.9-0.87h-8.76c-0.69,0-1.25,0.56-1.25,1.25c0,0.69,0.56,1.25,1.25,1.25h7.51
				c0.6,0,1.09,0.41,1.22,0.96c0.02,0.09,0.03,0.19,0.03,0.29v19.35c0.18,1.49,0.5,2.96,0.95,4.42c0.19,0.62,0.4,1.24,0.64,1.86
				c0.08,0.21,0.17,0.43,0.26,0.64c0.2,0.48,0.42,0.95,0.65,1.41c1.14,2.27,2.66,4.35,4.55,6.24c2.07,2.07,4.4,3.72,6.98,4.95h0
				c0.32-0.06,0.64-0.1,0.97-0.1c1.55,0,2.93,0.7,3.85,1.81c1.92,0.46,3.88,0.69,5.91,0.69c2.26,0,4.43-0.29,6.55-0.86h0v0
				c0.92-1.01,2.23-1.64,3.71-1.64c0.2,0,0.4,0.01,0.6,0.04c2.53-1.21,4.82-2.85,6.86-4.89l3.45-3.46l-7.02-7.02L429.98,120.8z
				 M409.75,112.61l-0.05,0.05c-1.8,1.8-3.13,3.13-4.02,4.02c-0.65-1.3-1.09-2.63-1.34-4.02c-0.14-0.82-0.22-1.66-0.22-2.5v-0.06
				c0-1.76,0.26-3.41,0.79-4.95c0.29-0.87,0.68-1.7,1.14-2.5c0.67-1.15,1.5-2.23,2.52-3.25c2.38-2.38,5.14-3.79,8.31-4.23
				c3.16-0.45,6.15,0.04,8.97,1.45c-1.04,1.04-2.51,2.49-4.4,4.35c-1.37,1.35-2.79,2.74-4.24,4.19c-0.55,0.55-1.1,1.1-1.67,1.66
				c-1.15,1.15-2.26,2.27-3.34,3.35C411.36,111,410.54,111.81,409.75,112.61z"/>
		</g>
		<g>
			<path class="st4" d="M460.72,126.11c-0.9-7.86-1.8-15.72-2.69-23.58c-0.92-7.97-1.83-15.95-2.74-23.93
				c-0.4-3.51-0.81-7.02-1.23-10.68h-16.89c0-0.62,0.01-1.08,0-1.55c-0.04-1.73,0.05-3.48-0.13-5.19
				c-1.03-9.37-8.05-16.79-17.51-18.58c-9-1.71-18.37,2.93-22.66,11.18c-1.68,3.25-2.45,6.7-2.39,10.35c0.02,1.24,0,2.48,0,3.83
				h-16.89c-0.29,2.56-0.57,5.02-0.85,7.47c-0.91,7.94-1.83,15.87-2.73,23.81c-0.9,7.9-1.8,15.8-2.7,23.7
				c-0.92,8.01-1.83,16.03-2.75,24.04h94.54C462.3,140.03,461.51,133.07,460.72,126.11z M411.36,47.16
				c10.74-2.95,21.24,4.89,21.51,16.01c0.04,1.53,0.01,3.06,0.01,4.71h-34C397.53,56.99,402.86,49.5,411.36,47.16z M373.38,142.66
				c0.32-2.87,0.63-5.68,0.95-8.48c0.91-7.94,1.82-15.88,2.73-23.81s1.83-15.88,2.74-23.81c0.5-4.42,1.02-8.84,1.5-13.26
				c0.07-0.65,0.13-1.1,0.99-1.09c3.86,0.04,7.72,0.02,11.58,0.03c0.15,0,0.3,0.05,0.6,0.11c0,1.44,0.03,2.89-0.03,4.33
				c-0.01,0.28-0.32,0.59-0.56,0.82c-1.89,1.76-2.06,4.43-0.37,6.2c1.67,1.76,4.43,1.78,6.13,0.05c1.77-1.8,1.61-4.47-0.35-6.28
				c-0.23-0.22-0.5-0.55-0.51-0.84c-0.05-1.41-0.02-2.82-0.02-4.31h34.12c0,1.5,0.03,3.02-0.02,4.54c-0.01,0.23-0.34,0.49-0.57,0.69
				c-1.89,1.72-2.02,4.42-0.29,6.2c1.68,1.74,4.45,1.72,6.13-0.02c1.7-1.76,1.53-4.46-0.33-6.21c-0.32-0.3-0.57-0.83-0.6-1.27
				c-0.08-1.29-0.03-2.58-0.03-3.92c0.45-0.03,0.76-0.08,1.07-0.08c3.63-0.01,7.25,0.02,10.87-0.02c0.82-0.01,1.15,0.17,1.25,1.08
				c1.2,10.76,2.46,21.51,3.69,32.26c1.14,9.97,2.26,19.94,3.4,29.92c0.27,2.38,0.55,4.75,0.84,7.2L373.38,142.66L373.38,142.66z"/>
		</g>
	</g>
</g>
</svg>
