<?xml version="1.0" encoding="utf-8"?>
<!-- Generator: Adobe Illustrator 23.0.1, SVG Export Plug-In . SVG Version: 6.00 Build 0)  -->
<svg version="1.1" id="Layer_1" xmlns="http://www.w3.org/2000/svg" xmlns:xlink="http://www.w3.org/1999/xlink" x="0px" y="0px"
	 viewBox="0 0 1080 1080" style="enable-background:new 0 0 1080 1080;" xml:space="preserve">
<style type="text/css">
	.st0{display:none;}
	.st1{display:inline;fill:#0A3637;}
	.st2{display:inline;}
	.st3{fill:#8AB83E;}
	.st4{display:inline;fill:#8AB83E;}
	.st5{display:inline;fill:#F49B03;}
	.st6{display:inline;fill:#DB0000;}
	.st7{display:inline;fill:#14ABC4;}
	.st8{fill:#FFFFFF;}
</style>
<g class="st0">
	<rect x="1187.2" y="381.8" class="st1" width="1079" height="646"/>
	<g class="st2">
		<path class="st3" d="M1783.2,591.6c-0.1,8.4-2.3,15.3-6.6,21.4c-4.7,6.8-9.8,13.4-14.7,20.1c-3.9,5.3-7.8,10.6-11.7,15.9
			c-1.8,2.5-4,2.5-5.8,0c-8.3-11.3-16.6-22.5-24.9-33.8c-4-5.4-6.8-11.4-7.7-18.1c-1.1-7.7,0.3-15,4.1-21.8
			c4.9-8.7,12.2-14.6,21.8-17.3c9.7-2.7,19-1.5,27.7,3.7c9.6,5.8,15.4,14.2,17.2,25.3C1783.1,588.8,1783.1,590.6,1783.2,591.6z
			 M1747.3,643c0.3-0.3,0.5-0.6,0.7-0.8c3.2-4.4,6.4-8.7,9.6-13.1c4.6-6.3,9.3-12.5,13.8-18.9c3.6-5.1,5.7-10.7,5.8-17
			c0.2-9.3-3.3-17.2-10.3-23.3c-6.5-5.7-14.2-8.2-22.9-7.2c-7.9,0.9-14.5,4.4-19.6,10.5c-4.1,4.8-6.4,10.5-7,16.8
			c-0.6,7.3,1.4,14,5.6,19.9c5.9,8.4,12.1,16.6,18.2,24.9C1743.3,637.6,1745.3,640.3,1747.3,643z"/>
		<g>
			<path class="st3" d="M1743.7,606.5v-10.2h-10.2c-1.2,0-2.2-0.3-2.9-1s-1.1-1.5-1.1-2.6c0-1,0.4-1.9,1.1-2.6s1.7-1,2.9-1h10.2
				v-10.2c0-1.2,0.3-2.2,1-3c0.7-0.7,1.5-1.1,2.6-1.1c1,0,1.9,0.4,2.6,1.1s1,1.7,1,2.9V589h10.2c1.2,0,2.2,0.3,2.9,1
				c0.7,0.7,1.1,1.5,1.1,2.6c0,1.1-0.4,1.9-1.1,2.6s-1.7,1-2.9,1H1751v10.2c0,1.2-0.3,2.2-1,2.9s-1.6,1.1-2.6,1.1
				c-1.1,0-1.9-0.4-2.6-1.1S1743.7,607.6,1743.7,606.5z"/>
		</g>
	</g>
	<rect x="1509.2" y="-18.2" class="st1" width="75" height="58"/>
	<rect x="1509.2" y="47.8" class="st4" width="75" height="58"/>
	<rect x="1509.2" y="113.8" class="st5" width="75" height="58"/>
	<rect x="1509.2" y="190.8" class="st6" width="75" height="58"/>
	<rect x="1509.2" y="258.8" class="st7" width="75" height="58"/>
	<g class="st2">
		<g>
			<path class="st8" d="M2110.8,476.3c0.7-0.6,1.4-1.2,2.1-1.8c5.7-5,11.5-10.1,17.2-15.1c7-6.1,14-12.3,20.9-18.5
				c1.1-0.9,2.1-1.9,3.2-2.8c1.1,1,2.2,2,3.2,2.9c6,5.4,11.9,10.8,17.9,16.2c4.8,4.4,9.6,8.7,14.4,13.1c2.1,1.9,4.2,3.8,6.2,5.6
				c0.1,0.1,0.2,0.1,0.3,0.2c0,0,0,0.1,0,0.1c-1.4,2-3.4,2.6-5.8,1.8c-1.9-0.6-3.5-1.8-5-3.2c-5.6-5.1-11.3-10.2-17-15.3
				c-4.6-4.1-9.2-8.3-13.9-12.4c-0.1-0.1-0.3-0.3-0.4-0.4c-1.2,1-2.3,2-3.4,2.9c-6.3,5.3-12.6,10.6-18.9,16
				c-4.2,3.5-8.3,7.1-12.5,10.6c-1.1,0.9-2.2,1.7-3.6,2.1c-1.9,0.5-3.7-0.1-4.9-1.7C2110.9,476.5,2110.8,476.5,2110.8,476.3
				C2110.8,476.4,2110.8,476.3,2110.8,476.3z"/>
			<path class="st8" d="M2154,452.3c1.5,1.3,3,2.7,4.5,4c5.5,4.9,11,9.8,16.5,14.6c2.8,2.5,5.7,5,8.5,7.6c0.1,0.1,0.3,0.4,0.3,0.6
				c0,10.7,0,21.4,0,32.1c0,1.3-0.7,2.5-2.4,2.4c-6.8,0-13.6,0-20.4,0c-0.1,0-0.3,0-0.5,0c0-0.2,0-0.4,0-0.6c0-5.6,0-11.2,0-16.8
				c0-1.8-1-3.1-3-3.1c-3,0-6.1,0-9.1,0c-1.6,0-2.5,1.1-2.5,2.7c0,5.9,0,11.8,0,17.6c0,0.1,0,0.1,0,0.3c-0.2,0-0.4,0-0.6,0
				c-6.9,0-13.9,0-20.8,0c-1.2,0-1.9-0.6-2-1.8c0-0.1,0-0.3,0-0.4c0-10.8,0-21.5,0-32.2c0-0.4,0.1-0.7,0.4-0.9
				c5.8-4.9,11.6-9.7,17.4-14.6c4-3.4,8.1-6.8,12.1-10.1C2152.9,453.3,2153.4,452.8,2154,452.3z"/>
			<path class="st8" d="M2177.8,446.7c2.8,0,5.6,0,8.4,0c0,5.8,0,11.5,0,17.3c-0.1-0.1-0.2-0.1-0.3-0.2c-2.6-2.2-5.1-4.4-7.7-6.5
				c-0.3-0.3-0.4-0.5-0.4-0.9c0-3,0-6,0-9.1C2177.8,447.1,2177.8,447,2177.8,446.7z"/>
		</g>
		<text transform="matrix(1 0 0 1 2103.655 568.5881)" class="st8" style="font-family:'MyriadPro-Regular'; font-size:40.4349px;">Home</text>
	</g>
	<text transform="matrix(1 0 0 1 1601.7996 27.8)" class="st2" style="font-family:'MyriadPro-Regular'; font-size:45px;">#0a3637</text>
	<text transform="matrix(1 0 0 1 1601.7996 85.8)" class="st2" style="font-family:'MyriadPro-Regular'; font-size:45px;">#8ab83e</text>
	<text transform="matrix(1 0 0 1 1601.7996 154.8)" class="st2" style="font-family:'MyriadPro-Regular'; font-size:45px;">#f49b03</text>
	<text transform="matrix(1 0 0 1 1601.7996 229.8)" class="st2" style="font-family:'MyriadPro-Regular'; font-size:45px;">#db0000</text>
	<text transform="matrix(1 0 0 1 1601.7996 296.8)" class="st2" style="font-family:'MyriadPro-Regular'; font-size:45px;">#14abc4</text>
</g>
<g>
	<g>
		<g>
			<g>
				<path class="st8" d="M360.2,556.4c53.5,63.8,137.4,66.6,190-1.6c47.2,61.4,128.4,62.4,177.5,0.3c13.5,16.4,30,28.8,49.6,36.9
					c20,8.3,40.3,10,62.3,2.2c0,4.9,0,8.5,0,12c0,81.9,0.1,163.8,0.1,245.6c0,36.8-19.7,56.5-56.3,56.5
					c-158.1,0.1-316.2,0.1-474.4,0.1c-29.9,0-52.1-21.1-52.3-50.9c-0.5-85.5-0.5-171-0.7-256.6c0-1,0.3-1.9,0.6-3.8
					C299.2,605.2,333.9,591.8,360.2,556.4z M359.6,886.9c54.5,0,108,0,161.6,0c0-83.5,0-166.2,0-249.3c-54.1,0-107.6,0-161.6,0
					C359.6,721,359.6,803.7,359.6,886.9z M671,776.5c17.5,0,35.1,0.1,52.6,0c13.1-0.1,17.7-4.7,17.8-18c0.1-34.4,0.1-68.8,0-103.2
					c0-13.2-4.8-18-17.9-18.1c-34.7-0.1-69.5-0.1-104.2,0c-12,0-17.1,5-17.2,16.7c-0.1,35.4-0.1,70.8,0,106.2
					c0,11.5,4.9,16.3,16.3,16.4C635.9,776.6,653.4,776.5,671,776.5z"/>
				<path class="st8" d="M386.5,483.9c3.1-17.2,6-33.7,9.1-50.2c8.5-45.2,17.1-90.3,25.4-135.5c1-5.5,2.8-7.9,8.8-7.8
					c34.1,0.2,68.2,0,102.3,0c1.3,0,2.5,0.3,4.5,0.6c0,64.3,0,128.3,0,193C486.7,483.9,437.3,483.9,386.5,483.9z"/>
				<path class="st8" d="M397.6,290.7c-5.1,27.6-10,54.3-15,80.9c-6.4,34.5-12.9,69-19.3,103.5c-1,5.3-1.5,9.8-9.3,9.8
					c-44.1-0.4-88.1-0.2-132.2-0.2c-1.6,0-3.2-0.4-6-0.8c1.3-3.9,2.4-7.2,3.6-10.5c19.4-52.5,38.8-104.9,58.2-157.3
					c6.9-18.5,16.2-25.2,35.7-25.2C341.2,290.6,368.9,290.7,397.6,290.7z"/>
				<path class="st8" d="M705,483.9c-47.3,0-94.4,0-142.3,0c0-64.1,0-128.1,0-193.8c7.8,0,15.6,0,23.4,0c25.2-0.1,50.3,0.1,75.5-0.5
					c7-0.1,9.6,1.9,10.8,9c10.6,60.6,21.7,121.1,32.6,181.6C705.2,481.1,705,482.1,705,483.9z"/>
				<path class="st8" d="M876.5,484.6c-6.7,0-12.9,0-19.2,0c-39.1,0-78.1-0.2-117.2,0.2c-7.3,0.1-10.1-1.9-11.4-9.5
					c-10.5-60.3-21.6-120.4-32.4-180.6c-0.2-1.3,0-2.6,0-4.5c26,0,51.7-0.6,77.3,0.3c9.7,0.3,17.3,6.9,21.5,15.8
					c27.1,58.1,54,116.3,81,174.5C876.3,481.3,876.2,482,876.5,484.6z"/>
				<path class="st8" d="M381.9,508.2c52.1,0,103,0,154.4,0c2.4,17.2,1,31.7-12.9,45.1c-40.6,39-104.7,37.7-141.8-4.7
					c-2.6-3-4.2-8.3-3.9-12.3C378.3,527.1,380.3,518,381.9,508.2z"/>
				<path class="st8" d="M559.6,508.1c52.3,0,100.6,0,148.8,0c9.9,21,7.4,33.4-9.5,47.8c-39.9,33.8-100,28.6-131.5-13.1
					C561.1,534.5,562.2,520.8,559.6,508.1z"/>
				<path class="st8" d="M735.8,508.3c49.9,0,99.8,0,149.7,0c4.7,27.2-33.4,66.1-67.5,69C773.2,581.1,735.8,550,735.8,508.3z"/>
				<path class="st8" d="M207,507.9c50.6,0,101.2,0,151.8,0c1.4,33.7-35.7,67.4-74.7,68.4C245,577.2,208,544.6,207,507.9z"/>
			</g>
		</g>
	</g>
</g>
</svg>
