<?xml version="1.0" encoding="utf-8"?>
<!-- Generator: Adobe Illustrator 23.0.1, SVG Export Plug-In . SVG Version: 6.00 Build 0)  -->
<svg version="1.1" id="Layer_1" xmlns="http://www.w3.org/2000/svg" xmlns:xlink="http://www.w3.org/1999/xlink" x="0px" y="0px"
	 viewBox="0 0 1080 1080" style="enable-background:new 0 0 1080 1080;" xml:space="preserve">
<style type="text/css">
	.st0{fill:#8AB83E;}
</style>
<g>
	<g>
		<path class="st0" d="M278,469.1c75.1,89.6,192.8,93.5,266.6-2.2c66.2,86.2,180.2,87.6,249.2,0.4c19,23,42.1,40.4,69.6,51.8
			c28.1,11.7,56.6,14,87.4,3.1c0,6.9,0,11.9,0,16.9c0,114.9,0.1,229.9,0.1,344.8c0,51.6-27.6,79.4-79.1,79.4
			c-222,0.1-443.9,0.2-665.9,0.1c-42,0-73.2-29.6-73.4-71.4c-0.7-120.1-0.7-240.1-0.9-360.2c0-1.3,0.4-2.7,0.9-5.4
			C192.5,537.6,241.1,518.8,278,469.1z M277.2,933.1c76.6,0,151.6,0,226.8,0c0-117.2,0-233.4,0-349.9c-75.9,0-151,0-226.8,0
			C277.2,700.2,277.2,816.3,277.2,933.1z M714.3,778.1c24.6,0,49.2,0.1,73.9,0c18.4-0.1,24.9-6.6,24.9-25.3
			c0.1-48.3,0.1-96.6,0-144.9c-0.1-18.5-6.8-25.3-25.2-25.4c-48.8-0.1-97.5-0.1-146.3,0c-16.9,0.1-24,7-24.1,23.5
			c-0.1,49.7-0.2,99.4,0,149.1c0.1,16.1,6.8,22.9,22.9,23C665.1,778.2,689.7,778.1,714.3,778.1z"/>
		<path class="st0" d="M314.9,367.4c4.4-24.2,8.5-47.3,12.8-70.4c11.9-63.4,24-126.8,35.6-190.2c1.4-7.8,3.9-11.1,12.3-11
			c47.9,0.3,95.7,0,143.6,0c1.8,0,3.6,0.4,6.2,0.8c0,90.2,0,180.1,0,270.9C455.6,367.4,386.2,367.4,314.9,367.4z"/>
		<path class="st0" d="M330.6,96.2c-7.2,38.8-14.1,76.2-21,113.5c-9,48.4-18.1,96.8-27.1,145.2c-1.4,7.5-2,13.8-13,13.7
			c-61.9-0.5-123.7-0.2-185.6-0.3c-2.3,0-4.5-0.6-8.5-1.1c1.9-5.4,3.4-10.1,5.1-14.7c27.2-73.6,54.5-147.3,81.8-220.9
			c9.6-26,22.8-35.3,50.1-35.4C251.3,96.1,290.3,96.2,330.6,96.2z"/>
		<path class="st0" d="M762.1,367.3c-66.3,0-132.5,0-199.8,0c0-90,0-179.9,0-272.1c11,0,21.9,0,32.9,0c35.3-0.1,70.6,0.1,106-0.6
			c9.9-0.2,13.4,2.6,15.2,12.6c14.9,85,30.5,170,45.8,254.9C762.3,363.5,762.1,364.9,762.1,367.3z"/>
		<path class="st0" d="M1002.8,368.4c-9.4,0-18.1,0-26.9,0c-54.8,0-109.7-0.2-164.5,0.2c-10.2,0.1-14.2-2.6-16-13.3
			c-14.7-84.6-30.3-169.1-45.5-253.6c-0.3-1.7,0-3.6,0-6.3c36.4,0,72.5-0.8,108.5,0.4c13.6,0.4,24.3,9.6,30.1,22.2
			c38.1,81.6,75.9,163.3,113.7,245C1002.6,363.7,1002.4,364.7,1002.8,368.4z"/>
		<path class="st0" d="M308.5,401.4c73.1,0,144.6,0,216.7,0c3.3,24.2,1.4,44.5-18.1,63.3c-57.1,54.8-147,52.9-199-6.5
			c-3.7-4.2-5.9-11.6-5.5-17.3C303.5,428,306.3,415.2,308.5,401.4z"/>
		<path class="st0" d="M557.9,401.3c73.4,0,141.2,0,208.9,0c13.9,29.4,10.4,46.9-13.4,67.1c-56,47.4-140.3,40.1-184.6-18.4
			C560.1,438.4,561.6,419.1,557.9,401.3z"/>
		<path class="st0" d="M805.3,401.6c70.1,0,140.1,0,210.2,0c6.6,38.2-46.9,92.7-94.8,96.8C857.9,503.8,805.4,460.2,805.3,401.6z"/>
		<path class="st0" d="M63,401c71.1,0,142.1,0,213.1,0c1.9,47.2-50.1,94.6-104.9,96C116.4,498.4,64.3,452.5,63,401z"/>
	</g>
</g>
</svg>
